<?xml version="1.0" encoding="utf-8"?>
<!-- Generator: Adobe Illustrator 23.0.5, SVG Export Plug-In . SVG Version: 6.00 Build 0)  -->
<svg version="1.1" id="Layer_1" xmlns="http://www.w3.org/2000/svg" xmlns:xlink="http://www.w3.org/1999/xlink" x="0px" y="0px"
	 viewBox="0 0 52 52" style="enable-background:new 0 0 52 52;" xml:space="preserve">
<style type="text/css">
	.st0{fill:#01b6df;}
	.st1{fill:#3F3F3F;}
	.st2{fill:#EFEDEE;}
</style>
<g>
	<g>
		<g>
			<g>
				<path class="st0" d="M41.2,39.3l-7.7-5.1c-1.8-1.2-4.2-0.9-5.7,0.6l-2,2c-1.2-0.2-4-0.9-6.9-3.8s-3.6-5.7-3.8-6.9l2-2
					c1.5-1.5,1.8-3.9,0.6-5.7l-5.1-7.7c-0.8-1.1-2-1.9-3.3-2c-1.3,0-2.6,0.4-3.6,1.4l-3.2,3.2C1,14.8,0.2,16.9,0.3,19
					c0.2,4.1,2,12.3,11.2,21.5S28.9,51.4,33,51.7c2.1,0.1,4.2-0.7,5.7-2.2l3.2-3.2c1-1,1.4-2.3,1.3-3.6
					C43.1,41.3,42.3,40.1,41.2,39.3z"/>
				<path class="st1" d="M33.5,52c-0.2,0-0.3,0-0.5,0c-4.1-0.2-12.5-2-21.7-11.3C2,31.5,0.3,23.1,0,19c-0.1-2.2,0.7-4.4,2.3-6
					l3.2-3.2c1-1,2.4-1.5,3.9-1.4s2.7,0.9,3.6,2.1l5.1,7.7c1.3,1.9,1,4.5-0.6,6.1l-1.9,1.9c0.2,1.2,0.9,3.8,3.6,6.5s5.4,3.4,6.5,3.6
					l1.9-1.9c1.6-1.6,4.2-1.9,6.1-0.6l7.7,5.1c1.2,0.8,2,2.1,2.1,3.6c0.1,1.4-0.4,2.9-1.4,3.9l-3.2,3.2C37.5,51.2,35.5,52,33.5,52z
					 M8.9,9.1c-1.1,0-2.2,0.4-3,1.2l-3.2,3.2C1.3,15,0.6,17,0.7,19c0.2,4,2,12.2,11.1,21.3c9,9,17.2,10.8,21.2,11
					c2,0.1,4-0.6,5.4-2.1l3.2-3.2c0.9-0.9,1.3-2.1,1.2-3.4c-0.1-1.3-0.8-2.4-1.8-3.1l-7.7-5.1c-1.7-1.1-3.9-0.9-5.3,0.5l-2,2.2h-0.2
					c-1.1-0.2-4.1-0.9-7.1-3.9s-3.7-5.9-3.9-7.1v-0.2l2.1-2.1c1.4-1.4,1.6-3.6,0.5-5.3l-5-7.5c-0.7-1-1.8-1.7-3.1-1.8
					C9.2,9.1,9.1,9.1,8.9,9.1z"/>
			</g>
		</g>
	</g>
	<g>
		<g>
			<g>
				<path class="st2" d="M38.1,0.3c-7.5,0-13.5,6-13.5,13.5c0,2.3,0.6,4.6,1.7,6.6l-1.7,5c-0.2,0.5,0,1.1,0.4,1.5s1,0.6,1.5,0.4
					l5-1.7c2,1.1,4.3,1.7,6.6,1.7c7.5,0,13.5-6.1,13.5-13.5C51.7,6.4,45.6,0.3,38.1,0.3L38.1,0.3z M32.1,15.4
					c-0.8,0-1.5-0.7-1.5-1.5s0.7-1.5,1.5-1.5s1.5,0.7,1.5,1.5S33,15.4,32.1,15.4z M38.1,15.4c-0.8,0-1.5-0.7-1.5-1.5
					s0.7-1.5,1.5-1.5s1.5,0.7,1.5,1.5S39,15.4,38.1,15.4z M44.1,15.4c-0.8,0-1.5-0.7-1.5-1.5s0.7-1.5,1.5-1.5s1.5,0.7,1.5,1.5
					C45.7,14.7,45,15.4,44.1,15.4z"/>
				<path class="st1" d="M26.1,27.7c-0.4,0-0.9-0.2-1.3-0.5c-0.5-0.5-0.7-1.2-0.5-1.9l1.6-4.8c-1.1-2-1.7-4.3-1.7-6.6
					C24.3,6.2,30.5,0,38.1,0S52,6.2,52,13.9s-6.2,13.9-13.9,13.9c-2.3,0-4.6-0.6-6.6-1.7l-4.8,1.6C26.5,27.7,26.3,27.7,26.1,27.7z
					 M38.1,0.7c-7.3,0-13.2,5.9-13.2,13.2c0,2.2,0.6,4.5,1.7,6.4l0.1,0.1L25,25.5c-0.1,0.4,0,0.9,0.3,1.2c0.2,0.2,0.7,0.5,1.2,0.3
					l5.1-1.7l0.1,0.1c2,1.1,4.2,1.7,6.4,1.7c7.3,0,13.2-5.9,13.2-13.2S45.4,0.7,38.1,0.7z M44.1,15.7c-1,0-1.8-0.8-1.8-1.8
					s0.8-1.8,1.8-1.8s1.8,0.8,1.8,1.8C46,14.9,45.2,15.7,44.1,15.7z M44.1,12.7c-0.6,0-1.2,0.5-1.2,1.2c0,0.6,0.5,1.2,1.2,1.2
					c0.6,0,1.2-0.5,1.2-1.2S44.8,12.7,44.1,12.7z M38.1,15.7c-1,0-1.8-0.8-1.8-1.8s0.8-1.8,1.8-1.8s1.8,0.8,1.8,1.8
					C40,14.9,39.1,15.7,38.1,15.7z M38.1,12.7c-0.6,0-1.2,0.5-1.2,1.2c0,0.6,0.5,1.2,1.2,1.2c0.6,0,1.2-0.5,1.2-1.2
					S38.8,12.7,38.1,12.7z M32.1,15.7c-1,0-1.8-0.8-1.8-1.8s0.8-1.8,1.8-1.8s1.8,0.8,1.8,1.8C33.9,14.9,33.1,15.7,32.1,15.7z
					 M32.1,12.7c-0.6,0-1.2,0.5-1.2,1.2c0,0.6,0.5,1.2,1.2,1.2c0.6,0,1.2-0.5,1.2-1.2S32.8,12.7,32.1,12.7z"/>
			</g>
		</g>
	</g>
</g>
</svg>
