<?xml version="1.0" encoding="utf-8"?>
<!-- Generator: Adobe Illustrator 23.0.5, SVG Export Plug-In . SVG Version: 6.00 Build 0)  -->
<svg version="1.1" id="Layer_1" xmlns="http://www.w3.org/2000/svg" xmlns:xlink="http://www.w3.org/1999/xlink" x="0px" y="0px"
	 viewBox="0 0 52 52" style="enable-background:new 0 0 52 52;" xml:space="preserve">
<style type="text/css">
	.st0{fill:#525C6B;}
	.st1{fill:#3F3F3F;}
	.st2{fill:#01b6df;}
	.st3{fill:#EFEDEE;}
</style>
<g>
	<g>
		<g>
			<path class="st0" d="M39.4,12.3c0,7.6-5.5,13.8-13.4,13.8s-13.4-6.2-13.4-13.8S18.1,0.4,26,0.4C33.9,0.3,39.4,4.7,39.4,12.3z"/>
			<path class="st1" d="M26,26.4c-7.8,0-13.7-6.1-13.7-14.1C12.3,4.8,17.7,0,26,0s13.7,4.8,13.7,12.3C39.8,20.3,33.9,26.4,26,26.4z
				 M26,0.7c-8,0-13,4.4-13,11.6c0,7.7,5.6,13.5,13.1,13.5c7.4,0,13.1-5.8,13.1-13.5C39.1,5.2,34,0.7,26,0.7z"/>
		</g>
	</g>
	<g>
		<g>
			<path class="st2" d="M45,38.2c-1.7-0.9-3.6-1.6-5.5-2.2c-0.8-0.2-1.6-0.5-2.4-0.7c-10.2-3-22.1,0-22.1,0
				c-0.8,0.2-1.6,0.5-2.5,0.7c-1.9,0.6-3.7,1.3-5.4,2.2c-2.7,1.3-4.4,4-4.4,7.1v6.4h46.6v-6.4C49.3,42.3,47.6,39.6,45,38.2z"/>
			<path class="st1" d="M49.6,52H2.4v-6.7c0-3.1,1.7-5.9,4.6-7.4c1.6-0.8,3.4-1.6,5.4-2.3c0.3-0.1,0.6-0.2,0.8-0.2
				c0.5-0.2,1.1-0.3,1.7-0.5l0,0c1.5-0.5,12.7-2.9,22.3,0c0.6,0.1,1.2,0.3,1.8,0.5c0.2,0.1,0.4,0.1,0.6,0.2c1.8,0.6,3.6,1.3,5.5,2.2
				l0,0c2.8,1.4,4.5,4.3,4.5,7.4C49.6,45.2,49.6,52,49.6,52z M3,51.3h46v-6c0-2.9-1.6-5.5-4.2-6.8c-1.9-0.9-3.7-1.6-5.4-2.2
				c-0.2-0.1-0.4-0.1-0.6-0.2c-0.6-0.2-1.2-0.4-1.8-0.5c-9.6-2.9-20.9-0.3-21.9,0l0,0H15c-0.5,0.1-1.1,0.3-1.6,0.4
				c-0.3,0.1-0.5,0.2-0.8,0.2c-2,0.7-3.8,1.4-5.3,2.2c-2.7,1.4-4.3,4-4.3,6.9C3,45.3,3,51.3,3,51.3z"/>
		</g>
	</g>
	<g>
		<g>
			<path class="st3" d="M33.9,34.6H18.2C14.5,39.7,20,45.2,20,45.2l4.8-2.6v9h2.4v-9l4.8,2.6C32,45.2,37.5,39.7,33.9,34.6z M26,42
				L26,42L26,42L26,42z"/>
			<path class="st1" d="M27.5,52h-3.1v-8.8l-4.5,2.4l-0.2-0.2c-0.1-0.1-5.6-5.8-1.9-11.1l0.1-0.1h16l0.1,0.1c2.1,3,1.3,6,0.2,8.1
				c-0.7,1.3-2,3.1-2.3,3.1h-0.1l-4.4-2.3L27.5,52L27.5,52z M25.1,51.3h1.8v-9.2l5,2.7c0.8-0.9,4.7-5.5,1.8-9.9H18.3
				c-2.9,4.3,0.9,9,1.7,9.9l5-2.7v9.2C25,51.3,25.1,51.3,25.1,51.3z"/>
		</g>
	</g>
	<g>
		<path class="st3" d="M37.9,14.9c-1-0.2-1.6,0.3-1.7,0.3c-2.9-1.6-2-5.9-2-5.9c-6.4,5.2-16.6,2.3-16.6,2.3s-1.8,1.7-1.8,3.6
			c-0.1,0-0.8-0.6-1.7-0.3c-1,0.3-1.7,1.7-1.6,3.6c0.2,1.8,1.2,3.3,2.2,3.2c0.1,0,0.3,0,0.4-0.1c0.9,3.6,2.8,6.6,5.3,8.4
			c0,0,0.1,0,0.1,0.1c-0.2,1.4-0.9,3.2-2.3,4.6c0,2.7,7.8,7.4,7.8,7.4s7.8-4.7,7.8-7.4l0,0c-1.4-1.4-2.1-3.2-2.3-4.6
			c0,0,0.1,0,0.1-0.1c2.5-1.8,4.4-4.8,5.3-8.4c0.1,0.1,0.3,0.1,0.4,0.1c1,0.1,2-1.3,2.2-3.2C39.7,16.6,38.9,15.2,37.9,14.9z"/>
		<path class="st1" d="M26,42.4l-0.2-0.1c-0.8-0.5-8-4.9-8-7.7v-0.1l0.1-0.1c1.4-1.4,2-3,2.2-4.3c-2.5-1.8-4.3-4.7-5.3-8.1
			c0,0,0,0-0.1,0l0,0c-0.4,0-0.8-0.1-1.2-0.4c-0.7-0.6-1.2-1.8-1.3-3C12,16.7,12.8,15,14,14.7c0.6-0.2,1.2,0,1.5,0.1
			c0.3-1.8,1.8-3.3,1.9-3.3l0.1-0.1l0.2,0.1c0.1,0,10.1,2.8,16.3-2.2l0.7-0.6l-0.2,0.9c0,0-0.8,4,1.7,5.5c0.3-0.2,0.9-0.5,1.8-0.3
			l0,0c1.2,0.3,2,2,1.8,3.9c-0.1,1.3-0.6,2.4-1.4,3C38,21.8,37.6,22,37.2,22l0,0h-0.1l0,0c-0.9,3.4-2.8,6.3-5.2,8.1
			c0.2,1,0.6,2.7,2.1,4.2h0.2v0.3c0,2.8-7.2,7.2-8,7.7L26,42.4z M18.5,34.7c0.2,2,5.3,5.6,7.5,6.9c2.2-1.3,7.2-4.9,7.5-6.9
			C31.8,33,31.3,31,31.2,30v-0.2l0.1-0.1l0,0l0.1-0.1c2.5-1.8,4.3-4.7,5.2-8.2l0.1-0.5l0.4,0.3c0,0,0.1,0,0.2,0.1h0.1
			c0.2,0,0.4-0.1,0.7-0.3c0.6-0.5,1-1.5,1.1-2.6c0.2-1.7-0.5-3-1.3-3.2c-0.7-0.2-1.2,0.1-1.4,0.2c-0.1,0-0.1,0.1-0.2,0.1l-0.1,0.1
			L36,15.5c-2.3-1.3-2.4-4.1-2.3-5.5c-6,4.3-14.6,2.3-16.1,1.9c-0.4,0.4-1.6,1.8-1.6,3.3v0.4l-0.4-0.1c-0.1,0-0.1,0-0.2-0.1
			c-0.2-0.1-0.7-0.4-1.3-0.2c-0.8,0.2-1.5,1.4-1.3,3.2c0.1,1.1,0.5,2.1,1.1,2.6c0.2,0.2,0.5,0.3,0.7,0.3h0.1h0.1l0.4-0.4l0.1,0.6
			c0.9,3.5,2.8,6.4,5.2,8.2l0,0c0,0,0.1,0,0.1,0.1l0.1,0.1v0.2C20.6,31.3,20,33.1,18.5,34.7z"/>
	</g>
</g>
</svg>
