<?xml version="1.0" encoding="utf-8"?>
<!-- Generator: Adobe Illustrator 23.0.5, SVG Export Plug-In . SVG Version: 6.00 Build 0)  -->
<svg version="1.1" id="Layer_1" xmlns="http://www.w3.org/2000/svg" xmlns:xlink="http://www.w3.org/1999/xlink" x="0px" y="0px"
	 viewBox="0 0 52 52" style="enable-background:new 0 0 52 52;" xml:space="preserve">
<style type="text/css">
	.st0{fill:#EFEDEE;}
	.st1{fill:#3F3F3F;}
	.st2{fill:#525C6B;}
	.st3{fill:#01b6df;}
</style>
<g>
	<g>
		<g>
			<path class="st0" d="M20.9,32.8h-9.5c-6.1,0-11.1-5-11.1-11.1l0,0c0-6.1,5-11.1,11.1-11.1h9.5V32.8z"/>
			<path class="st1" d="M21.2,33.2h-9.8C5.1,33.2,0,28,0,21.7s5.1-11.4,11.4-11.4h9.8V33.2z M11.4,11C5.5,11,0.7,15.8,0.7,21.7
				s4.8,10.8,10.8,10.8h9.2V11H11.4z"/>
		</g>
	</g>
	<g>
		<g>
			<path class="st0" d="M47,16.7v10c2.6,0,4.6-2.3,4.6-5C51.7,19,49.6,16.7,47,16.7z"/>
			<path class="st1" d="M47,27.1h-0.3V16.4H47c2.7,0,5,2.4,5,5.3C52,24.7,49.8,27.1,47,27.1z M47.4,17.1v9.3c2.2-0.2,4-2.2,4-4.7
				C51.3,19.3,49.6,17.3,47.4,17.1z"/>
		</g>
	</g>
	<g>
		<g>
			<rect x="7.7" y="16.1" class="st2" width="2" height="11.2"/>
		</g>
	</g>
	<g>
		<g>
			<path class="st0" d="M23.6,44.9h-2.7v-6.8h1.3c0.7,0,1.3,0.4,1.6,1.1l1.4,3.5C25.6,43.7,24.8,44.9,23.6,44.9z"/>
			<path class="st1" d="M23.6,45.2h-3v-7.5h1.7c0.8,0,1.6,0.5,1.9,1.3l1.4,3.5c0.2,0.6,0.2,1.3-0.2,1.8
				C24.9,44.9,24.3,45.2,23.6,45.2z M21.2,44.6h2.4c0.4,0,0.9-0.2,1.1-0.6c0.2-0.4,0.3-0.8,0.1-1.2l-1.4-3.5
				c-0.2-0.5-0.7-0.9-1.3-0.9h-1L21.2,44.6L21.2,44.6z"/>
		</g>
	</g>
	<g>
		<g>
			<rect x="13.7" y="16.1" class="st2" width="2" height="11.2"/>
		</g>
	</g>
	<g>
		<g>
			<path class="st3" d="M20.9,10.7v8.7v11v2.4C40.3,32.8,47,41,47,41v-6.6V15.3V2.5C47,2.5,40.3,10.7,20.9,10.7z"/>
			<path class="st1" d="M47.4,41.9l-0.6-0.7c-0.1-0.1-6.9-8.1-25.9-8.1h-0.3V10.3h0.3c19,0,25.8-8,25.9-8.1l0.6-0.7V41.9z
				 M21.2,32.5c16.2,0.1,23.5,5.8,25.5,7.7V3.3c-2,1.9-9.3,7.6-25.5,7.7V32.5z"/>
		</g>
		<g>
			<g>
				<path class="st3" d="M13.6,45.9c0,3,2.4,5.4,5.4,5.4c1,0,1.9-0.8,1.9-1.8V32.8h-7.3C13.6,32.8,13.6,45.9,13.6,45.9z"/>
				<path class="st1" d="M19,51.7c-3.2,0-5.7-2.6-5.7-5.7V32.5h7.9v17C21.2,50.7,20.2,51.7,19,51.7z M13.9,33.2V46
					c0,2.8,2.3,5.1,5.1,5.1c0.9,0,1.6-0.7,1.6-1.5V33.2H13.9z"/>
			</g>
		</g>
	</g>
</g>
</svg>
