<?xml version="1.0" encoding="utf-8"?>
<!-- Generator: Adobe Illustrator 23.0.2, SVG Export Plug-In . SVG Version: 6.00 Build 0)  -->
<svg version="1.1" id="Layer_1" xmlns="http://www.w3.org/2000/svg" xmlns:xlink="http://www.w3.org/1999/xlink" x="0px" y="0px"
	 viewBox="0 0 52 52" style="enable-background:new 0 0 52 52;" xml:space="preserve">
<style type="text/css">
	.st0{fill:#FFFFFF;}
</style>
<g>
	<g>
		<path class="st0" d="M50.7,26.6C49,20.3,46,14.1,45.2,12.3c0-0.1-0.1-0.4-0.2-0.7c-0.3-1.4-0.6-2.2-1.3-2.4L37,6.8
			c-0.9-0.3-1.8-0.2-2.5,0.3c-0.8,0.5-1.6,1-1.9,1H19.7c-0.3-0.1-1.4-0.6-2.1-1c-0.8-0.5-1.6-0.6-2.5-0.3L8.5,9.1
			c-0.7,0.3-0.9,1-1.2,2.4c-0.1,0.3-0.2,0.6-0.2,0.7C6.6,13,3.2,19.7,1.3,26.7C-1,35.1-0.2,40.6,3.6,43c0.9,0.6,2.1,0.4,2.9-0.3
			l7.9-6.8c1-0.9,2.2-1.3,3.5-1.3h16.4c1.3,0,2.5,0.4,3.5,1.3l7.9,6.8c0.4,0.4,1,0.6,1.6,0.6c0.4,0,1-0.1,1.3-0.4
			C52.3,40.5,53,35,50.7,26.6z M25.5,9.9c0.2,0,0.4,0,0.5,0h1.5l0,0c0,0.5-0.3,1-0.6,1.3c-0.4,0.3-0.9,0.4-1.4,0.3
			c-0.7-0.1-1.2-0.7-1.4-1.3c0-0.2,0-0.3,0-0.4L25.5,9.9z M47.6,41.6c-0.3,0.2-0.6,0.1-0.9-0.1l-7.9-6.8c-1.3-1.1-2.9-1.7-4.6-1.7
			H17.9c-1.6,0-3.3,0.6-4.6,1.7l-8,6.8c-0.3,0.2-0.6,0.3-0.9,0.1c-3.9-2.4-3-9.2-1.6-14.3c1.9-6.9,5.3-13.4,5.6-14.1
			c0.1-0.3,0.2-0.5,0.3-1.1c0.1-0.3,0.3-1,0.3-1.3l6.4-2.3c0.3-0.1,0.7-0.1,1,0.2c2.3,1.3,2.8,1.3,2.9,1.3h2.6c0,0.3,0,0.5,0.1,0.8
			c0.3,1.4,1.4,2.4,2.8,2.7c0.2,0,0.4,0.1,0.6,0.1c0.8,0,1.6-0.3,2.3-0.8c0.8-0.7,1.2-1.6,1.2-2.7l0,0h3.4c0.2,0,0.7,0,2.8-1.4
			c0.3-0.2,0.6-0.3,1-0.1l6.4,2.3c0.2,0.3,0.3,1,0.4,1.3c0.2,0.5,0.2,0.8,0.3,1C44.8,15.5,55,36.5,47.6,41.6z"/>
		<path class="st0" d="M32.7,21.7c-2.4,0-4.3,1.9-4.3,4.3s1.9,4.3,4.3,4.3s4.3-1.9,4.3-4.3S35.2,21.7,32.7,21.7z M32.7,28.6
			c-1.5,0-2.6-1.1-2.6-2.6s1.1-2.6,2.6-2.6s2.6,1.1,2.6,2.6S34.1,28.6,32.7,28.6z"/>
		<path class="st0" d="M17.1,17.4c0-2.4-1.9-4.3-4.3-4.3s-4.3,1.9-4.3,4.3s1.9,4.3,4.3,4.3S17.1,19.7,17.1,17.4z M12.8,20
			c-1.5,0-2.6-1.1-2.6-2.6s1.1-2.6,2.6-2.6s2.6,1.1,2.6,2.6S14.2,20,12.8,20z"/>
		<circle class="st0" cx="38.8" cy="13.9" r="1.7"/>
		<circle class="st0" cx="35.4" cy="17.4" r="1.7"/>
		<circle class="st0" cx="42.3" cy="17.4" r="1.7"/>
		<circle class="st0" cx="38.8" cy="20.8" r="1.7"/>
		<path class="st0" d="M24.5,23.1h-2v-2c0-0.8-0.7-1.5-1.5-1.5h-2.3c-0.8,0-1.5,0.7-1.5,1.5v2h-2c-0.8,0-1.5,0.7-1.5,1.5v2.3
			c0,0.8,0.7,1.5,1.5,1.5h2v2c0,0.8,0.7,1.5,1.5,1.5H21c0.8,0,1.5-0.7,1.5-1.5v-2h2c0.8,0,1.5-0.7,1.5-1.5v-2.3
			C26,23.8,25.3,23.1,24.5,23.1z M24.2,26.6h-3.5V30H19v-3.5h-3.5v-1.7H19v-3.5h1.7v3.5h3.5V26.6z"/>
	</g>
</g>
</svg>
