<?xml version="1.0" encoding="utf-8"?>
<!-- Generator: Adobe Illustrator 23.0.2, SVG Export Plug-In . SVG Version: 6.00 Build 0)  -->
<svg version="1.1" id="Layer_1" xmlns="http://www.w3.org/2000/svg" xmlns:xlink="http://www.w3.org/1999/xlink" x="0px" y="0px"
	 viewBox="0 0 52 52" style="enable-background:new 0 0 52 52;" xml:space="preserve">
<style type="text/css">
	.st0{fill:#FFFFFF;}
</style>
<path class="st0" d="M26,0C15.5,0,6,6.3,2,16S0.2,36.9,7.6,44.3c6.6,6.6,16.1,9.2,25.1,6.8c9-2.4,16-9.4,18.4-18.4
	c2.4-9-0.2-18.6-6.8-25.1C39.5,2.7,32.9,0,26,0z M43.1,43.1c-9.5,9.4-24.8,9.4-34.3-0.1S-0.6,18.3,8.8,8.8
	c9.5-9.4,24.8-9.4,34.3,0.1S52.6,33.6,43.1,43.1z"/>
<path class="st0" d="M26,5.5C14.7,5.5,5.5,14.7,5.5,26S14.7,46.4,26,46.4S46.4,37.2,46.4,26S37.2,5.5,26,5.5z M39.2,25.2
	c-0.2-3-1.3-5.8-3.3-8.1l3.9-3.9c3,3.3,4.8,7.5,4.9,11.9L39.2,25.2L39.2,25.2z M34.7,16c-2.2-2-5-3.1-8-3.3V7.2
	c4.4,0.2,8.6,1.9,11.9,4.9L34.7,16z M25,12.7c-2.9,0.2-5.7,1.4-7.9,3.4l-3.9-3.9c3.2-3,7.4-4.7,11.8-5V12.7z M15.9,17.3
	c-1.9,2.2-3.1,5-3.2,7.9H7.2c0.2-4.4,1.9-8.6,4.8-11.8L15.9,17.3z M12.7,26.9c0.2,2.9,1.4,5.6,3.3,7.8l-3.9,3.9
	c-2.9-3.2-4.7-7.3-4.9-11.7L12.7,26.9L12.7,26.9z M17.2,35.9c2.2,1.9,4.9,3.1,7.8,3.3v5.5c-4.4-0.2-8.5-2-11.7-4.9L17.2,35.9z
	 M26.7,39.2c2.9-0.2,5.7-1.3,7.9-3.2l3.9,3.9c-3.2,3-7.4,4.7-11.8,4.8L26.7,39.2L26.7,39.2z M26,37.5c-6.4,0-11.6-5.2-11.6-11.6
	S19.6,14.4,26,14.4S37.6,19.6,37.6,26S32.4,37.5,26,37.5L26,37.5z M39.7,38.7l-3.9-3.9c2-2.2,3.1-5,3.4-7.9h5.5
	C44.5,31.3,42.7,35.5,39.7,38.7L39.7,38.7z"/>
<path class="st0" d="M31.3,25.2h-1.8c-0.3-1.4-1.4-2.5-2.8-2.8v-1.8c0-0.5-0.4-0.8-0.8-0.8S25,20.1,25,20.6v1.9
	c-1.3,0.4-2.3,1.4-2.6,2.8h-1.8c-0.5,0-0.8,0.4-0.8,0.8c0,0.5,0.4,0.8,0.8,0.8h1.9c0.3,1.2,1.3,2.2,2.5,2.5v1.9
	c0,0.5,0.4,0.8,0.8,0.8s0.8-0.4,0.8-0.8v-1.8c1.3-0.3,2.4-1.3,2.8-2.6h1.9c0.5,0,0.8-0.4,0.8-0.8C32.2,25.6,31.8,25.2,31.3,25.2z
	 M26.1,27.9c-0.1,0-0.1,0-0.2,0c-0.1,0-0.1,0-0.2,0c-0.9-0.1-1.5-0.8-1.6-1.6c0-0.1,0-0.1,0-0.2c0-0.1,0-0.1,0-0.2
	c0.1-0.9,0.7-1.7,1.7-1.8c0.1,0,0.1,0,0.2,0c0.1,0,0.1,0,0.2,0c1,0.1,1.8,0.8,1.8,1.8c0,0.1,0,0.1,0,0.2c0,0.1,0,0.1,0,0.2
	C27.8,27.1,27,27.8,26.1,27.9z"/>
</svg>
