<?xml version="1.0" encoding="utf-8"?>
<!-- Generator: Adobe Illustrator 23.0.2, SVG Export Plug-In . SVG Version: 6.00 Build 0)  -->
<svg version="1.1" id="Layer_1" xmlns="http://www.w3.org/2000/svg" xmlns:xlink="http://www.w3.org/1999/xlink" x="0px" y="0px"
	 viewBox="0 0 52 52" style="enable-background:new 0 0 52 52;" xml:space="preserve">
<style type="text/css">
	.st0{fill:#FFFFFF;}
</style>
<path class="st0" d="M26,0C11.6,0,0,11.6,0,26s11.6,26,26,26s26-11.6,26-26C52,11.6,40.4,0,26,0z M46.1,12.5l-1.8,7.7l-9.5,3.2
	l-8-6.4V7.5L36,3.9C40.1,5.7,43.6,8.7,46.1,12.5z M46.3,39.3l-8.6,1.4L33,34.5l2.4-9.5l9.4-3.1l5.4,6.5C49.8,32.2,48.5,36,46.3,39.3
	z M14.4,40.7l-8.6-1.4c-2.2-3.3-3.5-7.1-3.9-11l5.4-6.5l9.4,3.1l2.4,9.5L14.4,40.7z M1.7,25.7c0-3.9,1-7.7,2.8-11.1l1.4,6L1.7,25.7z
	 M20.6,33.8l-2.3-9.2l7.7-6.2l7.7,6.2l-2.3,9.2H20.6z M46,20.6l1.4-6c1.8,3.4,2.8,7.2,2.8,11.1L46,20.6z M33.6,3L26,6l-7.6-3
	C23.3,1.3,28.7,1.3,33.6,3z M16,3.9l9.1,3.6v9.4l-8,6.4l-9.5-3.2l-1.8-7.7C8.4,8.7,11.9,5.8,16,3.9z M7.2,41.3l7,1.1l4.3,6.7
	C14,47.6,10.1,44.9,7.2,41.3z M21,49.7l-5.2-8.1l4.6-6.1h11.3l4.6,6.1l-4.5,7.9C28.2,50.4,24.5,50.5,21,49.7L21,49.7z M34.2,48.8
	l3.7-6.5l7-1.1C42,44.7,38.3,47.3,34.2,48.8z"/>
</svg>
