<?xml version="1.0" encoding="utf-8"?>
<!-- Generator: Adobe Illustrator 23.0.2, SVG Export Plug-In . SVG Version: 6.00 Build 0)  -->
<svg version="1.1" id="Layer_1" xmlns="http://www.w3.org/2000/svg" xmlns:xlink="http://www.w3.org/1999/xlink" x="0px" y="0px"
	 viewBox="0 0 52 52" style="enable-background:new 0 0 52 52;" xml:space="preserve">
<style type="text/css">
	.st0{fill:#FFFFFF;}
</style>
<path class="st0" d="M0.9,52h43.3c0.5,0,0.9-0.4,0.9-0.9V0.9c0-0.5-0.4-0.9-0.9-0.9H0.9C0.4,0,0,0.4,0,0.9v50.3
	C0,51.6,0.4,52,0.9,52z M1.7,1.7h41.6v48.5H1.7V1.7z"/>
<path class="st0" d="M40.7,6.9H4.3c-0.5,0-0.9,0.4-0.9,0.9v36.4c0,0.5,0.4,0.9,0.9,0.9h36.4c0.5,0,0.9-0.4,0.9-0.9V7.8
	C41.6,7.3,41.2,6.9,40.7,6.9z M5.2,20.8h10.4v10.4H5.2V20.8z M17.3,20.8h10.4v10.4H17.3V20.8z M29.5,20.8h10.4v10.4H29.5V20.8z
	 M39.9,19.1H29.5V8.7h10.4V19.1z M27.7,19.1H17.3V8.7h10.4V19.1z M5.2,8.7h10.4v10.4H5.2V8.7z M5.2,32.9h10.4v10.4H5.2V32.9z
	 M17.3,32.9h10.4v10.4H17.3V32.9z M39.9,43.3H29.5V32.9h10.4V43.3z"/>
<path class="st0" d="M13.6,10.6c-0.3-0.3-0.9-0.3-1.2,0l-2,2l-2-2c-0.3-0.3-0.9-0.3-1.2,0s-0.3,0.9,0,1.2l2,2l-2,2
	C7,16.1,6.9,16.4,7,16.7C7,17,7.3,17.2,7.6,17.3c0.3,0.1,0.6,0,0.8-0.2l2-2l2,2c0.3,0.3,0.9,0.3,1.2,0c0.3-0.3,0.3-0.9,0-1.2l-2-2
	l2-2C14,11.5,14,11,13.6,10.6z"/>
<path class="st0" d="M25.8,22.8c-0.3-0.3-0.9-0.3-1.2,0l-2,2l-2-2c-0.3-0.3-0.9-0.3-1.2,0s-0.3,0.9,0,1.2l2,2l-2,2
	c-0.2,0.2-0.3,0.5-0.2,0.8c0.1,0.3,0.3,0.5,0.6,0.6c0.3,0.1,0.6,0,0.8-0.2l2-2l2,2c0.3,0.3,0.9,0.3,1.2,0c0.3-0.3,0.3-0.9,0-1.2
	l-2-2l2-2C26.1,23.7,26.1,23.1,25.8,22.8z"/>
<path class="st0" d="M31.4,41.4c0.3,0.3,0.9,0.3,1.2,0l2-2l2,2c0.3,0.3,0.9,0.3,1.2,0s0.3-0.9,0-1.2l-2-2l2-2c0.3-0.3,0.3-0.9,0-1.2
	c-0.3-0.3-0.9-0.3-1.2,0l-2,2l-2-2c-0.3-0.3-0.9-0.3-1.2,0s-0.3,0.9,0,1.2l2,2l-2,2C31.1,40.5,31.1,41,31.4,41.4z"/>
<path class="st0" d="M52,16.3l-1.7-6.9c-0.1-0.4-0.4-0.7-0.8-0.7c-0.4,0-0.7,0.3-0.8,0.7l-1.7,6.9c0,0.1,0,0.1,0,0.2v27.7
	c0,0.5,0.4,0.9,0.9,0.9h3.5c0.5,0,0.9-0.4,0.9-0.9V16.5C52,16.4,52,16.3,52,16.3z M48.5,17.3h1.7v20.8h-1.7V17.3z M49.4,13.1
	l0.6,2.5h-1.2L49.4,13.1z M50.3,43.3h-1.7v-3.5h1.7V43.3z"/>
<path class="st0" d="M40.7,3.5h-5.2c-0.5,0-0.9,0.4-0.9,0.9c0,0.5,0.4,0.9,0.9,0.9h5.2c0.5,0,0.9-0.4,0.9-0.9
	C41.6,3.9,41.2,3.5,40.7,3.5z"/>
<path class="st0" d="M9.5,46.8H4.3c-0.5,0-0.9,0.4-0.9,0.9s0.4,0.9,0.9,0.9h5.2c0.5,0,0.9-0.4,0.9-0.9S10,46.8,9.5,46.8z"/>
<path class="st0" d="M10.4,23.4c-1.4,0-2.6,1.2-2.6,2.6s1.2,2.6,2.6,2.6S13,27.4,13,26C13,24.6,11.8,23.4,10.4,23.4z M10.4,26.9
	c-0.5,0-0.9-0.4-0.9-0.9s0.4-0.9,0.9-0.9c0.5,0,0.9,0.4,0.9,0.9S10.9,26.9,10.4,26.9z"/>
<path class="st0" d="M34.7,23.4c-1.4,0-2.6,1.2-2.6,2.6s1.2,2.6,2.6,2.6c1.4,0,2.6-1.2,2.6-2.6C37.3,24.6,36.1,23.4,34.7,23.4z
	 M34.7,26.9c-0.5,0-0.9-0.4-0.9-0.9s0.4-0.9,0.9-0.9s0.9,0.4,0.9,0.9S35.1,26.9,34.7,26.9z"/>
<path class="st0" d="M34.7,16.5c1.4,0,2.6-1.2,2.6-2.6s-1.2-2.6-2.6-2.6c-1.4,0-2.6,1.2-2.6,2.6S33.2,16.5,34.7,16.5z M34.7,13
	c0.5,0,0.9,0.4,0.9,0.9c0,0.5-0.4,0.9-0.9,0.9s-0.9-0.4-0.9-0.9C33.8,13.4,34.2,13,34.7,13z"/>
<path class="st0" d="M22.5,16.5c1.4,0,2.6-1.2,2.6-2.6s-1.2-2.6-2.6-2.6s-2.6,1.2-2.6,2.6S21.1,16.5,22.5,16.5z M22.5,13
	c0.5,0,0.9,0.4,0.9,0.9c0,0.5-0.4,0.9-0.9,0.9c-0.5,0-0.9-0.4-0.9-0.9C21.7,13.4,22.1,13,22.5,13z"/>
<path class="st0" d="M10.4,35.5c-1.4,0-2.6,1.2-2.6,2.6c0,1.4,1.2,2.6,2.6,2.6s2.6-1.2,2.6-2.6C13,36.7,11.8,35.5,10.4,35.5z
	 M10.4,39c-0.5,0-0.9-0.4-0.9-0.9c0-0.5,0.4-0.9,0.9-0.9c0.5,0,0.9,0.4,0.9,0.9C11.3,38.6,10.9,39,10.4,39z"/>
<path class="st0" d="M22.5,35.5c-1.4,0-2.6,1.2-2.6,2.6c0,1.4,1.2,2.6,2.6,2.6s2.6-1.2,2.6-2.6C25.1,36.7,24,35.5,22.5,35.5z
	 M22.5,39c-0.5,0-0.9-0.4-0.9-0.9c0-0.5,0.4-0.9,0.9-0.9c0.5,0,0.9,0.4,0.9,0.9C23.4,38.6,23,39,22.5,39z"/>
</svg>
