<svg xmlns="http://www.w3.org/2000/svg" xmlns:xlink="http://www.w3.org/1999/xlink" viewBox="0 0 123.25 29.46"><defs><style>.cls-1,.cls-2{fill-rule:evenodd;}.cls-1{fill:url(#linear-gradient);}.cls-2{fill:url(#linear-gradient-2);}.cls-3{fill:#7b39b8;}</style><linearGradient id="linear-gradient" x1="3.53" y1="26.1" x2="15.61" y2="14.02" gradientUnits="userSpaceOnUse"><stop offset="0" stop-color="#283595"/><stop offset="1" stop-color="#7b39b8"/></linearGradient><linearGradient id="linear-gradient-2" x1="2.05" y1="14.21" x2="13.67" y2="2.58" xlink:href="#linear-gradient"/></defs><title>slots-playnow-hover</title><g id="Layer_2" data-name="Layer 2"><g id="Layer_1-2" data-name="Layer 1"><path class="cls-1" d="M7,29.46a1,1,0,0,1-.6-1.07,16.78,16.78,0,0,0-.16-2.18,3.37,3.37,0,0,0-.4-1.13C5,23.5,4.06,21.93,3.16,20.36c-.23-.41-.47-.81-.67-1.23a2.06,2.06,0,0,1-.18-1.21A1.26,1.26,0,0,1,4,16.84a2.85,2.85,0,0,1,1.08.78l1.09,1.22v-.39q0-4.44,0-8.88a1.47,1.47,0,0,1,.86-1.44A1.38,1.38,0,0,1,9,9.36c0,.74,0,1.48,0,2.22,0,.54,0,1.08,0,1.68a1.4,1.4,0,0,1,1.5-.55,1.46,1.46,0,0,1,1,1.21,1.44,1.44,0,0,1,2.58.92l.19-.18a1.29,1.29,0,0,1,1.51-.26,1.41,1.41,0,0,1,.85,1.34c0,1.74,0,3.49,0,5.23a17.47,17.47,0,0,1-.82,4.48c-.14.48-.29,1-.45,1.45a3.63,3.63,0,0,0-.19,1.48,1,1,0,0,1-.58,1.08Z"/><path class="cls-2" d="M4.34,16A8.54,8.54,0,0,1,0,9.1,8.57,8.57,0,0,1,5.29.5a7.63,7.63,0,0,1,9,2.87,8.91,8.91,0,0,1,.56,9.43l-2-1.06A18.34,18.34,0,0,0,13.47,10,6,6,0,0,0,8.89,2.57a5.73,5.73,0,0,0-6.52,5A6,6,0,0,0,4,12.71a1.16,1.16,0,0,1,.34.89C4.32,14.41,4.34,15.21,4.34,16Z"/><path class="cls-3" d="M25.1,7.16q1-.08,1.94-.14T29,7a11.1,11.1,0,0,1,2.12.21A5.32,5.32,0,0,1,33.09,8a4.27,4.27,0,0,1,1.41,1.6A5.65,5.65,0,0,1,35,12.21a5.58,5.58,0,0,1-.54,2.64,4.41,4.41,0,0,1-1.4,1.6,5.1,5.1,0,0,1-1.91.79,10.64,10.64,0,0,1-2.08.21H28.6l-.45,0v4.82a7.7,7.7,0,0,1-.77.08l-.73,0-.73,0c-.26,0-.54,0-.81-.08Zm3,7.72a2.87,2.87,0,0,0,.47,0h.53a3.9,3.9,0,0,0,1-.14,2.38,2.38,0,0,0,.89-.45,2.2,2.2,0,0,0,.62-.82,3.08,3.08,0,0,0,.23-1.26,3.3,3.3,0,0,0-.23-1.31,2.27,2.27,0,0,0-.62-.86,2.31,2.31,0,0,0-.89-.46,3.91,3.91,0,0,0-1-.14h-.43l-.57.05Z"/><path class="cls-3" d="M37.27,7.22a9.2,9.2,0,0,1,1.48-.13,9.72,9.72,0,0,1,1.52.13V19.6h5.2a6.36,6.36,0,0,1,.08.68c0,.22,0,.42,0,.62s0,.44,0,.66a6.32,6.32,0,0,1-.08.68h-8.2Z"/><path class="cls-3" d="M51.05,7.22l.83-.09q.4,0,.88,0t.81,0l.88.09,4.7,15a11.53,11.53,0,0,1-1.67.13,9.38,9.38,0,0,1-1.54-.13l-.83-3h-5l-.86,3a8.77,8.77,0,0,1-1.44.13,9.25,9.25,0,0,1-1.52-.13Zm3.34,9.48L52.66,10.4,50.84,16.7Z"/><path class="cls-3" d="M63,16.87,58.34,7.22a12.31,12.31,0,0,1,1.75-.13,10.11,10.11,0,0,1,1.59.13l3,6.81,2.92-6.81a9.83,9.83,0,0,1,1.59-.13,11.07,11.07,0,0,1,1.61.13l-4.68,9.65v5.39q-.42.06-.79.08l-.75,0-.74,0a7.81,7.81,0,0,1-.78-.08Z"/><path class="cls-3" d="M77,7.22a6.45,6.45,0,0,1,1.23-.13,7,7,0,0,1,1.29.13l5.8,9.56V7.22a8.71,8.71,0,0,1,1.44-.13A6.13,6.13,0,0,1,88,7.22v15a6.63,6.63,0,0,1-1.21.13,7.16,7.16,0,0,1-1.27-.13l-5.85-9.54v9.54a7.35,7.35,0,0,1-1.36.13A7,7,0,0,1,77,22.23Z"/><path class="cls-3" d="M97.09,22.48a6.76,6.76,0,0,1-2.92-.58,5.45,5.45,0,0,1-2-1.62A7,7,0,0,1,91,17.84a11.61,11.61,0,0,1-.39-3.08,11.85,11.85,0,0,1,.39-3.1,7.09,7.09,0,0,1,1.18-2.47,5.41,5.41,0,0,1,2-1.63,7.59,7.59,0,0,1,5.85,0,5.42,5.42,0,0,1,2,1.63,7.11,7.11,0,0,1,1.18,2.47,11.87,11.87,0,0,1,.39,3.1,11.63,11.63,0,0,1-.39,3.08A7,7,0,0,1,102,20.28a5.46,5.46,0,0,1-2,1.62A6.76,6.76,0,0,1,97.09,22.48Zm0-2.55q3.24,0,3.24-5.18a7.65,7.65,0,0,0-.78-3.88,2.64,2.64,0,0,0-2.43-1.29q-3.28,0-3.28,5.18T97.09,19.94Z"/><path class="cls-3" d="M104.64,7.22a10.44,10.44,0,0,1,1.71-.13l.76,0a4.63,4.63,0,0,1,.76.1L110,18.52l2.59-11.29.77-.09q.35,0,.73,0a8,8,0,0,1,1.36.13l2.69,11.59,2.15-11.59a7,7,0,0,1,1.34-.13,7.9,7.9,0,0,1,.81,0l.77.08-3.61,15a9.51,9.51,0,0,1-1.57.13,13.19,13.19,0,0,1-1.73-.13l-2.4-10-2.59,10-.89.08a7.92,7.92,0,0,1-.85,0,8.54,8.54,0,0,1-1.4-.13Z"/></g></g></svg>