<?xml version="1.0" encoding="utf-8"?>
<!-- Generator: Adobe Illustrator 23.0.5, SVG Export Plug-In . SVG Version: 6.00 Build 0)  -->
<svg version="1.1" id="Layer_1" xmlns="http://www.w3.org/2000/svg" xmlns:xlink="http://www.w3.org/1999/xlink" x="0px" y="0px"
	 viewBox="0 0 52 52" style="enable-background:new 0 0 52 52;" xml:space="preserve">
<style type="text/css">
	.st0{fill:#EFEDEE;}
	.st1{fill:#3F3F3F;}
	.st2{fill:#7036FF;}
</style>
<g>
	<g>
		<path class="st0" d="M42.4,51.1h-5.3c-1.5,0-2.7-1.2-2.7-2.7v-9h-4.7c-0.6,0-1.2-0.4-1.5-1s-0.1-1.3,0.3-1.7l10.1-10.6
			c0.6-0.6,1.7-0.6,2.3,0L51,36.8c0.4,0.5,0.6,1.1,0.3,1.7c-0.3,0.6-0.8,1-1.5,1h-4.7v9C45,49.9,43.9,51.1,42.4,51.1z"/>
		<path class="st1" d="M42.4,51.4h-5.3c-1.6,0-3-1.3-3-3v-8.7h-4.4c-0.8,0-1.4-0.4-1.8-1.2c-0.3-0.7-0.2-1.5,0.4-2.1L38.4,26
			c0.3-0.4,0.8-0.6,1.4-0.6l0,0c0.5,0,1,0.2,1.4,0.6l10.1,10.6c0.5,0.6,0.7,1.4,0.4,2.1c-0.3,0.7-1,1.2-1.8,1.2h-4.4v8.7
			C45.4,50.1,44,51.4,42.4,51.4z M39.8,26L39.8,26c-0.4,0-0.7,0.1-0.9,0.4L28.8,37c-0.3,0.4-0.4,0.9-0.2,1.4
			c0.2,0.5,0.7,0.8,1.2,0.8h5.1v9.3c0,1.3,1,2.3,2.3,2.3h5.3c1.3,0,2.3-1,2.4-2.3v-9.3H50c0.5,0,0.9-0.3,1.2-0.8
			c0.2-0.5,0.1-1-0.2-1.4L40.7,26.4C40.5,26.2,40.1,26,39.8,26z"/>
	</g>
	<g>
		<path class="st2" d="M45.6,0.3H6.4c-3.2,0-5.8,2.6-5.8,5.8v2.4H16c4.5,0,8.2,3.7,8.2,8.2V22c0,4.5-3.7,8.2-8.2,8.2H0.6v2.4
			c0,3.2,2.6,5.8,5.8,5.8h19.1c-0.2-1.2,0.2-2.5,1.1-3.4l10.1-10.6c0.8-0.8,1.9-1.3,3-1.3s2.3,0.5,3,1.3l8.5,9
			c0-0.3,0.1-0.6,0.1-0.8V6.1C51.4,3,48.8,0.3,45.6,0.3z"/>
		<path class="st1" d="M26,38.7H6.4c-3.4,0-6.1-2.8-6.1-6.1v-2.7H16c4.4,0,7.9-3.5,7.9-7.9v-5.3c0-4.4-3.5-7.9-7.9-7.9H0.3V6.1
			C0.3,2.8,3.1,0,6.4,0h39.1c3.4,0,6.1,2.8,6.1,6.1v26.4c0,0.3,0,0.6-0.1,0.9l-0.1,0.7l-9-9.5c-0.7-0.7-1.7-1.2-2.8-1.2
			s-2.1,0.4-2.8,1.2l-9.9,10.6c-0.8,0.9-1.2,2-1,3.1L26,38.7z M1,30.6v2c0,3,2.5,5.5,5.5,5.5h18.8c-0.1-1.2,0.4-2.4,1.2-3.3
			l10.1-10.6c0.8-0.9,2-1.4,3.3-1.4c1.2,0,2.4,0.5,3.3,1.4l8,8.5c0,0,0,0,0-0.1V6.1c0-3-2.5-5.5-5.5-5.5H6.4C3.4,0.7,1,3.1,1,6.1v2
			h15c4.7,0,8.6,3.8,8.6,8.6V22c0,4.7-3.8,8.6-8.6,8.6H1z"/>
	</g>
	<g>
		<rect x="7.7" y="13.7" class="st2" width="11.3" height="11.3"/>
		<path class="st1" d="M19.3,25.3h-12v-12h12V25.3z M8,24.7h10.6V14H8V24.7z"/>
	</g>
	<g>
		<path class="st0" d="M16,10.9H0.6v16.9H16c3.2,0,5.8-2.6,5.8-5.8v-5.3C21.8,13.5,19.2,10.9,16,10.9z M13.3,23.6
			c-2.3,0-4.2-1.9-4.2-4.2s1.9-4.2,4.2-4.2s4.2,1.9,4.2,4.2S15.6,23.6,13.3,23.6z"/>
		<path class="st1" d="M16,28.2H0.3V10.6H16c3.4,0,6.1,2.8,6.1,6.1V22C22.1,25.4,19.4,28.2,16,28.2z M1,27.5h15c3,0,5.5-2.5,5.5-5.5
			v-5.3c0-3-2.5-5.5-5.5-5.5H1V27.5z M13.3,23.9c-2.5,0-4.5-2-4.5-4.5s2-4.5,4.5-4.5s4.5,2,4.5,4.5S15.8,23.9,13.3,23.9z M13.3,15.5
			c-2.1,0-3.9,1.7-3.9,3.9c0,2.1,1.7,3.9,3.9,3.9c2.1,0,3.9-1.7,3.9-3.9C17.2,17.2,15.5,15.5,13.3,15.5z"/>
	</g>
</g>
</svg>
