<?xml version="1.0" encoding="utf-8"?>
<!-- Generator: Adobe Illustrator 23.0.5, SVG Export Plug-In . SVG Version: 6.00 Build 0)  -->
<svg version="1.1" id="Layer_1" xmlns="http://www.w3.org/2000/svg" xmlns:xlink="http://www.w3.org/1999/xlink" x="0px" y="0px"
	 viewBox="0 0 52 52" style="enable-background:new 0 0 52 52;" xml:space="preserve">
<style type="text/css">
	.st0{fill:#7036FF;}
	.st1{fill:#3F3F3F;}
	.st2{fill:#F0F1F3;}
</style>
<g>
	<g>
		<g>
			<path class="st0" d="M34.9,34.5c-0.5,0-0.8,0.4-0.9,0.8c-0.4,4-3.8,7.2-8,7.2c-4.1,0-7.5-3.1-8-7.2c-0.1-0.5-0.4-0.8-0.9-0.8H6.3
				c-2.3,0-4.1,1.9-4.1,4.1v8.7c0,2.3,1.9,4.1,4.1,4.1h39.5c2.3,0,4.1-1.9,4.1-4.1v-8.6c0-2.3-1.9-4.1-4.1-4.1L34.9,34.5L34.9,34.5z
				"/>
			<path class="st1" d="M45.7,51.8H6.3c-2.5,0-4.5-2-4.5-4.5v-8.7c0-2.5,2-4.5,4.5-4.5h10.9c0.6,0,1.2,0.5,1.2,1.1
				c0.4,3.9,3.7,6.9,7.6,6.9c4,0,7.2-3,7.6-6.9c0.1-0.6,0.6-1.1,1.2-1.1h10.9c2.5,0,4.5,2,4.5,4.5v8.6
				C50.2,49.8,48.2,51.8,45.7,51.8z M6.3,34.9c-2.1,0-3.8,1.7-3.8,3.8v8.7c0,2.1,1.7,3.8,3.8,3.8h39.5c2.1,0,3.8-1.7,3.8-3.8v-8.6
				c0-2.1-1.7-3.8-3.8-3.8h-11c-0.2,0-0.4,0.2-0.5,0.5c-0.4,4.3-4,7.5-8.3,7.5s-7.9-3.2-8.3-7.5c0-0.3-0.3-0.5-0.6-0.5H6.3V34.9z"/>
		</g>
		<g>
			<g>
				<path class="st2" d="M32.2,21.1L29,24.3v-21c0-1.6-1.3-2.9-2.9-2.9l0,0c-1.6,0-2.9,1.3-2.9,2.9v21.1L20,21.2
					c-1-1-2.6-1.2-3.8-0.5c-1.6,1.1-1.8,3.3-0.5,4.5l8.7,8.7c1,1,2.5,1,3.5,0l8.7-8.7c1.3-1.3,1.1-3.5-0.5-4.5
					C34.8,19.8,33.2,20.1,32.2,21.1z"/>
			</g>
			<g>
				<path class="st1" d="M26,34.9c-0.7,0-1.5-0.3-2-0.8l-8.7-8.7c-0.7-0.7-1-1.7-0.9-2.6c0.1-1,0.6-1.9,1.5-2.4
					c1.3-0.9,3-0.6,4.2,0.5l2.6,2.6V3.3C22.7,1.5,24.2,0,26,0s3.3,1.5,3.3,3.3v20.2l2.6-2.6c1.1-1.2,2.9-1.4,4.2-0.5
					c0.8,0.6,1.4,1.4,1.5,2.4s-0.2,1.9-0.9,2.6L28,34.1C27.5,34.6,26.8,34.9,26,34.9z M17.6,20.5c-0.5,0-1,0.1-1.4,0.4
					c-0.7,0.4-1.1,1.1-1.2,1.9c-0.1,0.8,0.2,1.5,0.7,2.1l8.7,8.7c0.8,0.8,2.2,0.8,3,0l8.7-8.7c0.6-0.6,0.8-1.3,0.7-2.1
					c-0.1-0.8-0.5-1.5-1.2-1.9c-1-0.7-2.4-0.5-3.3,0.4l0,0l-3.8,3.8V3.3c0-1.4-1.2-2.6-2.6-2.6s-2.6,1.2-2.6,2.6v21.9l-3.8-3.8
					C19,20.8,18.3,20.5,17.6,20.5z"/>
			</g>
		</g>
	</g>
</g>
</svg>
