<?xml version="1.0" encoding="utf-8"?>
<!-- Generator: Adobe Illustrator 23.0.5, SVG Export Plug-In . SVG Version: 6.00 Build 0)  -->
<svg version="1.1" id="Layer_1" xmlns="http://www.w3.org/2000/svg" xmlns:xlink="http://www.w3.org/1999/xlink" x="0px" y="0px"
	 viewBox="0 0 52 52" style="enable-background:new 0 0 52 52;" xml:space="preserve">
<style type="text/css">
	.st0{fill:#EFEDEE;}
	.st1{fill:#3F3F3F;}
	.st2{fill:#7036FF;}
</style>
<g>
	<g>
		<path class="st0" d="M26.3,0.6C12.3,0.6,0.8,12,0.8,26s11.5,25.4,25.4,25.4c4.5,0,8.8-1.2,12.7-3.4l-1.5-2.6c-3.4,2-7.2,3-11.2,3
			C13.9,48.4,3.8,38.3,3.8,26S14,3.6,26.3,3.6S48.7,13.7,48.7,26c0,4-1,7.8-3,11.2v-3.7h-3v8.9h9v-3h-3.9c2.5-4,3.9-8.8,3.9-13.5
			C51.7,12,40.2,0.6,26.3,0.6z"/>
		<path class="st1" d="M26.3,51.8C12.1,51.8,0.5,40.2,0.5,26S12.1,0.2,26.3,0.2C40.4,0.3,52,11.8,52,26c0,4.5-1.3,9.2-3.6,13.2H52
			v3.7h-9.6v-9.6H46V36c1.5-3,2.3-6.4,2.3-9.9C48.3,13.9,38.4,4,26.2,4c-12.1-0.1-22,9.8-22,22s9.9,22.1,22.1,22.1
			c3.9,0,7.7-1,11-2.9l0.3-0.2l1.8,3.2l-0.3,0.2C35.2,50.6,30.8,51.8,26.3,51.8z M26.3,0.9C12.4,0.9,1.2,12.2,1.2,26
			s11.3,25.1,25.1,25.1c4.3,0,8.5-1.1,12.2-3.2l-1.2-2c-3.4,1.9-7.2,2.9-11,2.9C13.7,48.8,3.5,38.5,3.5,26S13.7,3.2,26.3,3.2
			C38.8,3.2,49,13.5,49,26c0,4-1,8-3,11.4l-0.6,1.1v-4.6H43v8.3h8.3v-2.3h-4.2l0.3-0.5c2.5-4,3.8-8.7,3.8-13.3
			C51.3,12.2,40.1,0.9,26.3,0.9z"/>
	</g>
	<g>
		<path class="st0" d="M36.7,19.2l2.9,5.3L39.3,29c0,0-0.8,2.8-3.8,3.3s-8.9-0.1-10.7-0.4s-5.1-4.1-5.1-4.1s-0.4-6.5-0.2-8.2
			c0.1-1.8,2-4.7,2-4.7s3-1.4,3.6-1.4c0.6-0.1,2.9,0,4.4,0.4s7.1,4.3,7.1,4.3L36.7,19.2L36.7,19.2z"/>
		<path class="st1" d="M32.5,32.7c-2.9,0-6.3-0.4-7.8-0.5c-1.9-0.2-4.9-3.8-5.3-4.2l-0.1-0.1v-0.1c0-0.3-0.4-6.5-0.2-8.3
			c0.1-1.9,2-4.7,2.1-4.8l0.1-0.1h0.1c0.5-0.2,3.1-1.4,3.7-1.5c0.7-0.1,3,0,4.5,0.4s7,4.2,7.2,4.3L37,18v1.1l2.9,5.3L39.6,29
			c0,0.1-0.9,3-4.1,3.5C34.7,32.6,33.6,32.7,32.5,32.7z M20,27.6c1,1.1,3.5,3.7,4.8,3.9c1.8,0.2,7.6,0.8,10.6,0.4
			c2.7-0.4,3.5-2.7,3.5-3l0.3-4.3l-2.9-5.2v-0.9c-2-1.4-5.8-3.8-6.9-4.2c-1.4-0.4-3.7-0.5-4.3-0.4c-0.4,0-2.3,0.8-3.5,1.4
			c-0.3,0.5-1.8,2.9-1.9,4.4C19.7,21.2,20,26.8,20,27.6z"/>
	</g>
	<g>
		<path class="st2" d="M26.3,9.5C17.2,9.5,9.8,17,9.8,26s7.4,16.5,16.5,16.5S42.7,35,42.7,26S35.3,9.5,26.3,9.5z M36.7,27.5H24.8
			v-12h3v9h8.9C36.7,24.5,36.7,27.5,36.7,27.5z"/>
		<path class="st1" d="M26.3,42.8C17,42.8,9.4,35.3,9.4,26S16.9,9.2,26.2,9.2S43,16.7,43,26C43.1,35.3,35.5,42.8,26.3,42.8z
			 M26.3,9.9c-8.9,0-16.1,7.2-16.1,16.1s7.2,16.1,16.1,16.1S42.4,34.9,42.4,26S35.2,9.9,26.3,9.9z M37,27.8H24.4V15.1h3.7v9H37V27.8
			z M25.1,27.2h11.3v-2.3h-8.9v-9h-2.3v11.3H25.1z"/>
	</g>
</g>
</svg>
