<?xml version="1.0" encoding="utf-8"?>
<!-- Generator: Adobe Illustrator 23.0.5, SVG Export Plug-In . SVG Version: 6.00 Build 0)  -->
<svg version="1.1" id="Layer_1" xmlns="http://www.w3.org/2000/svg" xmlns:xlink="http://www.w3.org/1999/xlink" x="0px" y="0px"
	 viewBox="0 0 52 52" style="enable-background:new 0 0 52 52;" xml:space="preserve">
<style type="text/css">
	.st0{fill:#EFEDEE;}
	.st1{fill:#3F3F3F;}
	.st2{fill:#E49A61;}
	.st3{fill:#191919;}
	.st4{fill:#7036FF;}
</style>
<g>
	<g>
		<g>
			<g>
				<polygon class="st0" points="26,1.1 1.1,21.8 50.9,21.8 				"/>
				<path class="st1" d="M51.9,22.2H0.1L26,0.7L51.9,22.2z M2.1,21.5H50L26,1.6L2.1,21.5z"/>
			</g>
		</g>
	</g>
	<g>
		<g>
			<g>
				<rect x="4.2" y="21.8" class="st0" width="43.6" height="29.1"/>
				<path class="st1" d="M48.1,51.2H3.9V21.5h44.3v29.7H48.1z M4.6,50.6h42.9V22.2H4.6V50.6z"/>
			</g>
		</g>
	</g>
	<g>
		<g>
			<path class="st2" d="M29.7,39.7c0,0.4-0.3,0.8-0.8,0.8s-0.8-0.4-0.8-0.8S28.5,39,29,39S29.7,39.3,29.7,39.7z"/>
			<path class="st3" d="M29,40.7c-0.5,0-0.9-0.5-0.9-1s0.4-0.9,0.9-0.9s0.9,0.4,0.9,0.9C29.9,40.3,29.5,40.7,29,40.7z M29,39.2
				c-0.3,0-0.6,0.2-0.6,0.6c0,0.3,0.3,0.6,0.6,0.6c0.3,0,0.6-0.3,0.6-0.6C29.5,39.4,29.3,39.2,29,39.2z"/>
		</g>
	</g>
	<g>
		<g>
			<g>
				<path class="st4" d="M33,28.6H19c-0.8,0-1.4,0.3-1.4,0.8v21.5h16.7V29.4C34.4,28.9,33.7,28.6,33,28.6z"/>
				<path class="st1" d="M34.7,51.3H17.3V29.4c0-0.7,0.7-1.1,1.8-1.1H33c1,0,1.8,0.5,1.8,1.1L34.7,51.3L34.7,51.3z M18,50.6h16V29.4
					c0-0.2-0.4-0.4-1.1-0.4H19c-0.6,0-1.1,0.2-1.1,0.4v21.2H18z"/>
			</g>
		</g>
		<g>
			<g>
				<polygon class="st4" points="10.1,1.9 11.2,1.9 11.2,13.4 16.7,8.8 16.7,1.9 17.9,1.9 17.9,0.3 10.1,0.3 				"/>
				<path class="st1" d="M10.9,14.2V2.3H9.7V0h8.5v2.3h-1.1V9L10.9,14.2z M10.4,1.6h1.1v11.1l4.8-4V1.6h1.1V0.7h-7.1v0.9
					C10.3,1.6,10.4,1.6,10.4,1.6z"/>
			</g>
		</g>
	</g>
	<g>
		<g>
			<rect x="1.1" y="49.5" class="st4" width="49.8" height="2.1"/>
			<path class="st1" d="M51.2,52H0.8v-2.8h50.5L51.2,52L51.2,52z M1.4,51.3h49.1v-1.4H1.4V51.3z"/>
		</g>
	</g>
</g>
</svg>
