<?xml version="1.0" encoding="utf-8"?>
<!-- Generator: Adobe Illustrator 23.0.5, SVG Export Plug-In . SVG Version: 6.00 Build 0)  -->
<svg version="1.1" id="Layer_1" xmlns="http://www.w3.org/2000/svg" xmlns:xlink="http://www.w3.org/1999/xlink" x="0px" y="0px"
	 viewBox="0 0 52 52" style="enable-background:new 0 0 52 52;" xml:space="preserve">
<style type="text/css">
	.st0{fill:#FFFFFF;}
	.st1{fill:#3F3F3F;}
	.st2{fill:#7036FF;}
</style>
<g>
	<g>
		<circle class="st0" cx="26.3" cy="25.8" r="16.9"/>
		<path class="st1" d="M26.3,43.1C16.8,43.1,9,35.4,9,25.8S16.8,8.6,26.3,8.6s17.3,7.7,17.3,17.3S35.8,43.1,26.3,43.1z M26.3,9.2
			c-9.2,0-16.6,7.5-16.6,16.6c0,9.2,7.5,16.6,16.6,16.6c9.2,0,16.6-7.5,16.6-16.6S35.5,9.2,26.3,9.2z"/>
	</g>
	<g>
		<path class="st2" d="M39.4,5.2C35.5,2.8,30.9,1.3,26,1.3C12.4,1.3,1.3,12.4,1.3,26s11,24.7,24.7,24.7s24.7-11,24.7-24.7
			C50.7,17.3,46.2,9.6,39.4,5.2z M26,40.9c-8.2,0-14.9-6.7-14.9-14.9S17.8,11.1,26,11.1S40.9,17.8,40.9,26S34.2,40.9,26,40.9z"/>
		<path class="st1" d="M26,51C12.2,51,1,39.8,1,26S12.2,1,26,1c4.8,0,9.5,1.4,13.5,4l0,0C46.7,9.6,51,17.5,51,26
			C51,39.8,39.8,51,26,51z M26,1.6C12.6,1.6,1.6,12.6,1.6,26s11,24.4,24.4,24.4s24.4-11,24.4-24.4c0-8.3-4.2-16-11.2-20.5
			C35.3,3,30.7,1.6,26,1.6z M26,41.2c-8.4,0-15.2-6.8-15.2-15.2S17.6,10.8,26,10.8S41.2,17.6,41.2,26S34.4,41.2,26,41.2z M26,11.4
			c-8,0-14.6,6.5-14.6,14.6c0,8,6.5,14.6,14.6,14.6c8,0,14.6-6.5,14.6-14.6C40.6,18,34,11.4,26,11.4z"/>
	</g>
	<g>
		<path class="st2" d="M29.7,24.8c0.8-0.9,1.3-2,1.3-3.3c0-2.7-2.2-5-5-5s-5,2.2-5,5c0,1.3,0.5,2.4,1.3,3.3
			c-1.4,1.1-2.2,2.8-2.2,4.7c0,3.3,2.7,6,6,6s6-2.7,6-6C32,27.6,31.1,25.9,29.7,24.8z M24,21.5c0-1.1,0.9-2,2-2s2,0.9,2,2
			s-0.9,2-2,2S24,22.6,24,21.5z M26,32.5c-1.6,0-3-1.3-3-3c0-1.6,1.3-3,3-3c1.6,0,3,1.3,3,3C29,31.1,27.6,32.5,26,32.5z"/>
		<path class="st1" d="M26,35.8c-3.5,0-6.3-2.8-6.3-6.3c0-1.8,0.8-3.5,2.1-4.7c-0.7-0.9-1.1-2.1-1.1-3.3c0-2.9,2.4-5.3,5.3-5.3
			s5.3,2.4,5.3,5.3c0,1.2-0.4,2.3-1.1,3.3c1.3,1.2,2.1,2.9,2.1,4.7C32.3,32.9,29.5,35.8,26,35.8z M26,16.9c-2.6,0-4.6,2.1-4.6,4.6
			c0,1.1,0.4,2.2,1.2,3.1l0.2,0.3l-0.3,0.2c-1.3,1.1-2.1,2.7-2.1,4.4c0,3.1,2.5,5.6,5.6,5.6s5.6-2.5,5.6-5.6c0-1.7-0.8-3.3-2.1-4.4
			l-0.3-0.2l0.2-0.3c0.8-0.9,1.2-1.9,1.2-3.1C30.6,19,28.6,16.9,26,16.9z M26,32.8c-1.8,0-3.3-1.5-3.3-3.3s1.5-3.3,3.3-3.3
			s3.3,1.5,3.3,3.3S27.8,32.8,26,32.8z M26,26.8c-1.5,0-2.7,1.2-2.7,2.7s1.2,2.7,2.7,2.7s2.7-1.2,2.7-2.7S27.5,26.8,26,26.8z
			 M26,23.8c-1.3,0-2.3-1-2.3-2.3s1-2.3,2.3-2.3s2.3,1,2.3,2.3S27.3,23.8,26,23.8z M26,19.9c-0.9,0-1.7,0.7-1.7,1.7
			c0,0.9,0.7,1.7,1.7,1.7c0.9,0,1.7-0.7,1.7-1.7S26.9,19.9,26,19.9z"/>
	</g>
</g>
</svg>
