<?xml version="1.0" encoding="utf-8"?>
<!-- Generator: Adobe Illustrator 23.0.5, SVG Export Plug-In . SVG Version: 6.00 Build 0)  -->
<svg version="1.1" id="Layer_1" xmlns="http://www.w3.org/2000/svg" xmlns:xlink="http://www.w3.org/1999/xlink" x="0px" y="0px"
	 viewBox="0 0 52 52" style="enable-background:new 0 0 52 52;" xml:space="preserve">
<style type="text/css">
	.st0{clip-path:url(#SVGID_2_);fill:#FFFFFF;stroke:#3F3F3F;stroke-width:0.75;stroke-miterlimit:10;}
	.st1{clip-path:url(#SVGID_4_);fill:#7036FF;stroke:#3F3F3F;stroke-width:0.75;stroke-miterlimit:10;}
</style>
<g>
	<defs>
		<path id="SVGID_1_" d="M14.8,28.5c-0.6-0.3-1.1-0.6-1.6-1.1c-0.5-0.5-0.8-1-1.1-1.6c-0.3-0.6-0.4-1.3-0.4-2c0-0.7,0.1-1.3,0.4-2
			c0.3-0.6,0.6-1.1,1.1-1.6c0.5-0.5,1-0.8,1.6-1.1c0.6-0.3,1.3-0.4,2-0.4c0.7,0,1.3,0.1,2,0.4c0.6,0.3,1.1,0.6,1.6,1.1
			c0.5,0.5,0.8,1,1.1,1.6c0.3,0.6,0.4,1.3,0.4,2c0,0.7-0.1,1.3-0.4,2c-0.3,0.6-0.6,1.1-1.1,1.6c-0.5,0.5-1,0.8-1.6,1.1
			c-0.6,0.3-1.3,0.4-2,0.4C16,28.9,15.4,28.8,14.8,28.5 M11.3,13.5c-1.6,0.6-2.9,1.4-4,2.4c-1.1,1-2,2.2-2.6,3.6
			c-0.6,1.4-0.9,2.9-0.9,4.5c0,1.5,0.3,2.9,0.8,4.2c0.5,1.3,1.2,2.5,2.1,3.4c0.9,1,2,1.8,3.2,2.3c1.2,0.6,2.6,0.8,4.1,0.8
			c0.4,0,0.8,0,1.3-0.1c0.5-0.1,1.1-0.4,1.9-0.8h0.2l-8.6,9.9h9.1l7-8.5c1.6-1.9,2.8-3.9,3.5-5.9c0.8-2,1.1-3.9,1.1-5.6
			c0-1.5-0.3-3-0.9-4.3c-0.6-1.4-1.4-2.5-2.6-3.6c-1.1-1-2.5-1.8-4-2.4c-1.6-0.6-3.4-0.9-5.4-0.9C14.7,12.6,12.9,12.9,11.3,13.5"/>
	</defs>
	<use xlink:href="#SVGID_1_"  style="overflow:visible;fill:#FFFFFF;"/>
	<clipPath id="SVGID_2_">
		<use xlink:href="#SVGID_1_"  style="overflow:visible;"/>
	</clipPath>
	<rect x="3.8" y="12.6" class="st0" width="25.7" height="31.2"/>
	<use xlink:href="#SVGID_1_"  style="overflow:visible;fill:none;stroke:#3F3F3F;stroke-width:0.75;stroke-miterlimit:10;"/>
</g>
<g>
	<defs>
		<path id="SVGID_3_" d="M28.8,10.2c-1.6,0.6-2.9,1.4-4,2.4c-0.1,0.1-0.3,0.3-0.4,0.4c1,0.5,1.9,1.2,2.7,1.9c1.1,1,2,2.2,2.6,3.5
			c0.3-0.5,0.6-1,1-1.4c0.5-0.5,1-0.8,1.6-1.1c0.6-0.3,1.3-0.4,2-0.4c0.7,0,1.3,0.1,2,0.4c0.6,0.3,1.1,0.6,1.6,1.1
			c0.5,0.5,0.8,1,1.1,1.6c0.3,0.6,0.4,1.3,0.4,2c0,0.7-0.1,1.3-0.4,2c-0.3,0.6-0.6,1.1-1.1,1.6c-0.5,0.5-1,0.8-1.6,1.1
			c-0.6,0.3-1.3,0.4-2,0.4c-0.7,0-1.3-0.1-2-0.4c-0.5-0.2-1-0.5-1.4-0.9c-0.1,1.7-0.5,3.6-1.2,5.5c-0.2,0.5-0.4,1-0.6,1.5
			c0.8,0.2,1.6,0.3,2.5,0.3c0.4,0,0.8,0,1.3-0.1c0.5-0.1,1.1-0.4,1.9-0.8h0.2L23.3,43.8h9.3L42.4,32c1.6-1.9,2.8-3.9,3.5-5.9
			c0.8-2,1.1-3.9,1.1-5.6c0-1.5-0.3-3-0.9-4.3c-0.6-1.4-1.4-2.5-2.6-3.6c-1.1-1-2.5-1.8-4-2.4c-1.6-0.6-3.4-0.9-5.4-0.9
			C32.2,9.3,30.4,9.6,28.8,10.2"/>
	</defs>
	<use xlink:href="#SVGID_3_"  style="overflow:visible;fill:#7036FF;"/>
	<clipPath id="SVGID_4_">
		<use xlink:href="#SVGID_3_"  style="overflow:visible;"/>
	</clipPath>
	<rect x="23.3" y="9.3" class="st1" width="23.7" height="34.5"/>
	<use xlink:href="#SVGID_3_"  style="overflow:visible;fill:none;stroke:#3F3F3F;stroke-width:0.75;stroke-miterlimit:10;"/>
</g>
</svg>
