<?xml version="1.0" encoding="utf-8"?>
<!-- Generator: Adobe Illustrator 23.0.5, SVG Export Plug-In . SVG Version: 6.00 Build 0)  -->
<svg version="1.1" id="Layer_1" xmlns="http://www.w3.org/2000/svg" xmlns:xlink="http://www.w3.org/1999/xlink" x="0px" y="0px"
	 viewBox="0 0 52 52" style="enable-background:new 0 0 52 52;" xml:space="preserve">
<style type="text/css">
	.st0{fill:#7036FF;}
	.st1{fill:#3F3F3F;}
	.st2{fill:#EFEDEE;}
</style>
<g>
	<g>
		<g>
			<circle class="st0" cx="25.6" cy="42.7" r="3.1"/>
			<path class="st1" d="M25.6,46.1c-1.9,0-3.4-1.5-3.4-3.4s1.5-3.4,3.4-3.4s3.4,1.5,3.4,3.4C29,44.5,27.4,46.1,25.6,46.1z
				 M25.6,39.9c-1.5,0-2.7,1.2-2.7,2.7s1.2,2.7,2.7,2.7s2.7-1.2,2.7-2.7S27.1,39.9,25.6,39.9z"/>
		</g>
		<g>
			<circle class="st0" cx="39.5" cy="35.2" r="3.1"/>
			<path class="st1" d="M39.5,38.6c-1.9,0-3.4-1.5-3.4-3.4s1.5-3.4,3.4-3.4s3.4,1.5,3.4,3.4C42.9,37,41.4,38.6,39.5,38.6z
				 M39.5,32.4c-1.5,0-2.7,1.2-2.7,2.7s1.2,2.7,2.7,2.7s2.7-1.2,2.7-2.7S41,32.4,39.5,32.4z"/>
		</g>
		<g>
			<circle class="st0" cx="34.4" cy="14.8" r="3.1"/>
			<path class="st1" d="M34.4,18.2c-1.9,0-3.4-1.5-3.4-3.4s1.5-3.4,3.4-3.4s3.4,1.5,3.4,3.4S36.3,18.2,34.4,18.2z M34.4,12
				c-1.5,0-2.7,1.2-2.7,2.7s1.2,2.7,2.7,2.7s2.7-1.2,2.7-2.7S35.9,12,34.4,12z"/>
		</g>
		<g>
			<circle class="st0" cx="11.6" cy="16.1" r="3.1"/>
			<path class="st1" d="M11.6,19.5c-1.9,0-3.4-1.5-3.4-3.4s1.5-3.4,3.4-3.4s3.4,1.5,3.4,3.4S13.5,19.5,11.6,19.5z M11.6,13.4
				c-1.5,0-2.7,1.2-2.7,2.7s1.2,2.7,2.7,2.7s2.7-1.2,2.7-2.7S13.1,13.4,11.6,13.4z"/>
		</g>
		<g>
			<circle class="st0" cx="17.1" cy="25.6" r="3.1"/>
			<path class="st1" d="M17.1,29c-1.9,0-3.4-1.5-3.4-3.4s1.5-3.4,3.4-3.4s3.4,1.5,3.4,3.4S18.9,29,17.1,29z M17.1,22.9
				c-1.5,0-2.7,1.2-2.7,2.7s1.2,2.7,2.7,2.7s2.7-1.2,2.7-2.7C19.8,24.1,18.6,22.9,17.1,22.9z"/>
		</g>
		<g>
			<circle class="st0" cx="11.3" cy="33.5" r="3.1"/>
			<path class="st1" d="M11.3,36.9c-1.9,0-3.4-1.5-3.4-3.4c0-1.9,1.5-3.4,3.4-3.4s3.4,1.5,3.4,3.4C14.7,35.3,13.2,36.9,11.3,36.9z
				 M11.3,30.7c-1.5,0-2.7,1.2-2.7,2.7s1.2,2.7,2.7,2.7S14,35,14,33.5S12.8,30.7,11.3,30.7z"/>
		</g>
		<g>
			<circle class="st0" cx="6.5" cy="23.9" r="3.1"/>
			<path class="st1" d="M6.5,27.3c-1.9,0-3.4-1.5-3.4-3.4s1.5-3.4,3.4-3.4s3.4,1.5,3.4,3.4S8.4,27.3,6.5,27.3z M6.5,21.2
				c-1.5,0-2.7,1.2-2.7,2.7s1.2,2.7,2.7,2.7s2.7-1.2,2.7-2.7S8,21.2,6.5,21.2z"/>
		</g>
	</g>
	<g>
		<g>
			<g>
				<path class="st2" d="M13.1,5L0.4,24.7l10.8,21L23.9,26L13.1,5z M6.7,26c-1,0-1.8-0.8-1.8-1.8s0.8-1.8,1.8-1.8s1.8,0.8,1.8,1.8
					C8.6,25.1,7.7,26,6.7,26z M11.2,34.7c-1,0-1.8-0.8-1.8-1.8s0.8-1.8,1.8-1.8s1.8,0.8,1.8,1.8S12.2,34.7,11.2,34.7z M11.8,18.2
					c-1,0-1.8-0.8-1.8-1.8s0.8-1.8,1.8-1.8s1.8,0.8,1.8,1.8S12.8,18.2,11.8,18.2z M16.7,27.4c-1,0-1.8-0.8-1.8-1.8s0.8-1.8,1.8-1.8
					s1.8,0.8,1.8,1.8C18.5,26.5,17.7,27.4,16.7,27.4z"/>
				<path class="st1" d="M11.1,46.4L0,24.6L13.1,4.3L24.2,26L11.1,46.4z M0.8,24.7L11.2,45l12.3-19L13.1,5.7L0.8,24.7z M11.2,35
					C10,35,9,34.1,9,32.9c0-1.2,1-2.2,2.2-2.2s2.2,1,2.2,2.2C13.3,34.1,12.4,35,11.2,35z M11.2,31.4c-0.8,0-1.5,0.7-1.5,1.5
					c0,0.8,0.7,1.5,1.5,1.5s1.5-0.7,1.5-1.5C12.7,32,12,31.4,11.2,31.4z M16.7,27.7c-1.2,0-2.2-1-2.2-2.2s1-2.2,2.2-2.2
					s2.2,1,2.2,2.2C18.8,26.7,17.8,27.7,16.7,27.7z M16.7,24c-0.8,0-1.5,0.7-1.5,1.5s0.7,1.5,1.5,1.5c0.8,0,1.5-0.7,1.5-1.5
					C18.1,24.7,17.5,24,16.7,24z M6.7,26.3c-1.2,0-2.2-1-2.2-2.2s1-2.2,2.2-2.2s2.2,1,2.2,2.2S7.9,26.3,6.7,26.3z M6.7,22.6
					c-0.8,0-1.5,0.7-1.5,1.5s0.7,1.5,1.5,1.5s1.5-0.7,1.5-1.5C8.2,23.3,7.5,22.6,6.7,22.6z M11.8,18.6c-1.2,0-2.2-1-2.2-2.2
					s1-2.2,2.2-2.2s2.2,1,2.2,2.2S13,18.6,11.8,18.6z M11.8,14.9c-0.8,0-1.5,0.7-1.5,1.5c0,0.8,0.7,1.5,1.5,1.5s1.5-0.7,1.5-1.5
					S12.6,14.9,11.8,14.9z"/>
			</g>
		</g>
	</g>
	<g>
		<g>
			<g>
				<path class="st2" d="M26.5,27.7l-12.9,20L38.1,49L51,29L26.5,27.7z M25.2,44.6c-1,0-1.8-0.8-1.8-1.8s0.8-1.8,1.8-1.8
					s1.8,0.8,1.8,1.8C27,43.7,26.2,44.6,25.2,44.6z M39.9,36.5c-1,0-1.8-0.8-1.8-1.8s0.8-1.8,1.8-1.8s1.8,0.8,1.8,1.8
					S40.9,36.5,39.9,36.5z"/>
				<path class="st1" d="M38.3,49.4h-0.2L13,48.1l13.4-20.7h0.2l25.1,1.3L38.3,49.4z M14.2,47.5l23.7,1.2l12.5-19.4l-23.7-1.2
					L14.2,47.5z M25.2,44.9c-1.2,0-2.2-1-2.2-2.2s1-2.2,2.2-2.2s2.2,1,2.2,2.2C27.4,43.9,26.4,44.9,25.2,44.9z M25.2,41.2
					c-0.8,0-1.5,0.7-1.5,1.5s0.7,1.5,1.5,1.5s1.5-0.7,1.5-1.5S26,41.2,25.2,41.2z M39.9,36.9c-1.2,0-2.2-1-2.2-2.2s1-2.2,2.2-2.2
					s2.2,1,2.2,2.2C42,35.9,41.1,36.9,39.9,36.9z M39.9,33.2c-0.8,0-1.5,0.7-1.5,1.5s0.7,1.5,1.5,1.5s1.5-0.7,1.5-1.5
					S40.7,33.2,39.9,33.2z"/>
			</g>
		</g>
	</g>
	<g>
		<g>
			<g>
				<path class="st2" d="M40.3,4.2L15.6,2.9l11.1,21.7l24.8,1.2L40.3,4.2z M34.5,16.4c-1,0-1.8-0.8-1.8-1.8s0.8-1.8,1.8-1.8
					s1.8,0.8,1.8,1.8C36.3,15.5,35.5,16.4,34.5,16.4z"/>
				<path class="st1" d="M52,26.2l-25.5-1.3l-0.1-0.2L15,2.6l25.5,1.3L40.6,4L52,26.2z M26.9,24.3l24,1.2l-10.7-21l-24-1.2
					L26.9,24.3z M34.5,16.7c-1.2,0-2.2-1-2.2-2.2s1-2.2,2.2-2.2s2.2,1,2.2,2.2C36.6,15.7,35.7,16.7,34.5,16.7z M34.5,13
					c-0.8,0-1.5,0.7-1.5,1.5s0.7,1.5,1.5,1.5s1.5-0.7,1.5-1.5S35.3,13,34.5,13z"/>
			</g>
		</g>
	</g>
</g>
</svg>
