<?xml version="1.0" encoding="utf-8"?>
<!-- Generator: Adobe Illustrator 23.0.5, SVG Export Plug-In . SVG Version: 6.00 Build 0)  -->
<svg version="1.1" id="Layer_1" xmlns="http://www.w3.org/2000/svg" xmlns:xlink="http://www.w3.org/1999/xlink" x="0px" y="0px"
	 viewBox="0 0 52 52" style="enable-background:new 0 0 52 52;" xml:space="preserve">
<style type="text/css">
	.st0{fill:#7036FF;}
	.st1{fill:#3F3F3F;}
	.st2{fill:#EFEDEE;}
	.st3{fill:#525C6B;}
</style>
<g>
	<g>
		<g>
			<path class="st0" d="M49.2,10.7c1.4,0,2.5,1.1,2.5,2.5v36c0,1.4-1.1,2.5-2.5,2.5H2.8c-1.4,0-2.5-1.1-2.5-2.5v-36
				c0-1.4,1.1-2.5,2.5-2.5L49.2,10.7L49.2,10.7z"/>
			<path class="st1" d="M49.2,52.1H2.8c-1.6,0-2.8-1.2-2.8-2.8v-36c0-1.6,1.3-2.8,2.8-2.8h46.4c1.6,0,2.8,1.2,2.8,2.8v36
				C52,50.8,50.7,52.1,49.2,52.1z M2.8,11.1c-1.2,0-2.2,1-2.2,2.2v36c0,1.2,1,2.2,2.2,2.2h46.4c1.2,0,2.2-1,2.2-2.2v-36
				c0-1.2-1-2.2-2.2-2.2C49.2,11.1,2.8,11.1,2.8,11.1z"/>
		</g>
	</g>
	<g>
		<g>
			<path class="st2" d="M18,10.7c0-2-1.6-3.6-3.5-3.6H5.2v40.1h9.2c1.9,0,3.5,1.6,3.5,3.5v-40C17.9,10.7,18,10.7,18,10.7z"/>
			<path class="st1" d="M18.3,50.8h-0.6c0-1.7-1.5-3.2-3.2-3.2H4.9V6.8h9.5c2.1,0,3.9,1.8,3.9,3.9V50.8z M5.5,47h8.9
				c1.3,0,2.5,0.7,3.2,1.7v-38c0-1.8-1.4-3.3-3.2-3.3H5.5V47z"/>
		</g>
	</g>
	<g>
		<g>
			<path class="st2" d="M18,50.8c0-1.9,1.6-3.5,3.5-3.5h25.2v-40H21.5c-1.9,0-3.5,1.6-3.5,3.5V50.8z"/>
			<path class="st1" d="M18.3,50.8h-0.6v-40c0-2.1,1.8-3.9,3.9-3.9H47v40.7H21.5C19.7,47.6,18.3,49.1,18.3,50.8z M21.5,7.6
				c-1.7,0-3.2,1.5-3.2,3.2v37.9c0.7-1,1.9-1.7,3.2-1.7h24.9V7.6H21.5z"/>
		</g>
	</g>
	<g>
		<g>
			<g>
				<path class="st3" d="M18,13.7c1.1,0,2,0.9,2,2h1.6c0-2-1.6-3.6-3.6-3.6s-3.6,1.7-3.6,3.6H16C16,14.6,16.9,13.7,18,13.7z"/>
			</g>
		</g>
		<g>
			<g>
				<path class="st3" d="M18,20.9c-2,0-3.6,1.6-3.6,3.6H16c0-1.1,0.9-2,2-2s2,0.9,2,2h1.6C21.6,22.5,20,20.9,18,20.9z"/>
			</g>
		</g>
		<g>
			<g>
				<path class="st3" d="M18,29.7c-2,0-3.6,1.6-3.6,3.6H16c0-1.1,0.9-2,2-2s2,0.9,2,2h1.6C21.6,31.4,20,29.7,18,29.7z"/>
			</g>
		</g>
		<g>
			<g>
				<path class="st3" d="M18,38.6c-2,0-3.6,1.6-3.6,3.6H16c0-1.1,0.9-2,2-2s2,0.9,2,2h1.6C21.6,40.2,20,38.6,18,38.6z"/>
			</g>
		</g>
	</g>
	<g>
		<g>
			<path class="st0" d="M31.1,36.8l2.7,5.3l2.7-5.3C34.9,36.1,32.8,36.1,31.1,36.8z"/>
			<path class="st1" d="M33.8,42.8l-3.1-6.2l0.3-0.1c1.7-0.8,3.9-0.8,5.6,0l0.3,0.1L33.8,42.8z M31.6,37l2.2,4.4L36,37
				C34.6,36.5,33,36.5,31.6,37z"/>
		</g>
	</g>
	<g>
		<g>
			<path class="st2" d="M29,32.7l2.1,4.2c1.7-0.7,3.7-0.7,5.4,0l2.1-4.2C35.5,31.1,32.1,31.1,29,32.7z"/>
			<path class="st1" d="M31,37.3l-2.4-4.8l0.3-0.1c3.2-1.6,6.7-1.6,9.9,0l0.3,0.1l-2.4,4.8l-0.3-0.1c-1.6-0.7-3.6-0.7-5.1,0L31,37.3
				z M33.8,36c0.9,0,1.7,0.2,2.5,0.5l1.8-3.6c-2.8-1.3-5.9-1.3-8.7,0l1.8,3.6C32.1,36.1,32.9,36,33.8,36z"/>
		</g>
	</g>
	<g>
		<g>
			<path class="st0" d="M29,2.1v5c3.1-1.5,6.5-1.5,9.6,0l0,0v-5C35.5,0.6,32.1,0.6,29,2.1z"/>
			<path class="st1" d="M39,7.6l-0.5-0.2c-3.1-1.5-6.3-1.5-9.3,0l-0.5,0.2V1.9l0.2-0.1c3.2-1.6,6.7-1.6,9.9,0L39,1.9V7.6z M33.8,5.6
				c1.5,0,3,0.3,4.5,1V2.3c-2.9-1.4-6-1.4-9,0v4.3C30.8,6,32.3,5.6,33.8,5.6z"/>
		</g>
	</g>
	<g>
		<path class="st2" d="M33.8,5.9c-1.6,0-3.2,0.4-4.8,1.1v25.5c1.6-0.8,3.2-1.1,4.8-1.1s3.2,0.4,4.8,1.1V7.1
			C37.1,6.3,35.4,5.9,33.8,5.9z"/>
		<path class="st1" d="M38.9,33.2L38.4,33c-1.5-0.7-3-1.1-4.7-1.1c-1.6,0-3.2,0.4-4.7,1.1l-0.5,0.2V6.9l0.2-0.1
			c1.6-0.8,3.2-1.2,4.9-1.2s3.3,0.4,4.9,1.2l0.2,0.1v26.3H38.9z M33.8,31.2c1.6,0,3.1,0.3,4.5,0.9V7.3c-1.4-0.7-3-1-4.5-1
			c-1.6,0-3.1,0.3-4.5,1v24.8C30.8,31.5,32.3,31.2,33.8,31.2z"/>
	</g>
</g>
</svg>
