<?xml version="1.0" encoding="utf-8"?>
<!-- Generator: Adobe Illustrator 23.0.5, SVG Export Plug-In . SVG Version: 6.00 Build 0)  -->
<svg version="1.1" id="Layer_1" xmlns="http://www.w3.org/2000/svg" xmlns:xlink="http://www.w3.org/1999/xlink" x="0px" y="0px"
	 viewBox="0 0 52 52" style="enable-background:new 0 0 52 52;" xml:space="preserve">
<style type="text/css">
	.st0{fill:#EFEDEE;}
	.st1{fill:#3F3F3F;}
	.st2{fill:#7036FF;}
</style>
<g>
	<g id="_17-joker">
		<g id="Flat_4_">
			<g>
				<g>
					<path class="st0" d="M47.7,29.1c-1.7,0-3,1.3-3,3c0,1.7,1.3,3,3,3s3-1.3,3-3C50.7,30.5,49.3,29.1,47.7,29.1z"/>
					<path class="st1" d="M47.7,35.5c-1.8,0-3.3-1.5-3.3-3.3s1.5-3.3,3.3-3.3s3.3,1.5,3.3,3.3S49.5,35.5,47.7,35.5z M47.7,29.5
						c-1.5,0-2.7,1.2-2.7,2.7s1.2,2.7,2.7,2.7s2.7-1.2,2.7-2.7C50.3,30.7,49.1,29.5,47.7,29.5z"/>
				</g>
				<g>
					<path class="st0" d="M37.6,11c-1.7,0-3,1.3-3,3s1.3,3,3,3s3-1.3,3-3C40.6,12.4,39.2,11,37.6,11z"/>
					<path class="st1" d="M37.6,17.4c-1.8,0-3.3-1.5-3.3-3.3s1.5-3.3,3.3-3.3s3.3,1.5,3.3,3.3S39.4,17.4,37.6,17.4z M37.6,11.3
						c-1.5,0-2.7,1.2-2.7,2.7s1.2,2.7,2.7,2.7s2.7-1.2,2.7-2.7S39.1,11.3,37.6,11.3z"/>
				</g>
				<g>
					<path class="st0" d="M3.3,29.1c-1.7,0-3,1.3-3,3c0,1.7,1.3,3,3,3s3-1.3,3-3C6.3,30.5,5,29.1,3.3,29.1z"/>
					<path class="st1" d="M3.3,35.5C1.5,35.5,0,34,0,32.2s1.5-3.3,3.3-3.3s3.3,1.5,3.3,3.3S5.2,35.5,3.3,35.5z M3.3,29.5
						c-1.5,0-2.7,1.2-2.7,2.7s1.2,2.7,2.7,2.7S6,33.6,6,32.2C6,30.7,4.8,29.5,3.3,29.5z"/>
				</g>
			</g>
			<g>
				<path class="st2" d="M38,29c3.5-1.7,8.3,1,8.4,1c0.5,0.3,1.1,0.1,1.4-0.4c0.1-0.2,0.2-0.5,0.1-0.7C47.1,25.5,44,19,37.6,19
					c-4.7,0-7.2,2.2-8.3,3.6c-2.3-2.1-3-4.5-1.8-6.7c1.3-2.5,4.4-3.8,7-3c0.5,0.2,1.1-0.1,1.3-0.6c0.1-0.3,0.1-0.5-0.1-0.8
					C33.5,7.2,28.8,4.2,23,7.1c-6,3-6.9,9.9-6.8,14c-2.2-2.1-5.6-3.7-9.3-1.9c-4.5,2.3-4.6,9.4-4.6,9.7c0,0.6,0.5,1,1,1
					c0.4,0,0.8-0.2,0.9-0.6c0,0,0.8-1.9,2.4-2.5c0.7-0.3,1.5-0.2,2.3,0.2c2.8,1.4,3.5,8.6,3.5,11.2v2h22.2v-2
					C34.6,36.1,35.2,30.4,38,29z"/>
				<path class="st1" d="M34.9,40.6H12.1v-2.3c0-3.6-0.9-9.7-3.3-10.9c-0.7-0.4-1.4-0.4-2-0.2c-1.2,0.4-2,1.9-2.2,2.3l0,0
					c-0.2,0.5-0.7,0.8-1.2,0.8c-0.7,0-1.3-0.6-1.3-1.3c0-0.3,0.1-7.7,4.8-10c3.9-1.9,7.2-0.1,9.1,1.5c0.1-4.1,1.2-10.6,7-13.6
					c2.7-1.4,5.5-1.5,8-0.5c2.1,0.9,4,2.7,5.2,5.1c0.2,0.3,0.2,0.7,0.1,1c-0.2,0.7-1,1.1-1.7,0.9c-2.4-0.8-5.3,0.5-6.6,2.8
					c-1.1,2-0.5,4.2,1.5,6.1c1.2-1.4,3.8-3.4,8.3-3.4c6.6,0,9.8,6.6,10.6,10.1c0.1,0.3,0,0.7-0.1,1c-0.4,0.6-1.2,0.9-1.8,0.5
					c-0.1,0-4.7-2.6-8.1-1c-2.7,1.4-3.3,7-3.3,8.9v2.2H34.9z M12.7,39.9h21.5v-1.7c0-2.1,0.7-8,3.7-9.5l0,0c3.7-1.8,8.7,1,8.7,1
					c0.3,0.2,0.7,0.1,0.9-0.3c0.1-0.1,0.1-0.3,0.1-0.5c-0.7-3.3-3.8-9.6-10-9.6c-4.5,0-7,2.2-8,3.4L29.4,23l-0.3-0.2
					c-2.4-2.2-3.1-4.8-1.9-7.1c1.4-2.6,4.7-4,7.4-3.1c0.4,0.1,0.7-0.1,0.9-0.4c0.1-0.2,0-0.4,0-0.5c-1.1-2.2-2.8-3.9-4.8-4.8
					c-2.3-1-4.9-0.8-7.4,0.5c-5.9,3-6.7,9.9-6.6,13.7v0.8L16,21.3c-1.6-1.5-5-3.8-8.9-1.9c-4.3,2.2-4.4,9.1-4.4,9.4
					c0,0.4,0.3,0.7,0.7,0.7c0.3,0,0.5-0.2,0.6-0.4V29c0.3-0.7,1.2-2.1,2.5-2.6c0.8-0.3,1.6-0.2,2.6,0.3c3.6,1.8,3.7,11.4,3.7,11.5
					v1.7C12.8,39.9,12.7,39.9,12.7,39.9z"/>
			</g>
		</g>
	</g>
	<g>
		<path class="st0" d="M32.4,46H14.6c-1.2,0-2.3-1-2.3-2.3l0,0c0-1.2,1-2.3,2.3-2.3h17.7c1.2,0,2.3,1,2.3,2.3l0,0
			C34.6,45,33.6,46,32.4,46z"/>
		<path class="st1" d="M33.7,46.3H13.3c-0.7,0-1.2-0.6-1.2-1.2v-2.7c0-0.7,0.6-1.2,1.2-1.2h20.4c0.7,0,1.2,0.6,1.2,1.2v2.7
			C35,45.8,34.4,46.3,33.7,46.3z M13.3,41.8c-0.3,0-0.6,0.3-0.6,0.6v2.7c0,0.3,0.3,0.6,0.6,0.6h20.4c0.3,0,0.6-0.3,0.6-0.6v-2.7
			c0-0.3-0.3-0.6-0.6-0.6H13.3z"/>
	</g>
</g>
</svg>
