<?xml version="1.0" encoding="utf-8"?>
<!-- Generator: Adobe Illustrator 23.0.5, SVG Export Plug-In . SVG Version: 6.00 Build 0)  -->
<svg version="1.1" id="Layer_1" xmlns="http://www.w3.org/2000/svg" xmlns:xlink="http://www.w3.org/1999/xlink" x="0px" y="0px"
	 viewBox="0 0 52 52" style="enable-background:new 0 0 52 52;" xml:space="preserve">
<style type="text/css">
	.st0{fill:#EFEDEE;}
	.st1{fill:#3F3F3F;}
	.st2{fill:#7036FF;}
</style>
<g>
	<path class="st0" d="M26,51.7c2.9,0,5.4-2.2,5.6-5.1H20.4C20.6,49.4,23.1,51.7,26,51.7"/>
	<path class="st1" d="M26,52c-3,0-5.6-2.4-5.9-5.4v-0.3H32v0.3C31.6,49.6,29,52,26,52z M20.7,46.9c0.4,2.5,2.7,4.5,5.3,4.5
		s4.9-1.9,5.3-4.5H20.7z"/>
</g>
<g>
	<path class="st2" d="M45.7,35.2c-1.7,0-3.1-1.4-3.1-3.1V21.8c0-7.3-4.8-13.5-11.4-15.7c0-0.2,0-0.4,0-0.5c0-2.9-2.3-5.2-5.2-5.2
		s-5.2,2.3-5.2,5.2c0,0.2,0,0.4,0,0.5C14.2,8.3,9.4,14.5,9.4,21.8v10.3c0,1.7-1.4,3.1-3.1,3.1c-2.3,0-4.2,1.8-4.2,4.2
		s1.9,4.2,4.2,4.2h39.3c2.3,0,4.2-1.9,4.2-4.2C49.9,37.1,48,35.2,45.7,35.2z M26,3.3c1.2,0,2.1,0.9,2.2,2.1
		c-0.7-0.1-1.4-0.2-2.2-0.2c-0.7,0-1.5,0.1-2.2,0.2C23.9,4.2,24.8,3.3,26,3.3z"/>
	<path class="st1" d="M45.7,43.9H6.3c-2.5,0-4.5-2-4.5-4.5s2-4.5,4.5-4.5c1.5,0,2.8-1.3,2.8-2.8V21.8c0-7.2,4.5-13.6,11.3-15.9
		c0-0.1,0-0.2,0-0.3C20.5,2.5,22.9,0,26,0s5.5,2.5,5.5,5.5c0,0.1,0,0.2,0,0.3c6.8,2.4,11.3,8.7,11.3,15.9V32c0,1.5,1.3,2.8,2.8,2.8
		c2.5,0,4.5,2,4.5,4.5C50.2,41.9,48.2,43.9,45.7,43.9z M26,0.6c-2.7,0-4.9,2.2-4.9,4.9c0,0.2,0,0.3,0,0.5l0.1,0.3l-0.3,0.1
		C14.2,8.6,9.7,14.8,9.7,21.8v10.3c0,1.9-1.5,3.4-3.4,3.4c-2.1,0-3.9,1.7-3.9,3.9c0,2.1,1.7,3.9,3.9,3.9h39.3c2.1,0,3.9-1.7,3.9-3.9
		c0-2.1-1.7-3.9-3.9-3.9c-1.9,0-3.4-1.5-3.4-3.4V21.8c0-7-4.5-13.2-11.1-15.4l-0.3-0.1V6c0-0.2,0-0.3,0-0.5
		C30.9,2.8,28.7,0.6,26,0.6z M28.6,5.7h-0.4c-0.8-0.1-1.5-0.2-2.2-0.2c-0.6,0-1.4,0-2.2,0.2h-0.4V5.3C23.6,4,24.7,3,26,3
		s2.4,1,2.5,2.3L28.6,5.7z M26,3.6c-0.9,0-1.6,0.6-1.8,1.4c0.7-0.1,1.3-0.1,1.8-0.1c0.6,0,1.2,0,1.8,0.1C27.6,4.2,26.9,3.6,26,3.6z"
		/>
</g>
</svg>
