<?xml version="1.0" encoding="utf-8"?>
<!-- Generator: Adobe Illustrator 23.0.5, SVG Export Plug-In . SVG Version: 6.00 Build 0)  -->
<svg version="1.1" id="Layer_1" xmlns="http://www.w3.org/2000/svg" xmlns:xlink="http://www.w3.org/1999/xlink" x="0px" y="0px"
	 viewBox="0 0 52 52" style="enable-background:new 0 0 52 52;" xml:space="preserve">
<style type="text/css">
	.st0{fill:#EFEDEE;}
	.st1{fill:#3F3F3F;}
	.st2{fill:#7036FF;}
</style>
<g>
	<g>
		<rect x="6.6" y="11.9" class="st0" width="25" height="30.3"/>
		<path class="st1" d="M31.9,42.5H6.3v-31H32v31H31.9z M6.9,41.8h24.3V12.2H6.9V41.8z"/>
	</g>
	<g>
		<g>
			<g>
				<path class="st2" d="M31.7,0.7h-27C2.8,0.7,1.3,2.2,1.3,4v44c0,1.9,1.5,3.4,3.4,3.4h27c1.9,0,3.4-1.5,3.4-3.4V4
					C35.1,2.2,33.6,0.7,31.7,0.7z M22,31.1c-0.7,0-1.4-0.1-2.1-0.4v3.7h1.7c0.9,0,1.7,0.8,1.7,1.7s-0.8,1.7-1.7,1.7h-6.8
					c-0.9,0-1.7-0.8-1.7-1.7s0.8-1.7,1.7-1.7h1.7v-3.7c-0.7,0.2-1.4,0.4-2.1,0.4c-3.5,0-6.3-2.6-6.3-6c0-4.4,7.1-9.2,9.2-10.6
					c0.5-0.3,1.2-0.3,1.8,0c1.5,0.9,9.2,5.9,9.2,10.6C28.3,28.4,25.6,31.1,22,31.1z"/>
				<path class="st1" d="M31.7,51.7h-27C2.7,51.7,1,50,1,48V4c0-2,1.7-3.7,3.7-3.7h27c2,0,3.7,1.7,3.7,3.7v44
					C35.4,50,33.8,51.7,31.7,51.7z M4.7,1c-1.7,0-3,1.4-3,3v44c0,1.7,1.4,3,3,3h27c1.7,0,3-1.4,3-3V4c0-1.7-1.4-3-3-3H4.7z
					 M21.6,38.1h-6.8c-1.1,0-2-0.9-2-2s0.9-2,2-2h1.4v-3c-0.6,0.2-1.2,0.2-1.8,0.2c-3.7,0-6.7-2.8-6.7-6.4c0-4.6,7.2-9.5,9.4-10.9
					c0.7-0.4,1.5-0.4,2.1,0c1.6,1,9.4,6,9.4,10.9c0,3.6-2.9,6.4-6.7,6.4c-0.6,0-1.2-0.1-1.8-0.2v3h1.4c1.1,0,2,0.9,2,2
					C23.6,37.2,22.7,38.1,21.6,38.1z M14.8,34.8c-0.7,0-1.4,0.6-1.4,1.4c0,0.7,0.6,1.4,1.4,1.4h6.8c0.7,0,1.4-0.6,1.4-1.4
					c0-0.7-0.6-1.4-1.4-1.4h-2v-4.5l0.4,0.1c0.7,0.2,1.4,0.3,2,0.3c3.4,0,6-2.5,6-5.7c0-4.6-8.2-9.8-9.1-10.3c-0.4-0.3-1-0.3-1.4,0
					C15.4,16,8.4,20.8,8.4,25c0,3.2,2.6,5.7,6,5.7c0.6,0,1.3-0.1,2-0.3l0.4-0.1v4.5C16.8,34.8,14.8,34.8,14.8,34.8z"/>
			</g>
		</g>
	</g>
	<g>
		<g>
			<g>
				<path class="st2" d="M43.2,6l-4.7-1.3v31.8l7.1-26.4C46,8.4,45,6.5,43.2,6z"/>
				<path class="st1" d="M38.2,39.1V4.3l5.1,1.4c2,0.5,3.2,2.6,2.6,4.5L38.2,39.1z M38.8,5.2v28.9l6.4-24c0.4-1.6-0.5-3.3-2.2-3.7
					L38.8,5.2z"/>
			</g>
		</g>
	</g>
	<g>
		<g>
			<g>
				<path class="st2" d="M50,15.8l-2.1-1.2l-5.8,21.7l9.2-15.9C52.2,18.8,51.6,16.7,50,15.8z"/>
				<path class="st1" d="M41.1,38.6l6.6-24.5l2.5,1.4c1.8,1,2.4,3.3,1.4,5.1L41.1,38.6z M48.1,15.1L43,33.9l7.9-13.7
					c0.8-1.5,0.3-3.3-1.1-4.2L48.1,15.1z"/>
			</g>
		</g>
	</g>
</g>
</svg>
