<?xml version="1.0" encoding="utf-8"?>
<!-- Generator: Adobe Illustrator 23.0.5, SVG Export Plug-In . SVG Version: 6.00 Build 0)  -->
<svg version="1.1" id="Layer_1" xmlns="http://www.w3.org/2000/svg" xmlns:xlink="http://www.w3.org/1999/xlink" x="0px" y="0px"
	 viewBox="0 0 52 52" style="enable-background:new 0 0 52 52;" xml:space="preserve">
<style type="text/css">
	.st0{fill:#7036FF;}
	.st1{fill:#3F3F3F;}
	.st2{fill:#EFEDEE;}
</style>
<g>
	<g>
		<path class="st0" d="M18.6,21h7.3h7.3c0.8,0,1.4-0.6,1.4-1.4V18c0-4.1-3.3-7.6-7.7-7.6c2.3-0.5,4.1-2.5,4.1-5
			c0-2.8-2.3-5.1-5.1-5.1s-5.1,2.3-5.1,5.1c0,2.5,1.8,4.6,4.1,5c-4.4,0-7.7,3.5-7.7,7.6v1.6C17.1,20.3,17.8,21,18.6,21L18.6,21z"/>
		<path class="st1" d="M33.1,21.3H18.6c-1,0-1.8-0.8-1.8-1.8V18c0-4,2.8-7.1,6.5-7.8c-1.8-0.9-2.9-2.8-2.9-4.8c0-3,2.4-5.5,5.4-5.5
			s5.4,2.5,5.4,5.5c0,2.1-1.2,3.9-2.9,4.8c3.7,0.7,6.5,3.9,6.5,7.8v1.6C34.9,20.5,34.1,21.3,33.1,21.3z M25.8,0.5
			c-2.6,0-4.8,2.2-4.8,4.8c0,2.3,1.6,4.3,3.8,4.7l-0.1,0.7c-4.1,0-7.4,3.2-7.4,7.3v1.6c0,0.6,0.5,1.1,1.1,1.1h14.5
			c0.6,0,1.1-0.5,1.1-1.1V18c0-4.1-3.2-7.3-7.4-7.3l0.2-0.7c2.2-0.4,3.8-2.4,3.8-4.7C30.6,2.7,28.5,0.5,25.8,0.5z"/>
	</g>
	<g>
		<path class="st2" d="M6.8,25c0.1,0,0.2,0,0.3,0c0.7,0,1.3-0.5,1.5-1.2c0.4-2,1.1-4,2.1-5.8s2.2-3.4,3.6-4.8c0.6-0.6,0.6-1.5,0-2.1
			c-0.6-0.6-1.5-0.6-2.1,0c-1.6,1.6-3,3.4-4.2,5.5S6,21,5.6,23.3C5.4,24.1,5.9,24.8,6.8,25L6.8,25z"/>
		<path class="st1" d="M7,25.3c-0.1,0-0.2,0-0.3,0l0,0c-1-0.2-1.6-1.1-1.5-2.1c0.4-2.4,1.2-4.7,2.4-6.8c1.1-2.1,2.6-4,4.2-5.6
			c0.4-0.3,0.8-0.5,1.3-0.5s0.9,0.2,1.3,0.6c0.7,0.7,0.7,1.9,0,2.6c-1.4,1.4-2.6,2.9-3.5,4.7c-1,1.8-1.7,3.8-2,5.8
			C8.7,24.7,7.9,25.3,7,25.3z M6.8,24.7c0.6,0.1,1.2-0.3,1.3-0.9c0.4-2.1,1.1-4.1,2.1-5.9s2.2-3.5,3.7-4.9c0.5-0.4,0.5-1.2,0-1.7
			c-0.2-0.2-0.5-0.4-0.8-0.4s-0.6,0.1-0.8,0.3c-1.6,1.6-3,3.4-4.1,5.4c-1.1,2.1-1.9,4.3-2.3,6.6C5.8,23.9,6.2,24.6,6.8,24.7
			L6.8,24.7z"/>
	</g>
	<g>
		<path class="st2" d="M41.1,17.9c1,1.9,1.7,3.8,2.1,5.8c0.1,0.7,0.8,1.2,1.5,1.2c0.1,0,0.2,0,0.3,0c0.8-0.1,1.3-0.9,1.2-1.7
			c-0.4-2.3-1.2-4.6-2.4-6.7c-1.1-2.1-2.5-3.9-4.2-5.5c-0.6-0.6-1.5-0.6-2.1,0s-0.6,1.5,0,2.1C38.9,14.5,40.2,16.1,41.1,17.9
			L41.1,17.9z"/>
		<path class="st1" d="M44.7,25.3c-0.9,0-1.6-0.6-1.8-1.5c-0.4-2-1-3.9-2-5.8c-1-1.8-2.1-3.3-3.5-4.7c-0.7-0.7-0.7-1.9,0-2.6
			c0.3-0.4,0.8-0.6,1.3-0.6s0.9,0.2,1.3,0.5c1.7,1.6,3.1,3.5,4.2,5.6c1.2,2.2,2,4.5,2.4,6.8c0.2,1-0.5,1.9-1.5,2.1
			C44.9,25.3,44.8,25.3,44.7,25.3z M38.5,10.9L38.5,10.9c-0.3,0-0.6,0.1-0.8,0.4c-0.4,0.5-0.4,1.2,0,1.7c1.5,1.4,2.7,3,3.7,4.9l0,0
			c1,1.9,1.7,3.9,2.1,5.9c0.1,0.6,0.7,1.1,1.3,0.9c0.6-0.1,1-0.7,0.9-1.4c-0.4-2.3-1.2-4.5-2.3-6.6c-1.1-2-2.5-3.9-4.1-5.4
			C39.1,11,38.8,10.9,38.5,10.9z"/>
	</g>
	<g>
		<path class="st2" d="M31.9,36.4c-1.9,0.6-3.9,1-6,1h-0.1c-2,0-4-0.3-5.9-0.9c-0.8-0.2-1.6,0.2-1.9,1c-0.2,0.8,0.2,1.6,1,1.9
			c2.2,0.7,4.5,1,6.8,1h0.1c2.4,0,4.7-0.4,7-1.1c0.8-0.3,1.2-1.1,1-1.9C33.5,36.6,32.6,36.2,31.9,36.4L31.9,36.4z"/>
		<path class="st1" d="M25.8,40.7c-2.4,0-4.7-0.4-6.9-1.1c-1-0.3-1.5-1.3-1.2-2.3c0.1-0.5,0.5-0.8,0.9-1.1c0.4-0.2,0.9-0.3,1.4-0.1
			c1.9,0.6,3.8,0.9,5.8,0.9h0.1c2.1,0,4-0.3,5.9-1l0,0c0.5-0.2,1-0.1,1.4,0.1c0.4,0.2,0.8,0.6,0.9,1.1c0.3,1-0.2,2-1.2,2.3
			C30.6,40.3,28.3,40.7,25.8,40.7L25.8,40.7z M19.4,36.8c-0.2,0-0.4,0-0.5,0.1c-0.3,0.1-0.5,0.4-0.6,0.7c-0.2,0.6,0.1,1.3,0.8,1.5
			c2.1,0.7,4.4,1,6.7,1h0.1c2.4,0,4.7-0.4,6.9-1.1c0.6-0.2,0.9-0.9,0.7-1.5c-0.1-0.3-0.3-0.5-0.6-0.7c-0.3-0.1-0.6-0.2-0.9-0.1l0,0
			c-2,0.6-4,1-6.1,1h-0.1c-2.1,0-4.1-0.3-6-0.9C19.6,36.8,19.5,36.8,19.4,36.8z"/>
	</g>
	<g>
		<path class="st0" d="M10,40.5c2.3-0.5,4.1-2.5,4.1-5c0-2.8-2.3-5.1-5.1-5.1s-5.1,2.3-5.1,5.1c0,2.5,1.8,4.6,4.1,5
			c-4.4,0-7.7,3.5-7.7,7.6v1.6C0.3,50.5,1,51,1.8,51H9h7.3c0.8,0,1.4-0.6,1.4-1.4V48C17.7,44,14.5,40.5,10,40.5L10,40.5z"/>
		<path class="st1" d="M16.3,51.4H1.8c-1,0-1.8-0.8-1.8-1.8V48c0-4,2.8-7.1,6.5-7.8c-1.8-0.9-2.9-2.8-2.9-4.8c0-3,2.4-5.5,5.4-5.5
			s5.4,2.5,5.4,5.5c0,2.1-1.2,3.9-2.9,4.8c3.7,0.7,6.5,3.9,6.5,7.8v1.6C18,50.6,17.3,51.4,16.3,51.4z M9,30.6
			c-2.6,0-4.8,2.2-4.8,4.8c0,2.3,1.6,4.3,3.8,4.7v0.6c-4.1,0-7.4,3.2-7.4,7.3v1.6c0,0.6,0.5,1.1,1.1,1.1h14.5c0.6,0,1.1-0.5,1.1-1.1
			V48c0-4.1-3.2-7.3-7.4-7.3l0.1-0.6c2.2-0.4,3.8-2.4,3.8-4.7C13.8,32.7,11.7,30.6,9,30.6z"/>
	</g>
	<g>
		<path class="st0" d="M43.6,40.4c2.3-0.5,4.1-2.5,4.1-5c0-2.8-2.3-5.1-5.1-5.1s-5.1,2.3-5.1,5.1c0,2.5,1.8,4.6,4.1,5
			c-4.4,0-7.7,3.5-7.7,7.6v1.6c0,0.8,0.6,1.4,1.4,1.4h7.3h7.3c0.8,0,1.4-0.6,1.4-1.4V48C51.3,43.9,48,40.4,43.6,40.4L43.6,40.4z"/>
		<path class="st1" d="M49.9,51.4H35.3c-1,0-1.8-0.8-1.8-1.8V48c0-4,2.8-7.1,6.5-7.8c-1.8-0.9-2.9-2.8-2.9-4.8c0-3,2.4-5.5,5.4-5.5
			s5.4,2.5,5.4,5.5c0,2.1-1.2,3.9-2.9,4.8c1.6,0.3,3.1,1.1,4.2,2.2c1.5,1.5,2.3,3.5,2.3,5.6v1.6C51.6,50.6,50.8,51.4,49.9,51.4z
			 M42.6,30.6c-2.6,0-4.8,2.2-4.8,4.8c0,2.3,1.6,4.3,3.8,4.7l-0.1,0.7c-4.1,0-7.4,3.2-7.4,7.3v1.6c0,0.6,0.5,1.1,1.1,1.1h14.5
			c0.6,0,1.1-0.5,1.1-1.1V48c0-1.9-0.7-3.8-2.1-5.1c-1.4-1.4-3.3-2.2-5.3-2.2L43.3,40c2.2-0.4,3.8-2.4,3.8-4.7
			C47.4,32.7,45.2,30.6,42.6,30.6z"/>
	</g>
</g>
</svg>
