<?xml version="1.0" encoding="utf-8"?>
<!-- Generator: Adobe Illustrator 23.0.5, SVG Export Plug-In . SVG Version: 6.00 Build 0)  -->
<svg version="1.1" id="Layer_1" xmlns="http://www.w3.org/2000/svg" xmlns:xlink="http://www.w3.org/1999/xlink" x="0px" y="0px"
	 viewBox="0 0 52 52" style="enable-background:new 0 0 52 52;" xml:space="preserve">
<style type="text/css">
	.st0{fill:#EFEDEE;}
	.st1{fill:#3F3F3F;}
	.st2{fill:#7036FF;}
</style>
<g>
	<g>
		<rect x="5.4" y="41.8" class="st0" width="41.2" height="5.9"/>
		<path class="st1" d="M47,48.1H5v-6.6h42V48.1z M5.8,47.3h40.5v-5.1H5.8V47.3z"/>
	</g>
	<g>
		<rect x="5.4" y="16.6" class="st0" width="41.2" height="24.5"/>
		<path class="st1" d="M47,41.5H5V16.2h42V41.5z M5.8,40.8h40.5V17H5.8V40.8z"/>
	</g>
	<g>
		<rect x="13.6" y="3.2" class="st0" width="24.9" height="5.9"/>
		<path class="st1" d="M38.8,9.4H13.2V2.8h25.6V9.4z M13.9,8.7H38V3.6H13.9V8.7z"/>
	</g>
	<g>
		<path class="st2" d="M33.1,0.9H18.9C13,0.9,8.2,5.1,7.2,10.6h37.6C43.8,5.1,39,0.9,33.1,0.9z M17.3,7.7c-0.8,0-1.5-0.7-1.5-1.5
			s0.7-1.5,1.5-1.5s1.5,0.7,1.5,1.5S18.1,7.7,17.3,7.7z M23.1,7.7c-0.8,0-1.5-0.7-1.5-1.5s0.7-1.5,1.5-1.5s1.5,0.7,1.5,1.5
			S23.9,7.7,23.1,7.7z M28.9,7.7c-0.8,0-1.5-0.7-1.5-1.5s0.7-1.5,1.5-1.5s1.5,0.7,1.5,1.5S29.7,7.7,28.9,7.7z M34.7,7.7
			c-0.8,0-1.5-0.7-1.5-1.5s0.7-1.5,1.5-1.5s1.5,0.7,1.5,1.5S35.5,7.7,34.7,7.7z"/>
		<path class="st1" d="M45.2,11H6.8l0.1-0.4c1-5.8,6.1-10,12.1-10h14.1c6,0,11.1,4.2,12.1,10L45.2,11z M7.7,10.2h36.6
			c-1.1-5.2-5.8-9-11.2-9H18.9C13.4,1.3,8.8,5,7.7,10.2z M34.7,8.1c-1,0-1.8-0.8-1.8-1.8s0.8-1.8,1.8-1.8s1.8,0.8,1.8,1.8
			S35.8,8.1,34.7,8.1z M34.7,5.1c-0.6,0-1.1,0.5-1.1,1.1s0.5,1.1,1.1,1.1s1.1-0.5,1.1-1.1S35.3,5.1,34.7,5.1z M28.9,8.1
			c-1,0-1.8-0.8-1.8-1.8s0.8-1.8,1.8-1.8s1.8,0.8,1.8,1.8S29.9,8.1,28.9,8.1z M28.9,5.1c-0.6,0-1.1,0.5-1.1,1.1s0.5,1.1,1.1,1.1
			S30,6.8,30,6.2S29.5,5.1,28.9,5.1z M23.1,8.1c-1,0-1.8-0.8-1.8-1.8s0.8-1.8,1.8-1.8s1.8,0.8,1.8,1.8S24.1,8.1,23.1,8.1z M23.1,5.1
			c-0.6,0-1.1,0.5-1.1,1.1s0.5,1.1,1.1,1.1s1.1-0.5,1.1-1.1S23.7,5.1,23.1,5.1z M17.3,8.1c-1,0-1.8-0.8-1.8-1.8s0.8-1.8,1.8-1.8
			s1.8,0.8,1.8,1.8S18.3,8.1,17.3,8.1z M17.3,5.1c-0.6,0-1.1,0.5-1.1,1.1s0.5,1.1,1.1,1.1s1.1-0.5,1.1-1.1S17.9,5.1,17.3,5.1z"/>
	</g>
	<g>
		<path class="st2" d="M47,13.5H5c-2.1,0-3.9,1.7-3.9,3.9v29.3c0,2.1,1.7,3.9,3.9,3.9h42c2.1,0,3.9-1.7,3.9-3.9V17.4
			C50.9,15.2,49.1,13.5,47,13.5z M43.5,45.9h-35c-0.8,0-1.5-0.7-1.5-1.5s0.7-1.5,1.5-1.5h35c0.8,0,1.5,0.7,1.5,1.5
			S44.3,45.9,43.5,45.9z M44.9,37.4c0,0.8-0.7,1.5-1.5,1.5H31.8H20.2H8.5c-0.8,0-1.5-0.7-1.5-1.5V19.9c0-0.8,0.7-1.5,1.5-1.5h11.7
			h11.7h11.7c0.8,0,1.5,0.7,1.5,1.5v17.5H44.9z"/>
		<path class="st1" d="M47,51H5c-2.4,0-4.3-1.9-4.3-4.3V17.4c0-2.4,1.9-4.3,4.3-4.3h42c2.4,0,4.3,1.9,4.3,4.3v29.3
			C51.3,49.1,49.3,51,47,51z M5,13.9c-1.9,0-3.5,1.6-3.5,3.5v29.3c0,1.9,1.6,3.5,3.5,3.5h42c1.9,0,3.5-1.6,3.5-3.5V17.4
			c0-1.9-1.6-3.5-3.5-3.5H5z M43.5,46.2h-35c-1,0-1.8-0.8-1.8-1.8s0.8-1.8,1.8-1.8h35c1,0,1.8,0.8,1.8,1.8S44.5,46.2,43.5,46.2z
			 M8.5,43.3c-0.6,0-1.1,0.5-1.1,1.1s0.5,1.1,1.1,1.1h35c0.6,0,1.1-0.5,1.1-1.1s-0.5-1.1-1.1-1.1H8.5z M43.5,39.2h-35
			c-1,0-1.8-0.8-1.8-1.8V19.9c0-1,0.8-1.8,1.8-1.8h35c1,0,1.8,0.8,1.8,1.8v17.5C45.3,38.4,44.5,39.2,43.5,39.2z M8.5,18.8
			c-0.6,0-1.1,0.5-1.1,1.1v17.5c0,0.6,0.5,1.1,1.1,1.1h35c0.6,0,1.1-0.5,1.1-1.1V19.9c0-0.6-0.5-1.1-1.1-1.1H8.5z"/>
	</g>
	<g>
		<path class="st2" d="M18.7,21.4H10V36h8.7V21.4z M16.5,27.2l-2.1,4c-0.1,0.1-0.2,0.2-0.3,0.2h-1.2c-0.1,0-0.3-0.1-0.3-0.2
			c-0.1-0.1-0.1-0.3,0-0.4l1.8-3.3h-1.8c-0.2,0-0.4-0.2-0.4-0.4v-0.8c0-0.2,0.2-0.4,0.4-0.4h3.3c0.2,0,0.3,0.1,0.4,0.2l0.3,0.7
			C16.6,26.9,16.6,27.1,16.5,27.2L16.5,27.2z"/>
		<path class="st1" d="M19.1,36.3H9.6V21h9.5V36.3z M10.4,35.6h8V21.8h-8V35.6z M14.1,31.8h-1.2c-0.3,0-0.5-0.1-0.7-0.4
			c-0.1-0.2-0.1-0.5,0-0.8l1.5-2.7h-1.2c-0.4,0-0.8-0.3-0.8-0.8v-0.8c0-0.4,0.3-0.8,0.8-0.8h3.3c0.3,0,0.6,0.2,0.7,0.4l0.3,0.7
			c0.1,0.2,0.1,0.5,0,0.7l0,0l-2.1,4C14.6,31.6,14.4,31.8,14.1,31.8z M12.5,26.3v0.9H15L12.9,31h1.2l2.1-4l0,0l-0.3-0.7H12.5z"/>
	</g>
	<g>
		<path class="st2" d="M30.4,21.4h-8.7V36h8.7C30.4,36,30.4,21.4,30.4,21.4z M28.2,27.2l-2.1,4c-0.1,0.1-0.2,0.2-0.3,0.2h-1.2
			c-0.1,0-0.3-0.1-0.3-0.2c-0.1-0.1-0.1-0.3,0-0.4l1.8-3.3h-1.8c-0.2,0-0.4-0.2-0.4-0.4v-0.8c0-0.2,0.2-0.4,0.4-0.4h3.3
			c0.2,0,0.3,0.1,0.4,0.2l0.3,0.7C28.2,26.9,28.2,27.1,28.2,27.2L28.2,27.2z"/>
		<path class="st1" d="M30.8,36.3h-9.5V21h9.5V36.3z M22,35.6h8V21.8h-8V35.6z M25.7,31.8h-1.2c-0.3,0-0.5-0.1-0.7-0.4
			c-0.1-0.2-0.1-0.5,0-0.8l1.5-2.7h-1.2c-0.4,0-0.8-0.3-0.8-0.8v-0.8c0-0.4,0.3-0.8,0.8-0.8h3.3c0.3,0,0.6,0.2,0.7,0.4l0.3,0.7
			c0.1,0.2,0.1,0.5,0,0.7l-2.1,4C26.3,31.6,26,31.8,25.7,31.8z M24.2,26.3v0.9h2.5L24.6,31h1.2l2.1-4l0,0l-0.3-0.7H24.2z"/>
	</g>
	<g>
		<path class="st2" d="M33.3,36H42V21.4h-8.7V36z M35.4,26.3c0-0.2,0.2-0.4,0.4-0.4h3.3c0.2,0,0.3,0.1,0.4,0.2l0.3,0.7
			c0,0.1,0,0.2,0,0.3l-2.1,4c-0.1,0.1-0.2,0.2-0.3,0.2h-1.2c-0.1,0-0.3-0.1-0.3-0.2c-0.1-0.1-0.1-0.3,0-0.4l1.8-3.3h-1.8
			c-0.2,0-0.4-0.2-0.4-0.4L35.4,26.3L35.4,26.3z"/>
		<path class="st1" d="M42.4,36.3h-9.5V21h9.5V36.3z M33.7,35.6h8V21.8h-8V35.6z M37.4,31.8h-1.2c-0.3,0-0.5-0.1-0.7-0.4
			c-0.1-0.2-0.1-0.5,0-0.8L37,28h-1.2c-0.4,0-0.8-0.3-0.8-0.8v-0.8c0-0.4,0.3-0.8,0.8-0.8h3.3c0.3,0,0.6,0.2,0.7,0.4l0.3,0.7
			c0.1,0.2,0.1,0.5,0,0.7l-2.1,4C37.9,31.6,37.7,31.8,37.4,31.8z M35.8,26.3L35.8,26.3v0.9h2.5L36.2,31h1.2l2.1-4l-0.3-0.7H35.8z"/>
	</g>
</g>
</svg>
