<?xml version="1.0" encoding="utf-8"?>
<!-- Generator: Adobe Illustrator 23.0.5, SVG Export Plug-In . SVG Version: 6.00 Build 0)  -->
<svg version="1.1" id="Layer_1" xmlns="http://www.w3.org/2000/svg" xmlns:xlink="http://www.w3.org/1999/xlink" x="0px" y="0px"
	 viewBox="0 0 52 52" style="enable-background:new 0 0 52 52;" xml:space="preserve">
<style type="text/css">
	.st0{fill:#FFFFFF;}
	.st1{fill:#3F3F3F;}
	.st2{fill:#7036FF;}
	.st3{fill:#EFEDEE;}
</style>
<g>
	<circle class="st0" cx="25.8" cy="26.2" r="24.9"/>
	<path class="st1" d="M25.8,51.4c-13.9,0-25.2-11.3-25.2-25.2S11.9,1,25.8,1S51,12.3,51,26.2S39.6,51.4,25.8,51.4z M25.8,1.7
		c-13.5,0-24.5,11-24.5,24.5s11,24.5,24.5,24.5s24.5-11,24.5-24.5S39.3,1.7,25.8,1.7z"/>
</g>
<g>
	<g>
		<path class="st2" d="M48.3,13.4L48.3,13.4c-0.3-0.6-0.7-1.1-1-1.7l-1.9,8.1l-10,3.3L27,16.4v-10l9.6-3.8l-0.2-0.1
			c-0.2-0.1-0.4-0.2-0.6-0.3c-6.2-2.5-13.1-2.5-19.3,0c-0.3,0.1-0.5,0.2-0.7,0.3l-0.2,0.1l9.7,3.8v9.9L16.9,23l-10-3.3L5,11.6
			c-0.3,0.5-0.6,1-0.9,1.5l0,0c-2.6,4-3.8,8.4-3.8,12.9c0,0.8,0,1.6,0.1,2.4l5.7-6.8l9.9,3.3L18.5,35l-4.9,6.5L4.5,40
			c0.2,0.2,0.3,0.5,0.5,0.7l0,0c3.3,4.7,8.1,8.1,13.6,9.8l0,0c0.7,0.2,1.4,0.4,2.1,0.6l-5.5-8.6L20,36h12l4.9,6.5l-4.8,8.4
			c0.6-0.1,1.2-0.3,1.8-0.5l0,0c5.3-1.7,9.9-5.1,13.1-9.7l0,0c0.2-0.2,0.3-0.5,0.5-0.7l-9.1,1.4l-4.9-6.5L36,24.8l9.9-3.3l5.7,6.8
			c0.1-0.5,0.1-1.1,0.1-1.7c0-0.2,0-0.5,0-0.7C51.7,21.6,50.5,17.2,48.3,13.4z"/>
		<path class="st1" d="M21.4,51.6l-0.8-0.2c-0.4-0.1-0.9-0.2-1.4-0.3l0,0l-0.8-0.2C12.9,49.2,8,45.7,4.7,41l-0.5-0.6l0,0
			c0,0,0,0,0-0.1l-0.4-0.6l9.7,1.5l4.7-6.3l-2.4-9.8l-9.5-3.2l-6.1,7.3l-0.1-0.8C0,27.6,0,26.8,0,26c0-4.5,1.2-9,3.5-13l0.6-1.1V12
			c0.1-0.2,0.2-0.3,0.3-0.5l0.4-0.6l2,8.7l9.7,3.2l8.2-6.5V6.7l-10.2-4l0.9-0.4C15.7,2.1,16,2,16.3,1.9c6.3-2.6,13.3-2.5,19.6,0
			C36,2,36.3,2.1,36.5,2.2l0.9,0.4L27.3,6.7v9.5l8.2,6.5l9.7-3.2l2-8.7l0.4,0.6c0.1,0.2,0.3,0.4,0.4,0.7l0,0l0.6,1.1
			C50.8,17.1,52,21.5,52,26c0,0.2,0,0.3,0,0.5v0.2c0,0.6-0.1,1.2-0.1,1.7l-0.1,0.8l-6.1-7.3l-9.5,3.2l-2.4,9.8l4.7,6.2l9.6-1.5
			l-0.4,0.6c0,0,0,0,0,0.1l0,0l-0.5,0.6C44,45.5,39.3,49,34,50.7L33.2,51l0,0c-0.4,0.1-0.7,0.2-1.1,0.3l-0.8,0.2l5-8.8l-4.7-6.2
			H20.2l-4.6,6.1L21.4,51.6z M17.9,50l0.8,0.2c0.5,0.1,0.9,0.3,1.3,0.4l-5.2-8.1l5.1-6.8h12.3l5.1,6.8l-4.5,7.8
			c0.3-0.1,0.7-0.2,1-0.3l0.8-0.3l0,0c4.6-1.7,8.7-4.7,11.7-8.6l0,0l0.5-0.7l-8.5,1.3L33,35l2.6-10.4L46,21.2l5.3,6.4
			c0-0.3,0-0.5,0-0.8v-0.2c0-0.2,0-0.3,0-0.5c0-4.2-1-8.3-3-12L48,13.5c-0.2-0.4-0.4-0.7-0.6-1L45.7,20l-10.4,3.5l-8.7-7V6.2
			l9.1-3.6h-0.1C29.4,0,22.7,0,16.5,2.5c-0.1,0-0.1,0.1-0.2,0.1l9.1,3.6v10.3l-8.7,7L6.3,20l-1.8-7.5C4.3,12.8,4.2,13,4,13.3
			l-0.2,0.4c-2.1,3.7-3.2,8-3.2,12.3c0,0.5,0,1,0,1.5L6,21.2l10.3,3.4L19,35l-5.1,6.8l-8.6-1.4l0.5,0.7l0,0
			C8.8,45.3,13.1,48.3,17.9,50L17.9,50z"/>
	</g>
	<g>
		<path class="st2" d="M20,36.1h0.3H32l1.5-1.1L36,24.9l-0.6-1.7L27,16.5h-1.8l-8.4,6.7l-0.6,1.7L18.7,35L20,36.1z"/>
		<path class="st1" d="M32.1,36.4H19.9l-1.6-1.3l-2.6-10.3l0.6-1.9L25,16h2l8.6,6.9l0.6,1.9l-2.6,10.3L32.1,36.4z M20.2,35.7h11.7
			l1.3-1l2.5-9.9l-0.5-1.6l-8.3-6.6h-1.6L17,23.2l-0.5,1.5l2.5,9.9L20.2,35.7z"/>
	</g>
	<g>
		<path class="st3" d="M26,51.7C11.8,51.7,0.3,40.2,0.3,26S11.8,0.3,26,0.3S51.7,11.8,51.7,26C51.6,40.2,40.2,51.6,26,51.7z M26,2
			C12.8,2,2,12.8,2,26s10.7,24,24,24s24-10.7,24-24C49.9,12.8,39.2,2.1,26,2z"/>
		<path class="st1" d="M26,52L26,52C11.7,52,0,40.3,0,26S11.7,0,26,0s26,11.7,26,26S40.3,52,26,52z M26,0.7C12,0.7,0.7,12,0.7,26
			S12,51.3,26,51.3S51.3,39.9,51.3,26C51.3,12,40,0.7,26,0.7z M26,50.3C12.6,50.3,1.7,39.4,1.7,26S12.6,1.7,26,1.7l0,0
			c13.4,0,24.3,10.9,24.3,24.3S39.4,50.3,26,50.3z M26,2.4C13,2.4,2.4,13,2.4,26S13,49.6,26,49.6S49.6,39,49.6,26S39,2.4,26,2.4
			L26,2.4z"/>
	</g>
</g>
</svg>
