<?xml version="1.0" encoding="utf-8"?>
<!-- Generator: Adobe Illustrator 23.0.5, SVG Export Plug-In . SVG Version: 6.00 Build 0)  -->
<svg version="1.1" id="Layer_1" xmlns="http://www.w3.org/2000/svg" xmlns:xlink="http://www.w3.org/1999/xlink" x="0px" y="0px"
	 viewBox="0 0 52 52" style="enable-background:new 0 0 52 52;" xml:space="preserve">
<style type="text/css">
	.st0{fill:#EFEDEE;}
	.st1{fill:#3F3F3F;}
	.st2{fill:#7036FF;}
</style>
<g>
	<g>
		<rect x="37.6" y="19.3" class="st0" width="5.1" height="5.1"/>
		<path class="st1" d="M43,24.7h-5.7V19H43V24.7z M37.9,24.1h4.5v-4.5h-4.5V24.1z"/>
	</g>
	<g>
		<rect x="39.6" y="23.2" class="st0" width="2.4" height="0.2"/>
		<rect x="39.2" y="22.9" class="st1" width="3" height="0.9"/>
	</g>
	<g>
		<path class="st2" d="M14.2,5.3c1.5,0.3,2.7,0.9,3.5,1.5c3.8-1,8.2-1.5,12.3-1.1C25.8,1,20,0.4,14,2.5C12.6,3,12.8,5,14.2,5.3
			L14.2,5.3z"/>
		<path class="st1" d="M17.7,7.1L17.5,7c-0.9-0.7-2.1-1.2-3.4-1.5c-0.8-0.2-1.4-0.8-1.4-1.6c-0.1-0.8,0.4-1.5,1.2-1.8
			C20.6-0.2,26.3,1,30.3,5.5l0.5,0.6L30,6C26,5.6,21.7,6,17.7,7.1L17.7,7.1z M20.3,1.6c-2.2,0-4.4,0.5-6.2,1.1
			c-0.6,0.2-0.8,0.7-0.8,1.1s0.3,0.9,0.9,1l0,0c1.4,0.3,2.6,0.8,3.5,1.5c3.6-1,7.7-1.4,11.4-1.1C26.5,2.6,23.3,1.6,20.3,1.6z"/>
	</g>
	<g>
		<path class="st2" d="M8.1,31.3c2.9-2.5,6.1-3.1,9.7-1.7c3.3,1.3,8.8,2.9,13.7,3.7c-0.4-0.6-0.4-0.6-0.4-0.6
			c-1.3-2.3-4.3-8.4-2.6-14.2c1-3.4,3.3-6.2,7-8.2c0,0,0,0,0.6-0.3c-4.5-1.7-9.6-2-14.4-1.2c-4.3,0.7-6.5,1.8-8.6,3.2
			C2.9,18.8,0,27.9,1.9,35.6l0,0c2.2,9,11.4,14.6,11.8,14.8c0.2,0.1,0.5,0.2,0.8,0.2c0.4,0,2.9-0.1,4.7-2.2c1.6-1.8,2-4.6,1.3-8.1
			c-0.2-0.9-1.1-1.4-2-1c0,0-2.4,1-5.3,0.9c-3.5-0.1-6.3-1.8-8.2-5C5.4,34.3,6.5,32.7,8.1,31.3L8.1,31.3z"/>
		<path class="st1" d="M14.5,51c-0.3,0-0.6-0.1-0.9-0.3c-0.4-0.2-9.7-5.9-12-15c-2.2-8.9,2.1-17.8,11.4-24c2.2-1.4,4.5-2.5,8.8-3.2
			c5-0.8,10.2-0.4,14.4,1.3l0.6,0.2L36,10.4c-0.4,0.2-0.4,0.2-0.5,0.3c-3.6,2-5.9,4.6-6.9,8c-1.6,5.7,1.3,11.6,2.6,13.9
			c0,0,0,0,0.2,0.3l0.6,0.9l-0.7-0.1c-5.2-0.8-10.7-2.5-13.8-3.7c-3.5-1.3-6.6-0.8-9.4,1.6c-1.5,1.3-2.5,2.8-3,3.6
			c1.9,3,4.5,4.6,7.9,4.7c3,0.1,5.3-0.9,5.4-0.9c0.5-0.2,1.1-0.2,1.5,0.1c0.5,0.3,0.8,0.7,0.9,1.2c0.7,3.7,0.2,6.5-1.4,8.4
			C17.6,50.8,15,51,14.5,51z M26.8,8.8c-1.6,0-3.3,0.1-5,0.4c-4.2,0.7-6.3,1.7-8.5,3.1C4.2,18.3,0.1,27,2.2,35.5
			c2.2,8.9,11.3,14.4,11.7,14.7c0.2,0.1,0.4,0.2,0.6,0.2c0.3,0,2.8-0.1,4.5-2.1c1.5-1.8,1.9-4.4,1.2-7.9c-0.1-0.3-0.3-0.6-0.6-0.8
			c-0.3-0.2-0.7-0.2-1,0c0,0-2.5,1.1-5.5,1c-3.6-0.1-6.5-1.9-8.5-5.2l-0.1-0.2L4.7,35c0.5-0.9,1.6-2.5,3.2-3.9l0.2,0.2l-0.2-0.2
			c3-2.6,6.3-3.2,10-1.8c2.9,1.2,8,2.7,13,3.5l0,0c-1.4-2.4-4.3-8.5-2.7-14.4c1-3.5,3.4-6.3,7.2-8.4l0,0C32.8,9.2,29.8,8.8,26.8,8.8
			z"/>
	</g>
	<g>
		<path class="st2" d="M50.6,30.4c-1.3-8.3-4.9-15.1-11.3-18.8c-3.4,1.8-2.2,1.2-2.5,1.3c-3,1.6-4.9,3.8-5.6,6.4
			c-1.3,4.7,1.2,9.9,2.3,11.9l1.6,2.5C40,34.2,45,34,49.3,32.2c0.5-0.2,0.9-0.3,1.1-0.8C50.6,31.1,50.7,30.7,50.6,30.4z M39.9,22.8
			c-0.8,0-1.5-0.7-1.5-1.4c0-0.8,0.6-1.4,1.5-1.4c0.8,0,1.4,0.6,1.4,1.4C41.3,22.2,40.7,22.8,39.9,22.8z"/>
		<path class="st1" d="M39.1,34.3c-1.3,0-2.6-0.1-3.9-0.2H35l-1.7-2.7c-1.2-2.1-3.7-7.3-2.4-12.2c0.8-2.7,2.7-5,5.8-6.6l0,0l0,0l0,0
			l0,0c0.1-0.1,0.2-0.1,0.3-0.2l2.2-1.2l0.2,0.1c6.1,3.6,10.1,10.2,11.4,19c0.1,0.4,0,0.9-0.3,1.2c-0.3,0.5-0.7,0.6-1.2,0.8h-0.1
			C46.5,33.7,43.1,34.3,39.1,34.3z M35.4,33.5c5.5,0.5,10.1-0.1,13.8-1.6h0.1c0.4-0.2,0.7-0.3,0.9-0.6c0.1-0.2,0.2-0.5,0.2-0.8l0,0
			c-1.3-8.6-5.1-15-11-18.5c-1.9,1-2.2,1.2-2.3,1.3l0,0L37,13.4c-2.8,1.6-4.6,3.6-5.3,6.1c-1.3,4.6,1.2,9.7,2.3,11.7L35.4,33.5z
			 M39.9,23.1c-1,0-1.8-0.8-1.8-1.8s0.8-1.8,1.8-1.8s1.8,0.8,1.8,1.8S40.8,23.1,39.9,23.1z M39.9,20.2c-0.6,0-1.1,0.5-1.1,1.1
			s0.5,1.1,1.1,1.1s1.1-0.5,1.1-1.1S40.5,20.2,39.9,20.2z"/>
	</g>
</g>
</svg>
