<?xml version="1.0" encoding="utf-8"?>
<!-- Generator: Adobe Illustrator 23.0.5, SVG Export Plug-In . SVG Version: 6.00 Build 0)  -->
<svg version="1.1" id="Layer_1" xmlns="http://www.w3.org/2000/svg" xmlns:xlink="http://www.w3.org/1999/xlink" x="0px" y="0px"
	 viewBox="0 0 52 52" style="enable-background:new 0 0 52 52;" xml:space="preserve">
<style type="text/css">
	.st0{fill:#EFEDEE;}
	.st1{fill:#3F3F3F;}
	.st2{fill:#525C6B;}
	.st3{fill:#7036FF;}
</style>
<g>
	<g>
		<path class="st0" d="M36.7,40.5l0.3-4.1l-4.4-2.5l-5.7-2.5l-2.8-0.6L20.6,28l-0.3-4.4c0,0-0.6-2.2,0.3-2.8
			c0.9-0.6,5.4-2.2,6.6-1.9c1.3,0.3,5.4,2.8,6,3.5c0.6,0.6,3.2,2.5,4.7,2.5s4.1-3.8,4.1-4.4s-1.3-3.8-1.3-4.1S38,12.1,37,11.8
			c-0.9-0.3-6.3-1.9-7.6-1.9c-1.3,0-5.7,0.6-6,0.6c-0.3,0-6.3,2.5-6.6,2.8s-4.7,2.2-6,4.1S9.3,20.6,9,23.2s-0.6,4.7-0.3,5.7
			C9,29.8,10,36.1,10,36.1l2.2,2.8l4.7,3.8l4.7,1.3l3.8,0.9l3.5-0.3l4.4-1.3l2.8-1.9L36.7,40.5z"/>
		<path class="st1" d="M25.3,45.2L25.3,45.2l-3.8-1L16.7,43l-4.8-3.9l-2.3-2.9v-0.1c-0.3-2.2-1-6.5-1.2-7.2
			c-0.3-0.9-0.1-2.8,0.2-5.2l0.1-0.6c0.3-2.6,0.7-3.9,1.9-5.8c1-1.5,3.7-2.9,5.2-3.7c0.4-0.2,0.8-0.4,0.9-0.5
			c0.3-0.3,6.4-2.9,6.8-2.9c0.1,0,0.7-0.1,1.4-0.2c1.5-0.2,3.8-0.5,4.6-0.5c1.4,0,6.9,1.6,7.7,1.9c1,0.3,4,4.2,4,4.7
			c0,0.1,0.3,0.8,0.5,1.4c0.5,1.4,0.8,2.3,0.8,2.7c0,0.9-2.7,4.7-4.4,4.7c-1.8,0-4.4-2.1-5-2.6c-0.6-0.6-4.7-3.1-5.8-3.4
			c-1.1-0.3-5.4,1.2-6.4,1.8c-0.6,0.4-0.3,2-0.2,2.5v0.1l0.3,4.3l3.3,2.7l2.8,0.6l5.7,2.5l4.6,2.6L37,40.6l-0.7,1.1l-3,2L28.8,45
			L25.3,45.2z M17,42.4l4.7,1.2l3.7,0.9l3.4-0.3l4.3-1.2l2.7-1.8l0.5-0.8l0.3-3.8l-4.2-2.4l-5.6-2.5L24,31l-3.6-3L20,23.5
			c-0.1-0.4-0.6-2.4,0.5-3.2c1-0.7,5.5-2.3,6.9-1.9c1.4,0.3,5.5,2.9,6.1,3.6c0.6,0.6,3.1,2.4,4.5,2.4s3.7-3.6,3.8-4.1
			c0-0.3-0.5-1.6-0.8-2.5s-0.5-1.3-0.5-1.5c-0.2-0.5-2.8-3.9-3.6-4.2c-1.2-0.4-6.3-1.9-7.5-1.9c-0.8,0-3.1,0.3-4.5,0.5
			c-0.8,0.1-1.3,0.2-1.4,0.2c-0.6,0.1-6.1,2.5-6.4,2.8c-0.1,0.1-0.4,0.2-1,0.6c-1.4,0.7-4,2.1-4.9,3.5c-1.2,1.8-1.5,3-1.8,5.5
			l-0.1,0.6C9,26,8.8,28,9,28.9c0.3,0.9,1.1,6.4,1.3,7.2l2.1,2.7L17,42.4z"/>
	</g>
	<g>
		<path class="st0" d="M50,32.9c0,0.9-0.8,1.7-1.7,1.7s-1.7-0.8-1.7-1.7s0.8-1.7,1.7-1.7S50,32,50,32.9z"/>
		<path class="st1" d="M48.2,35c-1.1,0-2-0.9-2-2c0-1.1,0.9-2,2-2s2,0.9,2,2C50.3,34,49.4,35,48.2,35z M48.2,31.5
			c-0.8,0-1.4,0.6-1.4,1.4s0.6,1.4,1.4,1.4s1.4-0.6,1.4-1.4S49,31.5,48.2,31.5z"/>
	</g>
	<g>
		<g>
			<path class="st2" d="M19.1,38.1c-0.5,0-0.9,0.4-0.9,0.9s0.4,0.9,0.9,0.9S20,39.5,20,39C19.9,38.5,19.5,38.1,19.1,38.1z"/>
		</g>
		<g>
			<path class="st2" d="M25.9,33.8c-0.5,0-0.9,0.4-0.9,0.9s0.4,0.9,0.9,0.9s0.9-0.4,0.9-0.9S26.4,33.8,25.9,33.8z"/>
		</g>
		<g>
			<path class="st2" d="M19.9,31.2c-0.5,0-0.9,0.4-0.9,0.9c0,0.5,0.4,0.9,0.9,0.9s0.9-0.4,0.9-0.9C20.8,31.6,20.4,31.2,19.9,31.2z"
				/>
		</g>
		<g>
			<path class="st2" d="M25.9,40.6c-0.5,0-0.9,0.4-0.9,0.9s0.4,0.9,0.9,0.9s0.9-0.4,0.9-0.9S26.4,40.6,25.9,40.6z"/>
		</g>
		<g>
			<path class="st2" d="M15.6,22.6c-0.5,0-0.9,0.4-0.9,0.9s0.4,0.9,0.9,0.9s0.9-0.4,0.9-0.9S16.1,22.6,15.6,22.6z"/>
		</g>
		<g>
			<path class="st2" d="M13.1,32.9c-0.5,0-0.9,0.4-0.9,0.9s0.4,0.9,0.9,0.9s0.9-0.4,0.9-0.9C13.9,33.3,13.5,32.9,13.1,32.9z"/>
		</g>
		<g>
			<path class="st2" d="M37.1,17.5c-0.5,0-0.9,0.4-0.9,0.9s0.4,0.9,0.9,0.9s0.9-0.4,0.9-0.9C37.9,17.9,37.6,17.5,37.1,17.5z"/>
		</g>
		<g>
			<path class="st2" d="M32.8,38.1c-0.5,0-0.9,0.4-0.9,0.9s0.4,0.9,0.9,0.9s0.9-0.4,0.9-0.9S33.3,38.1,32.8,38.1z"/>
		</g>
		<g>
			<path class="st2" d="M25.9,14c0-0.5-0.4-0.9-0.9-0.9s-0.9,0.4-0.9,0.9s0.4,0.9,0.9,0.9S25.9,14.5,25.9,14z"/>
		</g>
	</g>
	<g>
		<path class="st0" d="M13.9,5.1c0.1,0,0.3,0,0.4-0.1c3.6-2,7.5-3,11.6-3c0.5,0,0.9-0.4,0.9-0.9s-0.4-0.9-0.9-0.9
			c-4.3,0-8.6,1.1-12.4,3.2c-0.3,0.2-0.5,0.6-0.4,1C13.2,4.9,13.5,5.1,13.9,5.1z"/>
		<path class="st1" d="M13.9,5.4c-0.5,0-1-0.4-1.1-0.9s0.1-1.1,0.6-1.3C17.2,1.1,21.5,0,25.9,0l0,0c0.6,0,1.2,0.5,1.2,1.2
			c0,0.6-0.5,1.2-1.2,1.2c-4,0-8,1-11.4,2.9C14.3,5.4,14.1,5.4,13.9,5.4L13.9,5.4z M25.9,0.6c-4.3,0-8.5,1.1-12.3,3.2
			c-0.2,0.1-0.3,0.4-0.3,0.6c0.1,0.2,0.3,0.4,0.5,0.4l0,0c0.1,0,0.2,0,0.3-0.1c3.6-2,7.7-3,11.8-3c0.3,0,0.5-0.2,0.5-0.5
			C26.5,0.9,26.2,0.6,25.9,0.6z"/>
	</g>
	<g>
		<path class="st0" d="M6.7,10.2C6.3,9.9,5.8,10,5.5,10.4c-1.4,1.8-2.5,3.8-3.4,5.9c-0.2,0.4,0,0.9,0.5,1.1c0.1,0,0.2,0.1,0.3,0.1
			c0.3,0,0.7-0.2,0.8-0.5c0.8-2,1.9-3.8,3.2-5.5C7,11.2,7.1,11,7,10.8C7,10.6,6.9,10.4,6.7,10.2z"/>
		<path class="st1" d="M2.9,17.8c-0.2,0-0.3,0-0.4-0.1c-0.6-0.2-0.9-0.9-0.6-1.5c0.9-2.1,2-4.2,3.5-6c0.3-0.5,1-0.6,1.5-0.2l0,0
			c0.2,0.2,0.4,0.5,0.5,0.8c0,0.3,0,0.6-0.2,0.9c-1.3,1.7-2.3,3.5-3.1,5.5C3.8,17.5,3.4,17.8,2.9,17.8L2.9,17.8z M6.2,10.4
			c-0.2,0-0.3,0.1-0.4,0.2c-1.4,1.8-2.5,3.8-3.4,5.8c-0.1,0.3,0,0.6,0.3,0.7c0.1,0,0.1,0,0.2,0c0.2,0,0.4-0.1,0.5-0.3
			c0.8-2,1.9-3.9,3.2-5.6c0.1-0.1,0.1-0.3,0.1-0.4c0-0.1-0.1-0.3-0.2-0.4l0,0C6.4,10.4,6.3,10.4,6.2,10.4z"/>
	</g>
	<g>
		<path class="st0" d="M45,40.7c-1,1.3-2.1,2.5-3.3,3.5c-0.2,0.2-0.4,0.5-0.3,0.8c0.1,0.3,0.3,0.6,0.6,0.7c0.3,0.1,0.6,0,0.9-0.2
			c1.3-1.1,2.5-2.4,3.6-3.8c0.3-0.4,0.2-0.9-0.2-1.2C45.8,40.3,45.3,40.3,45,40.7L45,40.7z"/>
		<path class="st1" d="M42.2,46c-0.1,0-0.3,0-0.4-0.1c-0.4-0.1-0.7-0.5-0.8-0.9s0.1-0.9,0.4-1.1c1.2-1,2.3-2.2,3.3-3.5l0.6-0.7V40
			c0.4-0.1,0.8-0.1,1.1,0.2c0.5,0.4,0.6,1.1,0.2,1.6c-1.1,1.4-2.3,2.7-3.6,3.8C42.8,45.9,42.5,46,42.2,46z M44.7,41.6
			c-0.9,1-1.8,2-2.8,2.9c-0.2,0.1-0.2,0.3-0.2,0.5s0.2,0.4,0.4,0.4c0.2,0.1,0.4,0,0.5-0.1c1.3-1.1,2.5-2.4,3.5-3.7
			c0.2-0.2,0.1-0.6-0.1-0.7c-0.2-0.2-0.6-0.1-0.8,0.1l0,0C45.1,41.2,44.9,41.3,44.7,41.6L44.7,41.6L44.7,41.6z"/>
	</g>
	<g>
		<path class="st3" d="M43.1,50.1H40l-5.6-6.2c4.3-2.1,7.8-5.7,9.6-10.1h-5.4c-0.7,0-1.3-0.3-1.8-0.8L31,27.2
			c-0.2-0.2-0.4-0.3-0.6-0.3H26c-0.5,0-0.9-0.4-0.9-0.9s0.4-0.9,0.9-0.9h4.4c0.7,0,1.3,0.3,1.8,0.8l5.9,5.9c0.2,0.2,0.4,0.3,0.6,0.3
			h6.1c3.2-10-2-20.7-11.7-24.4C23.2,3.9,12.2,8.4,7.9,18c-4.3,9.5-0.4,20.8,8.9,25.6L11,50.1H7.9C7.4,50.1,7,50.5,7,51
			s0.4,0.9,0.9,0.9h8.6c0.5,0,0.9-0.4,0.9-0.9s-0.4-0.9-0.9-0.9h-3.2l5.2-5.8c4.6,1.9,9.7,2,14.3,0.2l5,5.5h-3.2
			c-0.5,0-0.9,0.4-0.9,0.9s0.4,0.9,0.9,0.9h8.6c0.5,0,0.9-0.4,0.9-0.9C43.9,50.5,43.6,50.1,43.1,50.1z M37.1,15.8
			c1.4,0,2.6,1.2,2.6,2.6S38.5,21,37.1,21s-2.6-1.2-2.6-2.6C34.5,16.9,35.7,15.8,37.1,15.8z M25.1,11.5c1.4,0,2.6,1.2,2.6,2.6
			s-1.2,2.6-2.6,2.6s-2.6-1.2-2.6-2.6C22.5,12.6,23.7,11.5,25.1,11.5z M13.1,36.4c-1.4,0-2.6-1.2-2.6-2.6c0-1.4,1.2-2.6,2.6-2.6
			s2.6,1.2,2.6,2.6C15.6,35.2,14.5,36.4,13.1,36.4z M13.1,23.5c0-1.4,1.2-2.6,2.6-2.6s2.6,1.2,2.6,2.6s-1.2,2.6-2.6,2.6
			C14.2,26.1,13.1,24.9,13.1,23.5z M19.1,41.5c-1,0-2-0.6-2.4-1.6s-0.2-2.1,0.6-2.8c0.7-0.7,1.8-1,2.8-0.6s1.6,1.3,1.6,2.4
			C21.6,40.3,20.5,41.5,19.1,41.5z M19.9,34.6c-1.4,0-2.6-1.2-2.6-2.6s1.2-2.6,2.6-2.6s2.6,1.2,2.6,2.6
			C22.5,33.5,21.3,34.6,19.9,34.6z M25.9,44.1c-1.4,0-2.6-1.2-2.6-2.6c0-1.4,1.2-2.6,2.6-2.6s2.6,1.2,2.6,2.6
			C28.5,42.9,27.4,44.1,25.9,44.1z M25.9,37.2c-1.4,0-2.6-1.2-2.6-2.6c0-1.4,1.2-2.6,2.6-2.6s2.6,1.2,2.6,2.6
			C28.5,36.1,27.4,37.2,25.9,37.2z M28.8,29.3c-1.6,1.4-4.1,1.4-5.7-0.1s-1.9-3.9-0.6-5.7s3.7-2.3,5.6-1.2c0.4,0.2,0.5,0.8,0.3,1.2
			c-0.2,0.4-0.7,0.5-1.1,0.3c-1.1-0.7-2.6-0.3-3.4,0.7c-0.8,1.1-0.6,2.5,0.3,3.4c1,0.9,2.5,0.9,3.4,0c0.2-0.2,0.6-0.3,0.8-0.2
			c0.3,0.1,0.5,0.3,0.6,0.6C29.1,28.8,29,29.1,28.8,29.3L28.8,29.3z M30.2,38.9c0-1.4,1.2-2.6,2.6-2.6c1.4,0,2.6,1.2,2.6,2.6
			c0,1.4-1.2,2.6-2.6,2.6C31.4,41.5,30.2,40.3,30.2,38.9z"/>
		<path class="st1" d="M43.1,52.1h-8.6c-0.6,0-1.2-0.5-1.2-1.2c0-0.6,0.5-1.2,1.2-1.2H37l-4.4-4.8c-4.6,1.7-9.6,1.6-14.1-0.2
			L14,49.8h2.5c0.6,0,1.2,0.5,1.2,1.2c0,0.6-0.5,1.2-1.2,1.2H7.9c-0.6,0-1.2-0.5-1.2-1.2c0-0.6,0.5-1.2,1.2-1.2h2.9l5.5-6.1
			c-9.2-5-13-16.3-8.7-25.8C12,8.1,23.2,3.5,33.1,7.3S48.3,22,45,32.2v0.2h-6.3c-0.3,0-0.6-0.1-0.8-0.3L32,26.2
			c-0.4-0.4-1-0.7-1.6-0.7l0,0H26c-0.3,0-0.5,0.2-0.5,0.5s0.2,0.5,0.5,0.5h4.4c0.3,0,0.6,0.1,0.8,0.3l5.9,5.9c0.4,0.4,1,0.7,1.6,0.7
			l0,0h5.9l-0.2,0.4c-1.9,4.4-5.2,7.9-9.4,10.1l5.2,5.8h2.9c0.6,0,1.2,0.5,1.2,1.2C44.3,51.6,43.7,52.1,43.1,52.1z M34.5,50.4
			c-0.3,0-0.5,0.2-0.5,0.5s0.2,0.5,0.5,0.5h8.6c0.3,0,0.5-0.2,0.5-0.5s-0.2-0.5-0.5-0.5h-3.2l-6-6.6l0.4-0.2c4.1-2,7.4-5.3,9.3-9.5
			h-5l0,0c-0.8,0-1.5-0.3-2-0.8l-5.9-5.9c-0.1-0.1-0.2-0.2-0.4-0.2h-4.4c-0.6,0-1.2-0.5-1.2-1.2c0-0.6,0.5-1.2,1.2-1.2h4.4l0,0
			c0.8,0,1.5,0.3,2,0.8l5.9,5.9c0.1,0.1,0.2,0.2,0.4,0.2h5.8c3-9.7-2.1-20.2-11.6-23.8C23.3,4.2,12.4,8.7,8.2,18.1S7.8,38.5,17,43.3
			l0.4,0.2l-6.2,6.9H7.9c-0.3,0-0.5,0.2-0.5,0.5s0.2,0.5,0.5,0.5h8.6c0.3,0,0.5-0.2,0.5-0.5s-0.2-0.5-0.5-0.5h-3.9l5.8-6.5l0.2,0.1
			c4.5,1.9,9.5,1.9,14.1,0.2l0.2-0.1l5.6,6.2L34.5,50.4L34.5,50.4z M25.9,44.4c-1.6,0-2.9-1.3-2.9-2.9c0-1.6,1.3-2.9,2.9-2.9
			s2.9,1.3,2.9,2.9C28.8,43.1,27.5,44.4,25.9,44.4z M25.9,39.2c-1.2,0-2.3,1-2.3,2.3c0,1.2,1,2.3,2.3,2.3c1.2,0,2.3-1,2.3-2.3
			C28.2,40.3,27.2,39.2,25.9,39.2z M32.8,41.8c-1.6,0-2.9-1.3-2.9-2.9c0-1.6,1.3-2.9,2.9-2.9c1.6,0,2.9,1.3,2.9,2.9
			S34.4,41.8,32.8,41.8z M32.8,36.7c-1.2,0-2.3,1-2.3,2.3s1,2.3,2.3,2.3c1.2,0,2.3-1,2.3-2.3S34,36.7,32.8,36.7z M19.1,41.8
			c-1.2,0-2.2-0.7-2.7-1.8c-0.4-1.1-0.2-2.3,0.6-3.1c0.8-0.8,2.1-1.1,3.1-0.6c1.1,0.4,1.8,1.5,1.8,2.7C22,40.5,20.7,41.8,19.1,41.8z
			 M19.1,36.7c-0.6,0-1.2,0.2-1.6,0.7C16.9,38,16.7,39,17,39.9c0.4,0.8,1.2,1.4,2.1,1.4c1.2,0,2.3-1,2.3-2.3c0-0.9-0.5-1.7-1.4-2.1
			C19.6,36.7,19.4,36.7,19.1,36.7z M25.9,37.5c-1.6,0-2.9-1.3-2.9-2.9c0-1.6,1.3-2.9,2.9-2.9s2.9,1.3,2.9,2.9
			C28.8,36.2,27.5,37.5,25.9,37.5z M25.9,32.4c-1.2,0-2.3,1-2.3,2.3c0,1.2,1,2.3,2.3,2.3c1.2,0,2.3-1,2.3-2.3
			C28.2,33.4,27.2,32.4,25.9,32.4z M13.1,36.7c-1.6,0-2.9-1.3-2.9-2.9c0-1.6,1.3-2.9,2.9-2.9s2.9,1.3,2.9,2.9
			C15.9,35.4,14.7,36.7,13.1,36.7z M13.1,31.5c-1.2,0-2.3,1-2.3,2.3c0,1.2,1,2.3,2.3,2.3c1.2,0,2.3-1,2.3-2.3
			C15.3,32.5,14.3,31.5,13.1,31.5z M19.9,35c-1.6,0-2.9-1.3-2.9-2.9c0-1.6,1.3-2.9,2.9-2.9s2.9,1.3,2.9,2.9
			C22.8,33.7,21.5,35,19.9,35z M19.9,29.8c-1.2,0-2.3,1-2.3,2.3c0,1.2,1,2.3,2.3,2.3c1.2,0,2.3-1,2.3-2.3
			C22.2,30.8,21.2,29.8,19.9,29.8z M25.9,30.7c-1.1,0-2.2-0.4-3.1-1.2c-1.7-1.6-2-4.2-0.6-6.1s4-2.4,6-1.3c0.5,0.3,0.7,1,0.4,1.6
			c-0.3,0.5-1,0.7-1.6,0.5c-1-0.6-2.3-0.3-3,0.6s-0.6,2.2,0.3,3s2.1,0.8,3,0c0.3-0.3,0.8-0.4,1.1-0.2c0.4,0.1,0.7,0.5,0.8,0.9
			c0.1,0.4-0.1,0.8-0.4,1.1l-0.1,0.1C28,30.3,27,30.7,25.9,30.7z M25.9,22.1c-1.2,0-2.4,0.6-3.2,1.6c-1.2,1.6-1,3.9,0.5,5.3
			s3.8,1.4,5.3,0.1l0.1-0.1c0.1-0.1,0.2-0.3,0.1-0.5c0-0.2-0.2-0.3-0.4-0.4c-0.2-0.1-0.4,0-0.5,0.1c-1.1,1-2.8,1-3.9,0
			s-1.3-2.6-0.4-3.8c0.9-1.2,2.5-1.5,3.8-0.8c0.2,0.1,0.6,0,0.7-0.2c0.1-0.3,0.1-0.6-0.2-0.7C27.3,22.2,26.6,22.1,25.9,22.1z
			 M15.6,26.4c-1.6,0-2.9-1.3-2.9-2.9s1.3-2.9,2.9-2.9s2.9,1.3,2.9,2.9S17.2,26.4,15.6,26.4z M15.6,21.2c-1.2,0-2.3,1-2.3,2.3
			s1,2.3,2.3,2.3c1.2,0,2.3-1,2.3-2.3S16.9,21.2,15.6,21.2z M37.1,21.2c-1.6,0-2.9-1.3-2.9-2.9s1.3-2.9,2.9-2.9
			c1.6,0,2.9,1.3,2.9,2.9C40,19.9,38.7,21.2,37.1,21.2z M37.1,16.1c-1.2,0-2.3,1-2.3,2.3c0,1.2,1,2.3,2.3,2.3c1.2,0,2.3-1,2.3-2.3
			C39.3,17.1,38.3,16.1,37.1,16.1z M25.1,16.9c-1.6,0-2.9-1.3-2.9-2.9s1.3-2.9,2.9-2.9S28,12.4,28,14S26.7,16.9,25.1,16.9z
			 M25.1,11.8c-1.2,0-2.3,1-2.3,2.3s1,2.3,2.3,2.3c1.2,0,2.3-1,2.3-2.3S26.3,11.8,25.1,11.8z"/>
	</g>
</g>
</svg>
