<?xml version="1.0" encoding="utf-8"?>
<!-- Generator: Adobe Illustrator 23.0.5, SVG Export Plug-In . SVG Version: 6.00 Build 0)  -->
<svg version="1.1" id="Layer_1" xmlns="http://www.w3.org/2000/svg" xmlns:xlink="http://www.w3.org/1999/xlink" x="0px" y="0px"
	 viewBox="0 0 52 52" style="enable-background:new 0 0 52 52;" xml:space="preserve">
<style type="text/css">
	.st0{fill:#7036FF;}
	.st1{fill:#3F3F3F;}
</style>
<g>
	<g>
		<path class="st0" d="M10.9,41.2c-6.7-10-2-17.7-2-17.7c-1.1-0.3-4.6,2-4.6,2C6.3,18.2,17.2,12,17.2,12c-1.2-0.4-4.6,0.4-4.6,0.4
			C21.5,3.8,32.5,7,32.5,7c0.3-1.9,5.8-5.2,5.8-5.2c-0.6,0.5-0.8,3.5-0.8,3.5c0.6-1,2.3-2,2.3-2c-1,2.3,0,7.3,0,7.3
			c2.9,2.9,6.1,12.8,6.1,12.8l1.2,1.8c1.5,2.2,1,5.7-0.6,6.5c-5.7,3.1-6.3-2.5-6.3-2.5c-4.8-0.6-8.3-5.9-8.3-5.9
			c-6.4,3.3-2.8,12.7-0.1,16.3c3.6,4.6,1,12.1,1,12.1S17.5,51,10.9,41.2z"/>
		<path class="st1" d="M33,52h-0.2c-0.2,0-15.5-0.8-22.2-10.6l0,0c-5.8-8.6-3.2-15.7-2.3-17.6C7.4,24,5.6,25,4.4,25.7l-0.7,0.5
			l0.2-0.8c1.7-6.2,9.6-11.6,12.3-13.2c-1.2,0-2.9,0.4-3.6,0.6L11.4,13l0.9-0.9c8.1-7.8,18-6,19.9-5.6c0.8-2,5.3-4.8,5.8-5.1L40.5,0
			l-2,2c-0.2,0.2-0.4,1.2-0.6,2.3c0.7-0.7,1.7-1.2,1.7-1.2l0.9-0.5l-0.4,0.9c-0.9,2-0.1,6.3,0,7c2.8,2.9,5.8,12,6.1,12.8l1.2,1.7
			c1.1,1.5,1.1,3.4,0.8,4.7c-0.3,1.1-0.8,1.9-1.5,2.3c-1.9,1-3.5,1.2-4.8,0.6c-1.4-0.8-1.9-2.5-2-3.1c-4.2-0.6-7.3-4.7-8.1-5.7
			c-1.6,0.9-2.6,2.3-3,4c-0.9,3.9,1.4,9.1,3.3,11.6c3.6,4.7,1.1,12.1,1,12.4L33,52z M8.7,23.1c0.1,0,0.2,0,0.3,0l0.4,0.1l-0.2,0.4
			c0,0.1-4.6,7.7,2,17.4l0,0c6,8.9,19.4,10.2,21.4,10.3c0.4-1.3,2.1-7.5-1-11.5c-1.8-2.4-4.4-7.8-3.4-12.1c0.5-2.1,1.7-3.6,3.6-4.6
			l0.3-0.1l0.2,0.2c0,0.1,3.5,5.2,8.1,5.7h0.3v0.3c0,0,0.2,2.1,1.7,2.9c1,0.5,2.4,0.3,4.1-0.6c0.5-0.3,0.9-1,1.2-1.9
			c0.3-1.1,0.2-2.8-0.7-4.2l-1.3-1.9c0-0.1-3.2-9.9-6-12.7l-0.1-0.1v-0.1c0-0.2-0.8-4.1-0.3-6.6c-0.7,0.5-1.3,1-1.6,1.5L37,6.8
			l0.1-1.5c0-0.4,0.1-1.7,0.4-2.7C35.7,3.8,33,5.8,32.8,7l-0.1,0.4l-0.4-0.1c-0.1,0-10.1-2.8-18.7,4.5c1.1-0.2,2.8-0.5,3.6-0.2
			l0.7,0.2l-0.6,0.4c-0.1,0.1-10,5.7-12.5,12.4C5.9,24,7.7,23.1,8.7,23.1z"/>
	</g>
</g>
</svg>
