<?xml version="1.0" encoding="utf-8"?>
<!-- Generator: Adobe Illustrator 23.0.5, SVG Export Plug-In . SVG Version: 6.00 Build 0)  -->
<svg version="1.1" id="Layer_1" xmlns="http://www.w3.org/2000/svg" xmlns:xlink="http://www.w3.org/1999/xlink" x="0px" y="0px"
	 viewBox="0 0 52 52" style="enable-background:new 0 0 52 52;" xml:space="preserve">
<style type="text/css">
	.st0{fill:#7036FF;}
	.st1{fill:#3F3F3F;}
	.st2{fill:#EFEDEE;}
</style>
<g>
	<g>
		<rect x="7.2" y="13.4" class="st0" width="11.3" height="11.3"/>
		<path class="st1" d="M18.8,25h-12V13.1h11.9L18.8,25L18.8,25z M7.5,24.4h10.6V13.8H7.5V24.4z"/>
	</g>
	<g>
		<path class="st2" d="M16,10.8H0.8v16.8H16c3.2,0,5.8-2.6,5.8-5.8v-5.2C21.8,13.4,19.2,10.8,16,10.8z M13.4,23.4
			c-2.3,0-4.2-1.9-4.2-4.2s1.9-4.2,4.2-4.2s4.2,1.9,4.2,4.2S15.7,23.4,13.4,23.4z"/>
		<path class="st1" d="M16,28H0.5V10.5H16c3.4,0,6.1,2.7,6.1,6.1v5.2C22.1,25.2,19.4,28,16,28z M1.2,27.3H16c3,0,5.4-2.4,5.4-5.4
			v-5.2c0-3-2.4-5.5-5.4-5.5H1.2V27.3z M13.4,23.7c-2.5,0-4.5-2-4.5-4.5s2-4.5,4.5-4.5s4.5,2,4.5,4.5S15.9,23.7,13.4,23.7z
			 M13.4,15.3c-2.1,0-3.9,1.7-3.9,3.9s1.7,3.9,3.9,3.9s3.9-1.7,3.9-3.9S15.5,15.3,13.4,15.3z"/>
	</g>
	<g>
		<path class="st0" d="M45.4,0.3H6.6c-3.2,0-5.8,2.6-5.8,5.8v2.6H16c4.4,0,7.9,3.5,7.9,7.9v5.2c0,4.4-3.5,7.9-7.9,7.9H0.8v2.6
			c0,3.2,2.6,5.8,5.8,5.8h19.5c0-0.3,0.1-0.6,0.3-0.9c0.6-1.3,1.9-2.2,3.3-2.2h2.7v-6.9c0-2.6,2.1-4.6,4.6-4.6h5.2l0,0
			c1.2,0,2.4,0.5,3.2,1.3c0.9,0.9,1.4,2.1,1.4,3.3V35h2.7c0.3,0,0.6,0,0.8,0.1c0.5-0.8,0.7-1.8,0.7-2.8V6.1
			C51.2,2.9,48.6,0.3,45.4,0.3z"/>
		<path class="st1" d="M26.4,38.4H6.6c-3.4,0-6.1-2.7-6.1-6.1v-2.9H16c4.2,0,7.6-3.4,7.6-7.6v-5.2c0-4.2-3.4-7.6-7.6-7.6H0.5V6.1
			C0.5,2.7,3.2,0,6.6,0h38.8c1.6,0,3.2,0.6,4.3,1.8c1.1,1.1,1.7,2.7,1.7,4.2v26.2c0,1.1-0.3,2.1-0.8,3l-0.1,0.2l-0.2-0.1
			c-0.2-0.1-0.5-0.1-0.7-0.1h-3v-7.3c0-1.2-0.4-2.3-1.3-3c-0.8-0.8-1.9-1.2-3-1.2H37c-2.4,0-4.3,1.9-4.3,4.3v7.3h-3
			c-1.3,0-2.5,0.8-3,2c-0.1,0.3-0.2,0.5-0.2,0.8L26.4,38.4z M1.2,30.1v2.2c0,3,2.4,5.4,5.4,5.4h19.3c0.1-0.2,0.1-0.5,0.2-0.7
			c0.6-1.4,2-2.3,3.6-2.3h2.4v-6.6c0-2.7,2.2-4.9,4.9-4.9h5.2c1.3,0,2.6,0.5,3.5,1.4s1.5,2.2,1.5,3.5v6.6h2.4c0.2,0,0.4,0,0.7,0.1
			c0.4-0.8,0.6-1.6,0.6-2.5V6.1c0-1.4-0.5-2.8-1.5-3.8S47,0.7,45.5,0.7H6.6c-3,0-5.4,2.4-5.4,5.4v2.3H16c4.5,0,8.2,3.7,8.2,8.2v5.2
			c0,4.5-3.7,8.2-8.2,8.2H1.2V30.1z"/>
	</g>
	<g>
		<path class="st2" d="M44.9,28.1V37h4.7c0.6,0,1.2,0.4,1.5,1s0.1,1.3-0.3,1.7l-10,10.5c-0.6,0.6-1.7,0.6-2.3,0l-10-10.5
			c-0.4-0.5-0.6-1.1-0.3-1.7c0.3-0.6,0.8-1,1.5-1h4.7v-8.9c0-1.5,1.2-2.6,2.6-2.6h5.2C43.7,25.5,44.9,26.7,44.9,28.1z"/>
		<path class="st1" d="M39.6,51c-0.5,0-1-0.2-1.4-0.6l-10-10.5c-0.5-0.6-0.7-1.4-0.4-2.1c0.3-0.7,1-1.2,1.8-1.2H34V28
			c0-1.6,1.3-2.9,2.9-2.9h5.2c1.7,0,3,1.3,3,2.9v8.6h4.4c0.8,0,1.4,0.4,1.8,1.2c0.3,0.7,0.2,1.5-0.4,2.1L41,50.4
			C40.7,50.8,40.2,51,39.6,51z M29.7,37.4c-0.5,0-0.9,0.3-1.2,0.8c-0.2,0.5-0.1,1,0.2,1.4l10,10.5c0.2,0.2,0.6,0.4,0.9,0.4
			c0.4,0,0.7-0.1,0.9-0.4l10-10.5c0.3-0.4,0.4-0.9,0.2-1.4s-0.7-0.8-1.2-0.8h-5v-9.2c0-1.3-1-2.3-2.3-2.3H37c-1.3,0-2.3,1-2.3,2.3
			v9.2H29.7z"/>
	</g>
</g>
</svg>
