<?xml version="1.0" encoding="utf-8"?>
<!-- Generator: Adobe Illustrator 23.0.2, SVG Export Plug-In . SVG Version: 6.00 Build 0)  -->
<svg version="1.1" id="Layer_1" xmlns="http://www.w3.org/2000/svg" xmlns:xlink="http://www.w3.org/1999/xlink" x="0px" y="0px"
	 viewBox="0 0 248.8 81" style="enable-background:new 0 0 248.8 81;" xml:space="preserve">
<style type="text/css">
	.st0{fill-rule:evenodd;clip-rule:evenodd;fill:#3B88C8;}
	.st1{fill-rule:evenodd;clip-rule:evenodd;fill:#FFFFFF;}
	.st2{fill-rule:evenodd;clip-rule:evenodd;fill:#7ABBE7;}
</style>
<g>
	<path class="st0" d="M34.7,5.3C23,6.4,13.5,12.6,7.7,22.2c-3.7,6.2-5.5,13.6-5,21.2C4,61.9,20,77.5,40.3,75.9
		C58.6,74.5,73.7,58,72.1,37.8c-0.6-7.4-3.1-13.5-7.3-19c-1.9-2.5-2.2-2.5-4.2-4.6c-2.4-2.5-7.5-5.4-10.8-6.7
		C45.5,5.8,39.9,4.8,34.7,5.3z"/>
	<path class="st0" d="M93,50.8c1,0.2,5,0.1,6.1,0c9.1-0.8,12.3-13.3,4.7-18.5c-1.3-0.9-2.7-1.6-4.5-1.8c-1-0.1-5.4-0.2-6.3,0
		L93,50.8z M98.8,58.6c4.6,0.3,10-3.3,11.9-5.3c6.6-7.1,6.8-17.5,0.1-24.9c-2.5-2.8-8.3-5.9-11.9-5.4l-13.3,0l0,35.6L98.8,58.6z"/>
	<path class="st1" d="M17.3,30.3c-0.4,1.3-0.2,15.6-0.2,18.2c0,2.9-0.6,3.8,3.9,5.3c11.9,4.1,23.6-9.7,35.4-2.9
		c0.5,0.3,1.2,1,1.4-0.1l0-18.4c0-2,0.2-2.6-1.1-3.5c-10.6-7.4-22,5.2-32.7,3.8C20,32.2,18.4,30.2,17.3,30.3z"/>
	<path class="st0" d="M223.1,43.2l15.1,0c0-3.3,0.4-6.5-1.1-9c-1.1-1.8-3.3-3.7-6.4-3.7c-3.2,0-5.3,1.8-6.5,3.7
		C222.7,36.6,223,40,223.1,43.2z M215.5,58.6l7.6,0l0-7.7l15,0l0,7.7l7.6,0c0-4.3,0-8.5,0-12.7c0-3.8,0.3-8.6-0.6-12
		c-1.6-5.8-7.2-11-14.5-11.1c-7.4,0-12.8,5.1-14.5,10.9c-1,3.4-0.7,8.3-0.7,12.1C215.5,50,215.4,54.3,215.5,58.6z"/>
	<path class="st0" d="M136.3,43.2l15.1,0c0-3.2,0.4-6.5-1.1-9c-2.7-4.6-9.6-5.3-12.9,0C136,36.6,136.3,40.1,136.3,43.2z M128.8,58.6
		l7.6,0c0-1.6-0.2-6.5,0.1-7.7l15,0l0.1,7.7l7.6,0c0-4.3,0-8.5,0-12.7c0-3.6,0.3-8.8-0.6-12c-4.3-14.6-24.5-14.8-29-0.1
		c-1,3.3-0.7,8.4-0.7,12.1C128.8,50,128.7,54.4,128.8,58.6z"/>
	<path class="st0" d="M172.3,36.8l-0.1,5.3c0,4.5-0.2,12.8,0,16.4l7.4,0c0.2-2.5-0.3-20.6,0.2-21.2c0-3.5,3.7-6.8,7.4-6.8
		c2.3,0,3.9,0.9,5.1,2c0.9,0.9,2.4,2.8,2.4,4.8c0.3,0.2,0.1,19.1,0.2,21.2l7.4,0l-0.1-21.6c0.2-1.7-0.8-4.3-1.5-5.6
		c-5.5-11.2-21.2-11.3-26.9-0.2C173.2,32.4,172.1,35.1,172.3,36.8z"/>
	<path class="st2" d="M98.8,58.6l-13.3,0l0-35.6l13.3,0c-0.2-0.3-5.8-0.1-6.6-0.1c-1.9,0-5-0.2-6.8,0c-0.2,0.6-0.2,34.9,0,35.8
		c1.2,0.2,9.8,0,12.5,0L98.8,58.6C98.7,58.6,98.7,58.6,98.8,58.6z"/>
	<path class="st2" d="M194.7,37.3c0.1,2.9-0.2,20.3,0.1,21.3l7.6,0c0.2-0.8,0.1-14.4,0.1-16.4c0-1,0.3-4.8-0.2-5.3l0.1,21.6l-7.4,0
		C194.8,56.4,195.1,37.5,194.7,37.3z"/>
	<path class="st2" d="M179.8,37.3c-0.5,0.6,0,18.7-0.2,21.2l-7.4,0c-0.2-3.6,0-11.9,0-16.4l0.1-5.3c-0.4,0.2-0.2,9.7-0.2,10.8
		c0,1.7-0.2,10,0.1,11l7.5,0L179.8,37.3z"/>
</g>
</svg>
