<?xml version="1.0" encoding="utf-8"?>
<!-- Generator: Adobe Illustrator 23.0.2, SVG Export Plug-In . SVG Version: 6.00 Build 0)  -->
<svg version="1.1" id="Layer_1" xmlns="http://www.w3.org/2000/svg" xmlns:xlink="http://www.w3.org/1999/xlink" x="0px" y="0px"
	 viewBox="0 0 150 52" style="enable-background:new 0 0 150 52;" xml:space="preserve">
<style type="text/css">
	.st0{fill:#FFFFFF;}
	.st1{fill:#26ACD8;}
</style>
<circle class="st0" cx="16.4" cy="25.7" r="12.4"/>
<g>
	<g>
		<path class="st0" d="M56.7,15.9L56.7,15.9l0.1-1.8h4.9v17.7c0,5.1-4.1,8.7-9.8,8.7c-3.8,0.2-7.4-1.4-9.8-4.3l3.6-3
			c1.4,2,3.7,3.1,6.1,3c2.8,0,4.9-1.8,4.9-4.3v-1.3h-0.1c-1.6,1.5-3.7,2.3-5.9,2.2c-3.4,0.1-6.7-1.7-8.4-4.6
			c-1.8-2.9-1.8-6.6-0.1-9.6c1.7-3,4.9-4.8,8.4-4.8C52.9,13.7,55,14.4,56.7,15.9L56.7,15.9z M98.3,13.7c5.2,0.1,9.4,4.3,9.5,9.6
			c0,5.2-4.2,9.5-9.4,9.6c-2.1,0-4.1-0.6-5.7-1.9h-0.1v9.1h-5.1V14.2h4.9v1.6h0.1C94,14.3,96.1,13.5,98.3,13.7z M133.3,14.2
			l5.5,11.9h0.1l5.5-11.9h5.6l-12.6,25.9h-5.6l4.3-8.7l-8.4-17.2H133.3L133.3,14.2z M74.4,13.7c5.9,0,10.3,4.2,10.3,9.6
			c0,5.4-4.3,9.6-10.3,9.6c-3.6,0.2-7-1.5-8.9-4.6c-1.9-3.1-1.9-6.9,0-10C67.4,15.2,70.8,13.4,74.4,13.7z M118.3,13.7
			c5.3,0,8.6,2.7,8.6,7.1v11.6h-4.6v-2h-0.1c-1.6,1.7-3.8,2.7-6.2,2.5c-4,0-6.8-2.2-6.8-5.4c0-3.4,2.3-5.1,8-5.9
			c3.3-0.4,4.3-0.9,4.3-1.9c0-1.2-1.3-1.9-3.2-1.9c-2.1-0.2-4,1.2-4.5,3.3l-4.8-1C109.8,16.3,113.6,13.7,118.3,13.7z M122.1,23.4
			L122.1,23.4c-0.5,0.7-1.5,1-4,1.5c-3,0.5-4.1,1.1-4.1,2.2c0,1.1,0.9,1.6,2.8,1.6c2.9,0,5.2-1.3,5.2-3.1V23.4z M74.4,18.1
			c-2.8,0-5.1,2.3-5.1,5.2c0,2.8,2.3,5.1,5.2,5.1c2.8,0,5.1-2.3,5.1-5.1c0.1-1.4-0.5-2.7-1.5-3.7C77.2,18.5,75.8,18,74.4,18.1z
			 M97.5,18.1c-2.7,0-5,1.9-5,3.9v2.3c0,2.2,2.2,4,5,4c2.8,0,5.1-2.3,5.1-5.1C102.6,20.4,100.3,18.1,97.5,18.1L97.5,18.1z
			 M51.6,18.3c-3.3,0-5.5,2-5.5,5C46,24.7,46.5,26,47.6,27c1,1,2.4,1.5,3.8,1.3c2.9,0,5.2-1.8,5.2-4v-2.1
			C56.5,20.2,54.2,18.3,51.6,18.3z"/>
		<path class="st1" d="M16.4,8.8C7.3,8.8,0,16.1,0,25.1c0,9,7.3,16.3,16.4,16.3c9,0,16.4-7.3,16.4-16.3C32.7,16.1,25.4,8.8,16.4,8.8
			z M25.5,30.2c-0.2,1.7-1.5,3.1-3.2,3.4c-3.8,0.5-7.6,0.5-11.4,0C9,33.3,7.6,31.8,7.2,30c-0.5-3.2-0.5-6.5,0-9.7
			c0.2-1.8,1.5-3.2,3.3-3.6c3.1-0.5,6.2-0.5,9.2,0c1.4,0.4,2.3,1.6,2.4,3H11.6c0,0-0.1,0-0.1,0c-0.4,0-0.7,0.3-0.6,0.7
			c0,0.4,0.3,0.7,0.7,0.6h10.7c1.9,0.1,3.5,1.6,3.6,3.6C26,26.5,25.8,28.3,25.5,30.2z"/>
		<path class="st1" d="M21.8,25.1c-0.6,0-1,0.5-1,1c0,0.3,0.1,0.6,0.3,0.8v0.6c0,0.4,0.3,0.7,0.7,0.7s0.7-0.3,0.7-0.7v-0.6
			c0.2-0.2,0.3-0.5,0.3-0.8C22.8,25.6,22.4,25.1,21.8,25.1z"/>
		<polygon class="st1" points="21.8,25.1 21.8,25.1 21.8,25.1 		"/>
	</g>
</g>
</svg>
