<?xml version="1.0" encoding="utf-8"?>
<!-- Generator: Adobe Illustrator 23.0.2, SVG Export Plug-In . SVG Version: 6.00 Build 0)  -->
<svg version="1.1" id="Layer_1" xmlns="http://www.w3.org/2000/svg" xmlns:xlink="http://www.w3.org/1999/xlink" x="0px" y="0px"
	 viewBox="0 0 62 52" style="enable-background:new 0 0 62 52;" xml:space="preserve">
<style type="text/css">
	.st0{fill:#E6262B;}
</style>
<g>
	<path id="Fill-4_1_" class="st0" d="M8.7,2h3.6c0.3,0,0.5,0.2,0.5,0.5l-1.7,11.7c-0.1,0.5,0.3,0.9,0.7,0.9h6.4
		c0.2,0,0.3,0.2,0.3,0.3l-0.5,3.4c0,0.2-0.2,0.3-0.4,0.3h-7.2c-2.2,0-4.2-1.8-3.9-3.9L8.3,2.4C8.3,2.1,8.5,2,8.7,2"/>
	<path id="Fill-6_1_" class="st0" d="M20.9,6.6l-1.7,11.9c0,0.2,0.1,0.4,0.3,0.4h3.5c0.3,0,0.5-0.2,0.5-0.4l1.7-11.7
		c0-0.3-0.2-0.5-0.5-0.5h-3.4C21.1,6.2,20.9,6.4,20.9,6.6"/>
	<path id="Fill-8_1_" class="st0" d="M28.2,18c-1.1,0-1.6,0.3-2.2,0.7c0.2-1.1,1.4-9.5,1.5-10c0.1-0.5,0.2-1.5,0.7-1.9
		c0.6-0.5,1.4-0.9,5.8-0.9c4.5,0,5.3,3.2,5.1,5.3c-0.2,1.8-0.9,6.2-1.1,7.4c0,0.2-0.2,0.3-0.4,0.3h-3.4c-0.3,0-0.4-0.2-0.4-0.5
		c0.2-1.2,0.6-4.5,0.8-5.5c0.2-1.2,0.4-2.5,0-3c-0.3-0.5-1.3-0.9-3.1-0.6l-1.3,9.4C30.2,18.9,29.3,18.1,28.2,18"/>
	<path id="Fill-10_1_" class="st0" d="M42.8,1.3h3.8c0.1,0,0.3,0.1,0.2,0.3l-2.4,17.2c0,0.1-0.1,0.2-0.3,0.2h-3.8
		c-0.2,0-0.3-0.1-0.3-0.3l2.4-17.2C42.5,1.4,42.6,1.3,42.8,1.3"/>
	<path id="Fill-12_1_" class="st0" d="M45.7,11.6l4.3-5c0.1-0.2,0.3-0.3,0.5-0.3h3.8c0.3,0,0.4,0.3,0.2,0.5l-4.4,4.9l4,8.7
		c0.1,0.3-0.1,0.7-0.4,0.7h-3.4c-0.2,0-0.3-0.1-0.4-0.3L45.7,11.6z"/>
	<path id="Fill-14_1_" class="st0" d="M25.9,3c-0.3,1.3-1.5,2.3-2.7,2.3c-1.2,0-2.2-1.1-1.9-2.4c0.3-1.3,1.3-2.4,2.8-2.4
		C25.4,0.6,26.3,1.7,25.9,3"/>
	<path id="Fill-16_1_" class="st0" d="M29.8,22c-0.3,1.3-1.5,2.3-2.7,2.3c-1.2,0-2.2-1.1-1.9-2.4c0.3-1.3,1.3-2.4,2.8-2.4
		C29.3,19.5,30.1,20.7,29.8,22"/>
	<path id="Fill-18_1_" class="st0" d="M48.3,37.5c-0.3,1.3-1.4,2.2-2.7,2.2c-1.3,0-2.3-1-2.1-2.3c0.3-1.3,1.3-2.3,2.8-2.3
		C47.6,35.1,48.6,36.2,48.3,37.5"/>
	<path id="Fill-20_1_" class="st0" d="M15.8,31.1h-2.3c-0.1,0-0.1-0.1-0.1-0.2l2-5.1c0-0.1,0.2-0.1,0.2,0l0.5,5
		C16,31,15.9,31.1,15.8,31.1 M21.4,37.5l-2.6-15.4c-0.1-0.7-0.7-1.2-1.4-1.2h-2.6c-0.8,0-1.5,0.5-1.8,1.2L6,37.5
		C5.9,37.8,6.1,38,6.3,38l3.6,0c0.2,0,0.5-0.1,0.6-0.4l1.2-2.8c0-0.1,0.1-0.1,0.2-0.1h4.4c0.1,0,0.2,0.1,0.2,0.2l0.3,2.7
		c0,0.3,0.3,0.5,0.6,0.5h3.5C21.2,38.1,21.4,37.8,21.4,37.5"/>
	<path id="Fill-22_1_" class="st0" d="M19.7,40.3l0.8,2.6c0.2,0.4,0.3,0.5,0.6,0.5c1.1-0.2,3.6-1,4.9-2.7c1.6-2.2,1.9-6.1,2.1-8
		c0.2-1.6,0.8-5.6,0.9-7c0-0.2-0.2-0.5-0.4-0.5h-3.2c-0.3,0-0.5,0.2-0.6,0.5c-0.3,1.9-1.2,8.8-1.4,9.8c-0.2,1.1-0.2,2.7-1.9,3.7
		c-0.8,0.5-1.2,0.6-1.6,0.7C19.8,39.9,19.6,40,19.7,40.3"/>
	<path id="Fill-24_1_" class="st0" d="M37.5,34.4c0,0-1.7,0.6-2.5,0c-0.8-0.6-0.9-1.9-0.4-3.6c0.5-1.8,1.7-2.1,2.2-2.1
		c0.5,0,1.5,0.2,1.5,0.2L37.5,34.4z M42.2,25.7c-1.1-0.3-2.9-0.9-5.9-0.7c-2.7,0.2-5.8,1.5-6.4,6.8c-0.6,5.4,1.9,6.4,5.4,6.6
		c2.6,0.1,4.6-0.6,5.5-1c0.3-0.1,0.5-0.4,0.6-0.8l1.3-10.3C42.8,25.9,42.6,25.8,42.2,25.7z"/>
	<path id="Fill-26_1_" class="st0" d="M44.7,33.4l1-9.9c0-0.4,0.3-0.5,0.7-0.5h3.3c0.3,0,0.4,0.2,0.4,0.6l-2,9.9
		c0,0.2-0.2,0.3-0.4,0.3h-2.5C44.9,33.8,44.7,33.6,44.7,33.4"/>
	<path id="Fill-28_1_" class="st0" d="M6.3,51.6c0.6,0.4,1.4,0.5,2.1,0.3c2.9-0.7,9.3-2.5,22.7-4.5C48.1,45,60.6,45,60.6,45l0,0
		c0,0-11.1-1.5-29.3,0.3S3,49.8,3,49.8L6.3,51.6z"/>
</g>
</svg>
