<?xml version="1.0" encoding="utf-8"?>
<!-- Generator: Adobe Illustrator 23.0.2, SVG Export Plug-In . SVG Version: 6.00 Build 0)  -->
<svg version="1.1" id="Layer_1" xmlns="http://www.w3.org/2000/svg" xmlns:xlink="http://www.w3.org/1999/xlink" x="0px" y="0px"
	 viewBox="0 0 62 52" style="enable-background:new 0 0 62 52;" xml:space="preserve">
<style type="text/css">
	.st0{fill-rule:evenodd;clip-rule:evenodd;fill:#FFFFFF;}
</style>
<path class="st0" d="M21,16h8l0,3.2l-2,0l4.7,11l4.6-11h-2V16l6.4,0l0,1.8l-7.7,17.9c-1.9,0-3.1-0.7-3.7-2.1l-6.3-14.5l-1.9,0L21,16
	L21,16z M10,15.4c5.5,0,10,4.5,10,10.1c0,5.6-4.5,10.1-10,10.1c-5.5,0-10-4.5-10-10.1C0,20,4.5,15.4,10,15.4L10,15.4z M10,18.7
	c-3.5,0-6.3,3.1-6.3,6.9c0,3.8,2.8,6.9,6.3,6.9s6.3-3.1,6.3-6.9C16.3,21.8,13.5,18.7,10,18.7L10,18.7z M52,15.4
	c5.5,0,10,4.5,10,10.1c0,5.6-4.5,10.1-10,10.1c-5.5,0-10-4.5-10-10.1C41.9,20,46.4,15.4,52,15.4L52,15.4z M51.9,18.7
	c-3.5,0-6.3,3.1-6.3,6.9c0,3.8,2.8,6.9,6.3,6.9c3.5,0,6.3-3.1,6.3-6.9C58.3,21.8,55.4,18.7,51.9,18.7z"/>
</svg>
