<?xml version="1.0" encoding="utf-8"?>
<!-- Generator: Adobe Illustrator 23.0.2, SVG Export Plug-In . SVG Version: 6.00 Build 0)  -->
<svg version="1.1" id="Layer_1" xmlns="http://www.w3.org/2000/svg" xmlns:xlink="http://www.w3.org/1999/xlink" x="0px" y="0px"
	 viewBox="0 0 52 52" style="enable-background:new 0 0 52 52;" xml:space="preserve">
<style type="text/css">
	.st0{fill:#FFFFFF;}
</style>
<g>
	<g>
		<g>
			<g>
				<polygon class="st0" points="51.9,29.9 46.5,29.9 46.5,49.7 5.5,49.7 5.5,29.9 0.1,29.9 0.1,31.9 3.4,31.9 3.4,51.8 48.6,51.8 
					48.6,31.9 51.9,31.9 				"/>
			</g>
			<g>
				<polygon class="st0" points="19.9,39.5 26,45.6 32.1,39.5 30.6,38.1 27,41.7 27,33.1 25,33.1 25,41.7 21.4,38.1 				"/>
			</g>
			<g>
				<polygon class="st0" points="10.1,39.8 10.1,45.2 15.4,45.2 15.4,43.1 12.1,43.1 12.1,39.8 				"/>
			</g>
			<g>
				<polygon class="st0" points="39.9,39.8 39.9,43.1 36.6,43.1 36.6,45.2 41.9,45.2 41.9,39.8 				"/>
			</g>
		</g>
	</g>
</g>
<g>
	<g>
		<g>
			<path class="st0" d="M18.3,9c0.8-0.1,2-0.2,3.3-0.2c1.6,0,2.7,0.2,3.5,0.8c0.6,0.5,1,1.3,1,2.3c0,1.4-1,2.3-1.9,2.7v0.1
				c0.8,0.3,1.2,1,1.4,2c0.3,1.2,0.7,2.6,0.9,3.1h-2.5c-0.2-0.3-0.4-1.2-0.8-2.5c-0.3-1.3-0.8-1.7-1.8-1.7h-0.7v4.3h-2.4L18.3,9
				L18.3,9z M20.7,13.7h1c1.2,0,1.9-0.6,1.9-1.6c0-1-0.7-1.5-1.8-1.5c-0.6,0-0.9,0.1-1.1,0.1L20.7,13.7L20.7,13.7z"/>
		</g>
	</g>
	<g>
		<g>
			<path class="st0" d="M27.9,14.5c0-1,0-1.9-0.1-2.6h2.1L30,13h0c0.6-0.8,1.5-1.3,2.6-1.3c1.7,0,3.3,1.5,3.3,4
				c0,2.9-1.8,4.2-3.6,4.2c-1,0-1.7-0.4-2-0.9h0v3.9h-2.4V14.5z M30.3,16.4c0,0.2,0,0.4,0.1,0.5c0.2,0.7,0.7,1.2,1.4,1.2
				c1.1,0,1.7-0.9,1.7-2.2c0-1.3-0.6-2.2-1.7-2.2c-0.7,0-1.3,0.5-1.5,1.2c0,0.1-0.1,0.3-0.1,0.4V16.4z"/>
		</g>
	</g>
</g>
<g>
	<path class="st0" d="M26.1,0c-8.8,0-16,7.2-16,16s7.2,16,16,16s16-7.2,16-16S34.9,0,26.1,0z M26.1,30.7c-8.1,0-14.7-6.6-14.7-14.7
		S18,1.2,26.1,1.2S40.8,7.8,40.8,16S34.2,30.7,26.1,30.7z"/>
</g>
<g>
	<path class="st0" d="M26,32.2C17.2,32.2,10,25,10,16.1C10,7.3,17.2,0.1,26,0.1c8.9,0,16.1,7.2,16.1,16.1C42.1,25,34.9,32.2,26,32.2
		z M26,1.5c-8.1,0-14.6,6.6-14.6,14.6S18,30.7,26,30.7c8.1,0,14.6-6.6,14.6-14.6S34.1,1.5,26,1.5z"/>
</g>
</svg>
