<?xml version="1.0" encoding="utf-8"?>
<!-- Generator: Adobe Illustrator 23.0.2, SVG Export Plug-In . SVG Version: 6.00 Build 0)  -->
<svg version="1.1" id="Layer_1" xmlns="http://www.w3.org/2000/svg" xmlns:xlink="http://www.w3.org/1999/xlink" x="0px" y="0px"
	 viewBox="0 0 52 52" style="enable-background:new 0 0 52 52;" xml:space="preserve">
<style type="text/css">
	.st0{fill:#FFFFFF;}
</style>
<g>
	<path class="st0" d="M43.2,48.5H8.8c-4.9,0-8.8-3-8.8-6.7v-9h2.1v9c0,2.5,3.1,4.6,6.7,4.6h34.4c3.6,0,6.7-2.1,6.7-4.6v-9H52v9
		C52,45.5,48,48.5,43.2,48.5z"/>
</g>
<g>
	<path class="st0" d="M31.6,31.1c0.7-1.2,0.1-2.2-1.2-2.2l-8.7-0.1c-1.4,0-1.9,1-1.3,2.2l4.3,7.6c0.7,1.2,1.8,1.2,2.5,0L31.6,31.1z"
		/>
</g>
<g>
	<rect x="24.9" y="3.4" class="st0" width="2.1" height="29.4"/>
</g>
</svg>
