<?xml version="1.0" encoding="utf-8"?>
<!-- Generator: Adobe Illustrator 23.0.2, SVG Export Plug-In . SVG Version: 6.00 Build 0)  -->
<svg version="1.1" id="Layer_1" xmlns="http://www.w3.org/2000/svg" xmlns:xlink="http://www.w3.org/1999/xlink" x="0px" y="0px"
	 viewBox="0 0 52 52" style="enable-background:new 0 0 52 52;" xml:space="preserve">
<style type="text/css">
	.st0{fill:#FFFFFF;}
</style>
<path class="st0" d="M26,0C11.7,0,0,11.7,0,26c0,14.3,11.7,26,26,26c4.6,0,9.1-1.2,13.1-3.5l-1.5-2.6c-3.5,2-7.4,3.1-11.5,3.1
	C13.3,49,3,38.7,3,26S13.3,3,26,3s23,10.3,23,23c0,4.1-1.1,8-3,11.5v-3.8h-3v9.1H52v-3h-3.9C50.6,35.7,52,30.9,52,26
	C52,11.7,40.3,0,26,0z"/>
<path class="st0" d="M26,9.2C16.7,9.2,9.1,16.8,9.1,26c0,9.3,7.6,16.9,16.9,16.9S42.9,35.3,42.9,26C42.9,16.8,35.3,9.2,26,9.2z
	 M26,39.8c-7.6,0-13.8-6.2-13.8-13.8c0-7.6,6.2-13.7,13.8-13.7S39.8,18.4,39.8,26C39.8,33.6,33.6,39.8,26,39.8z"/>
<path class="st0" d="M27.5,24.5v-9.1h-3v12.2h12.3v-3H27.5z"/>
</svg>
