<?xml version="1.0" encoding="utf-8"?>
<!-- Generator: Adobe Illustrator 23.0.2, SVG Export Plug-In . SVG Version: 6.00 Build 0)  -->
<svg version="1.1" id="Layer_1" xmlns="http://www.w3.org/2000/svg" xmlns:xlink="http://www.w3.org/1999/xlink" x="0px" y="0px"
	 viewBox="0 0 52 52" style="enable-background:new 0 0 52 52;" xml:space="preserve">
<style type="text/css">
	.st0{fill:#FFFFFF;}
</style>
<g>
	<path class="st0" d="M41.5,50.3H10.5c-0.6,0-1-0.4-1-1V29.3H1c-0.4,0-0.8-0.2-0.9-0.6S0,27.8,0.3,27.6l25-25c0.4-0.4,1-0.4,1.4,0
		l25,25c0.3,0.3,0.4,0.7,0.2,1.1c-0.2,0.4-0.5,0.6-0.9,0.6h-8.5l0,5.3v14.7C42.5,49.9,42,50.3,41.5,50.3z M11.5,48.3h28.9V34.6
		l0-6.3c0-0.6,0.4-1,1-1h7.1L26,4.7L3.4,27.2h7.1c0.3,0,0.5,0.1,0.7,0.3c0.2,0.2,0.3,0.4,0.3,0.7v1.3L11.5,48.3L11.5,48.3z"/>
</g>
<g>
	<path class="st0" d="M34,45.9h-2V33.9H19.9v12.1h-2V32.9c0-0.6,0.4-1,1-1H33c0.6,0,1,0.4,1,1V45.9z"/>
</g>
</svg>
