<?xml version="1.0" encoding="utf-8"?>
<!-- Generator: Adobe Illustrator 23.0.2, SVG Export Plug-In . SVG Version: 6.00 Build 0)  -->
<svg version="1.1" id="Layer_1" xmlns="http://www.w3.org/2000/svg" xmlns:xlink="http://www.w3.org/1999/xlink" x="0px" y="0px"
	 viewBox="0 0 52 52" style="enable-background:new 0 0 52 52;" xml:space="preserve">
<style type="text/css">
	.st0{fill:#FFFFFF;}
</style>
<g>
	<path class="st0" d="M46.5,46.8H5.5c-3,0-5.5-2.5-5.5-5.5V11.6C0,8.5,2.5,6,5.5,6h40.9c3,0,5.5,2.5,5.5,5.5v29.6
		C52,44.3,49.5,46.8,46.5,46.8z M5.5,8.2c-1.9,0-3.4,1.5-3.4,3.4v29.6c0,1.9,1.5,3.4,3.4,3.4h40.9c1.9,0,3.4-1.5,3.4-3.4V11.6
		c0-1.9-1.5-3.4-3.4-3.4H5.5z"/>
</g>
<g>
	
		<rect x="-0.4" y="34.7" transform="matrix(0.7071 -0.7071 0.7071 0.7071 -21.9197 18.597)" class="st0" width="23.8" height="2.1"/>
</g>
<g>
	
		<rect x="39.6" y="23.6" transform="matrix(0.7071 -0.7071 0.7071 0.7071 -13.2917 39.1981)" class="st0" width="2.1" height="24.1"/>
</g>
<g>
	<polygon class="st0" points="2.5,16.8 26,29.7 49.5,16.8 26,32.3 	"/>
</g>
</svg>
