<?xml version="1.0" encoding="utf-8"?>
<!-- Generator: Adobe Illustrator 23.0.2, SVG Export Plug-In . SVG Version: 6.00 Build 0)  -->
<svg version="1.1" id="Layer_1" xmlns="http://www.w3.org/2000/svg" xmlns:xlink="http://www.w3.org/1999/xlink" x="0px" y="0px"
	 viewBox="0 0 52 52" style="enable-background:new 0 0 52 52;" xml:space="preserve">
<style type="text/css">
	.st0{fill:#FFFFFF;}
</style>
<g>
	<g>
		<path class="st0" d="M26.3,0C12,0,0.4,11.6,0.4,25.9S12,51.8,26.3,51.8s25.9-11.6,25.9-25.9S40.6,0,26.3,0z M26.3,50.1
			c-13.4,0-24.2-10.9-24.2-24.2S12.9,1.7,26.3,1.7s24.2,10.9,24.2,24.2S39.7,50.1,26.3,50.1z"/>
	</g>
</g>
<g>
	<g>
		<path class="st0" d="M44.8,33.7c-0.4-0.2-0.9,0-1.1,0.4c-1.4,3-3.5,5.6-6.2,7.5c-0.4,0.3-0.5,0.8-0.2,1.2c0.2,0.2,0.4,0.3,0.7,0.3
			c0.2,0,0.3,0,0.5-0.1c2.9-2.1,5.2-4.9,6.7-8.1C45.4,34.3,45.2,33.9,44.8,33.7z"/>
	</g>
</g>
<g>
	<g>
		<path class="st0" d="M17.1,9.2c-6.4,0-11.7,5.2-11.7,11.7c0,6.4,5.2,11.7,11.7,11.7c6.4,0,11.7-5.2,11.7-11.7
			C28.8,14.4,23.5,9.2,17.1,9.2z M17.1,30.9c-5.5,0-10-4.5-10-10s4.5-10,10-10s10,4.5,10,10S22.6,30.9,17.1,30.9z"/>
	</g>
</g>
<g>
	<g>
		<path class="st0" d="M17,20L17,20c1.2-0.6,1.6-1.5,1.6-2.4c0-1.2-1-2.4-2.9-2.4c-1.7,0-3.1,1.1-3.1,2.6c0,0.9,0.5,1.7,1.6,2.2l0,0
			c-1.2,0.5-2,1.4-2,2.6c0,1.4,1.2,2.7,3.3,2.7c1.9,0,3.4-1.2,3.4-2.9C19,21.4,18.3,20.5,17,20z M14,17.8c0-0.9,0.6-1.6,1.7-1.6
			c1.2,0,1.7,0.8,1.7,1.6c0,0.9-0.7,1.5-1.5,1.8C14.7,19.3,14,18.8,14,17.8z M15.7,24.5c-1.3,0-2-0.9-2-1.9c0-1,0.6-1.7,1.8-2
			c1.3,0.4,2.2,1,2.2,2.2C17.7,23.7,16.9,24.5,15.7,24.5z"/>
	</g>
</g>
</svg>
