<?xml version="1.0" encoding="utf-8"?>
<!-- Generator: Adobe Illustrator 23.0.2, SVG Export Plug-In . SVG Version: 6.00 Build 0)  -->
<svg version="1.1" id="Layer_1" xmlns="http://www.w3.org/2000/svg" xmlns:xlink="http://www.w3.org/1999/xlink" x="0px" y="0px"
	 viewBox="0 0 52 52" style="enable-background:new 0 0 52 52;" xml:space="preserve">
<style type="text/css">
	.st0{fill-rule:evenodd;clip-rule:evenodd;fill:#FFFFFF;}
	.st1{fill:#FFFFFF;}
</style>
<g>
	<path class="st0" d="M34.4,15.6c-1.1-0.3-2.2-0.6-3.5-0.6c-0.5,0-1.1,0.1-1.6-0.1c-0.2-0.1-0.4-0.2-0.7-0.3
		c-0.7-0.3-1.5-0.5-2.4-0.5c1.6-0.4,3.7-0.2,5.2,0.1c0.8,0.2,1.5,0.4,2.2,0.6C34,15.1,34.3,15.2,34.4,15.6z"/>
	<path class="st0" d="M37.9,19.3c0.4,0.3,1.1,0.9,1.4,1.3c0.4,0.5,0.7,1.1,0.9,1.8c0.3,1,0.4,2.2,0.4,3.5c0,0.4,0.1,0.9-0.1,1.2
		c-0.1,0.3-0.4,0.6-0.7,0.8s-0.6,0.4-1,0.6c-0.2-0.2-0.2-0.4-0.2-0.7c-0.4-1.4-0.9-2.7-1.4-3.9c-0.1-0.2-0.2-0.4-0.3-0.6
		c0-0.3,0.2-0.7,0.3-0.9C37.6,21.4,37.8,20.5,37.9,19.3L37.9,19.3z"/>
	<path class="st0" d="M17.1,28.1c0.2,0.2,0.3,0.4,0.5,0.7c0.3,0.4,0.7,0.8,1.2,1.1c0.2,0.2,0.5,0.3,0.7,0.5c0.1,0.2,0.2,0.4,0.3,0.6
		c0.6,1.3,1.2,2.4,1.9,3.5c0.1,0.2,0.3,0.3,0.3,0.6c-0.2,0.1-0.6,0.2-0.8,0.1c-0.2-0.1-0.5-0.4-0.7-0.7c-1.1-1.2-2.1-2.5-2.8-4.2
		C17.4,29.7,17.1,28.9,17.1,28.1z"/>
	<path class="st0" d="M35.9,33.3c0.1,0.5-0.1,1-0.2,1.5c-0.1,0.4-0.3,0.9-0.6,1.2c-0.1,0.1-0.3,0.2-0.6,0.3
		c-0.6,0.3-1.1,0.6-1.7,0.8c-0.8,0.3-1.8,0.7-2.6,0.7c-0.6,0.1-1.3-0.2-1.8-0.3c-0.3-0.1-0.8-0.3-1.1-0.6c-0.1-0.1-0.3-0.2-0.3-0.2
		c0-0.1,0.4-0.3,0.4-0.4c1-0.7,1.7-1.4,2.5-2.3c0.1-0.1,0.3-0.3,0.4-0.4c0.3-0.1,0.9,0,1.3,0c1.4,0.1,2.7-0.2,3.9-0.3
		C35.7,33.3,35.8,33.3,35.9,33.3z"/>
	<path class="st0" d="M17.1,23.1c0.1-0.4,0.2-0.7,0.3-1.1c0.9-2.3,2.3-4.2,4-5.7h0.1c-0.8,0.7-1.3,1.4-1.8,2.4
		c-0.2,0.3-0.3,0.6-0.5,0.9C18.4,20.6,17.5,21.7,17.1,23.1z"/>
	<path class="st0" d="M27.5,18.5c0.2,0,0.3,0.1,0.4,0.2c0.3,0.2,0.6,0.6,0.8,0.8c0.9,0.9,1.6,1.8,2.5,2.9c0.2,0.2,0.4,0.4,0.4,0.7
		c0,0.3-0.3,0.6-0.4,0.8c-0.9,1.4-1.7,2.7-2.6,4.2c-0.1,0.2-0.3,0.6-0.6,0.6c-0.2,0.1-0.6-0.1-0.8-0.1c-1.5-0.3-3-0.7-4.5-1.2
		c-0.2-0.1-0.6-0.2-0.7-0.3c-0.2-0.2-0.2-1.1-0.2-1.4c-0.1-1.1-0.1-1.9-0.1-3.2c0-0.5,0-1.2,0.1-1.5c0.1-0.2,0.4-0.3,0.6-0.4
		c1.1-0.6,2.2-1.1,3.4-1.6C26.4,18.7,26.9,18.5,27.5,18.5C27.4,18.5,27.4,18.5,27.5,18.5z"/>
</g>
<path class="st1" d="M41.8,36.3c-3.2,3.9-7.8,6.1-12.8,6.1c-9.1,0-16.5-7.4-16.5-16.5c0-9.1,7.4-16.5,16.5-16.5
	c5,0,9.6,2.2,12.8,6.1l0.4,0.6L49,9.4l-1.8-1.8C42.3,2.7,35.8,0,28.9,0C14.6,0,3,11.6,3,25.9s11.6,25.9,25.9,25.9
	c6.9,0,13.4-2.7,18.3-7.5l1.8-1.8l-6.8-6.8L41.8,36.3z M40.6,7.9c-2.3-1.5-4.9-2.5-7.7-3.1l-0.2-0.1l0.6-2.5l0.1-0.6
	c3.2,0.6,6.3,1.8,9,3.6L40.6,7.9z M24.1,4.8c-2.8,0.6-5.4,1.7-7.8,3.3l-1.7-2.4c2.6-1.8,5.6-3.2,8.8-3.9L24.1,4.8z M10.4,14.1
	c-1.6,2.4-2.6,5-3.2,7.8l-2.7-0.4c0.6-3.2,1.8-6.2,3.5-8.9L10.4,14.1z M7.3,30.4c0.6,2.8,1.7,5.4,3.3,7.8l-2.3,1.6
	c-1.8-2.6-3-5.6-3.7-8.8L7.3,30.4z M16.7,44.1c2.4,1.6,5,2.6,7.8,3.2l-0.4,2.4L24,50.3c-3.2-0.7-6.2-1.9-8.9-3.7L16.7,44.1z
	 M33,47.2c2.8-0.6,5.4-1.7,7.8-3.3l1.8,2.6c-2.7,1.8-5.7,3-8.9,3.7L33,47.2z"/>
</svg>
