<?xml version="1.0" encoding="utf-8"?>
<!-- Generator: Adobe Illustrator 23.0.2, SVG Export Plug-In . SVG Version: 6.00 Build 0)  -->
<svg version="1.1" id="Layer_1" xmlns="http://www.w3.org/2000/svg" xmlns:xlink="http://www.w3.org/1999/xlink" x="0px" y="0px"
	 viewBox="0 0 52 52" style="enable-background:new 0 0 52 52;" xml:space="preserve">
<style type="text/css">
	.st0{fill:#FFFFFF;}
</style>
<path class="st0" d="M52,21.2c0-0.2-0.1-0.5-0.3-0.7l-4.4-4.4c-0.2-0.2-0.4-0.3-0.7-0.3s-0.5,0.1-0.7,0.3l-6.5,6.5V10.3
	c0-1.7-1.1-3.3-2.8-3.8l-0.4-0.1l-0.1-0.4C35.8,2,33.1,0,30.8,0c-1.6,0-3.1,0.9-4.2,2.4l-0.5,0.7l-0.5-0.7C24.5,0.9,23,0,21.4,0
	c-1.6,0-3.1,0.9-4.2,2.4l-0.5,0.7l-0.5-0.7C15.2,0.9,13.7,0,12.1,0C9.8,0,7.2,2,6.6,5.7L6.5,6.2H4.1C1.8,6.2,0,8.1,0,10.3v40.8
	C0,51.6,0.4,52,0.9,52h37.6c0.5,0,0.9-0.4,0.9-0.9V34l12.2-12.2C51.9,21.6,52,21.4,52,21.2z M27.2,5.5c0.5-2.2,1.9-3.6,3.5-3.6
	c1.6,0,3,1.4,3.5,3.6l0.2,0.8h-7.5L27.2,5.5z M17.9,5.5c0.5-2.2,1.9-3.6,3.5-3.6c1.6,0,3,1.4,3.5,3.6l0.2,0.8h-7.5L17.9,5.5z
	 M8.5,5.5c0.5-2.2,1.9-3.6,3.5-3.6s3,1.4,3.5,3.6l0.2,0.8H8.3L8.5,5.5z M1.9,10.3c0-1.2,1-2.2,2.2-2.2h2.4l0.1,0.5
	C6.8,10,7.3,11.2,8,12.2c1.1,1.4,2.5,2.2,4.1,2.2c0.5,0,0.9-0.4,0.9-0.9c0-0.5-0.4-0.9-0.9-0.9c-1.6,0-3-1.4-3.5-3.6L8.3,8.1h7.5
	l0.1,0.5c0.2,1.3,0.7,2.5,1.4,3.5c1.1,1.4,2.5,2.2,4.1,2.2c0.5,0,0.9-0.4,0.9-0.9c0-0.5-0.4-0.9-0.9-0.9c-1.6,0-3-1.4-3.5-3.6
	l-0.2-0.8h7.5l0.1,0.5c0.2,1.3,0.7,2.5,1.4,3.5c1.1,1.4,2.5,2.2,4.1,2.2c0.5,0,0.9-0.4,0.9-0.9c0-0.5-0.4-0.9-0.9-0.9
	c-1.6,0-3-1.4-3.5-3.6l-0.2-0.8h8.4c1.2,0,2.2,1,2.2,2.2v8.6H1.9L1.9,10.3L1.9,10.3z M37.6,50.1H1.9V20.8h35.8v3.6L26.8,35.3
	c-0.1,0.1-0.1,0.2-0.2,0.2l-4.2,8.3h-15c-0.5,0-0.9,0.4-0.9,0.9s0.4,0.9,0.9,0.9h15.4c0.1,0,0.6-0.1,0.7-0.1l1.1-0.6
	c2.7-1.3,7.6-3.8,7.7-3.8c0.1,0,0.2-0.1,0.2-0.2l5.2-5.2L37.6,50.1L37.6,50.1z M27.7,37.6l2.6,2.6l-5.1,2.6L27.7,37.6z M31.8,39.1
	L28.7,36l13.5-13.5l3.1,3.1L31.8,39.1z M46.7,24.2l-3.1-3.1l3.1-3.1l3.1,3.1L46.7,24.2z"/>
</svg>
