<?xml version="1.0" encoding="utf-8"?>
<!-- Generator: Adobe Illustrator 23.0.2, SVG Export Plug-In . SVG Version: 6.00 Build 0)  -->
<svg version="1.1" id="Layer_1" xmlns="http://www.w3.org/2000/svg" xmlns:xlink="http://www.w3.org/1999/xlink" x="0px" y="0px"
	 viewBox="0 0 52 52" style="enable-background:new 0 0 52 52;" xml:space="preserve">
<style type="text/css">
	.st0{fill:none;}
	.st1{fill:#FDC811;}
	.st2{fill:#FFFFFF;}
</style>
<g>
	<rect x="21.1" y="-0.2" class="st0" width="26.9" height="0.4"/>
	<path class="st0" d="M38.3,29.5l1.8,1.7L38.4,33h2.9l0.3-0.3l0.3,0.3h2.9L43,31.2l2.2-2.5l1,1v-5.4L45,25.7L43.3,24l2-2.2l0.9,0.9
		v-5.1l-1.1,1.2l-2-1.9l1.7-1.8l1.4,1.4v-6.2L44.8,12l-1.7-1.7L45.2,8l1.1,1.2V3.6l-1.1,1.1L43.7,3l1-1.1h-5l1,1.1l-2.3,2.5
		l-2.1-2.2l1.3-1.5h-5.7l1.4,1.5l-2.1,2.2l-1.9-1.8L31,1.8h-2.9l-0.3,0.4l-0.4-0.4h-2.9l2,1.9l-2,2.2l-1.7-1.6v2.8l0.3,0.3l-0.3,0.4
		V11l1.9-2l1.9,1.8l-2.3,2.5l-1.5-1.4v2.8l0.1,0.1l-0.1,0.1V17h1l0.7-0.8l0.8,0.8h5.5l1.1-1.2l1.6,1.6l-0.7,0.7v3.2l2.2-2.4l1.8,1.7
		l-2.3,2.5l-1.7-1.7v2.8l0.3,0.3L32.8,25v3.2l1.9-2.1l2,1.9l-3.9,4.2V33H35L38.3,29.5z M43.7,27.3l-2.2,2.5L39.7,28l2.3-2.5
		L43.7,27.3z M43.8,20.4l-2,2.2l-2-1.9l2-2.2L43.8,20.4z M43.4,13.6l-1.7,1.9l-1.8-1.7l1.8-2L43.4,13.6z M42.2,4.6l1.5,1.7l-2.2,2.4
		L40,7.1L42.2,4.6z M38.6,8.6l1.6,1.6l-1.9,2l-1.6-1.6L38.6,8.6z M34.9,4.9L37,7.1l-1.9,2.1l-2.2-2.1L34.9,4.9z M26,7.5l2-2.2
		l1.9,1.8l-2,2.2L26,7.5z M28,16.9l-2.2-2.1l2.3-2.5l2.2,2.1L28,16.9z M31.7,12.9l-2.2-2.1l2-2.2l2.2,2.1L31.7,12.9z M34.9,16
		l-1.6-1.6l2-2.2l1.6,1.6L34.9,16z M36.5,17.5l2-2.2l1.8,1.7l-2,2.2L36.5,17.5z M36.1,24.6l2.3-2.5l2,1.9l-2.3,2.5L36.1,24.6z"/>
	<polygon class="st1" points="31.9,15.9 30.8,17.1 32.8,17.1 32.8,18.2 33.5,17.5 	"/>
	<polygon class="st2" points="21.1,17.1 22.7,17.1 22.7,14.9 22.9,14.8 22.7,14.6 22.7,11.8 24.3,13.3 26.5,10.8 24.6,9 22.7,11 
		22.7,7.8 23.1,7.5 22.7,7.2 22.7,4.3 24.4,6 26.5,3.8 24.5,1.9 27.4,1.9 27.8,2.3 28.2,1.9 31.1,1.9 29.4,3.8 31.3,5.6 33.4,3.4 
		31.9,1.9 37.7,1.9 36.3,3.4 38.5,5.5 40.8,3 39.7,1.9 44.8,1.9 43.7,3 45.3,4.7 46.3,3.6 46.3,9.1 45.2,8 43.1,10.3 44.8,12 
		46.3,10.4 46.3,16.6 44.9,15.1 43.2,17 45.2,18.9 46.3,17.7 46.3,22.8 45.4,21.9 43.3,24.1 45.1,25.8 46.3,24.4 46.3,29.8 
		45.3,28.8 43,31.2 44.9,33.1 42,33.1 41.7,32.7 41.4,33.1 38.4,33.1 40.1,31.2 38.3,29.5 35.1,33.1 32.8,33.1 32.8,34.7 48,34.7 
		48,17.1 48,16.6 48,0.2 21.1,0.2 	"/>
	<polygon class="st1" points="32.8,24.3 32.8,25 33.2,24.6 	"/>
	<g>
		<polygon class="st2" points="31.5,8.6 29.5,10.8 31.7,12.9 33.7,10.7 		"/>
		<polygon class="st2" points="35.3,12.2 33.2,14.4 34.9,16 36.9,13.8 		"/>
		<polygon class="st2" points="39.7,28 41.5,29.7 43.7,27.3 42,25.6 		"/>
		<polygon class="st2" points="37,7.1 34.9,4.9 32.9,7.1 35.1,9.2 		"/>
		<polygon class="st2" points="40.3,17 38.5,15.3 36.5,17.5 38.2,19.2 		"/>
		<polygon class="st2" points="43.8,20.4 41.8,18.5 39.8,20.7 41.8,22.6 		"/>
		<polygon class="st2" points="43.4,13.6 41.7,11.8 39.9,13.8 41.6,15.5 		"/>
		<polygon class="st2" points="38.3,12.3 40.2,10.3 38.6,8.6 36.7,10.7 		"/>
		<polygon class="st2" points="38.4,22.2 36.1,24.6 38.1,26.5 40.4,24.1 		"/>
		<polygon class="st2" points="32.8,21.5 34.6,23.1 36.8,20.7 35.1,19 32.8,21.4 		"/>
		<polygon class="st2" points="43.8,6.3 42.2,4.6 40,7.1 41.6,8.7 		"/>
		<polygon class="st2" points="25.8,14.8 28,16.9 30.3,14.4 28.1,12.3 		"/>
		<polygon class="st2" points="29.9,7.1 28,5.3 26,7.5 27.9,9.3 		"/>
		<polygon class="st2" points="32.8,28.2 32.8,32.3 36.7,28 34.8,26.1 		"/>
	</g>
	<polygon class="st1" points="23.7,17.1 25.3,17.1 24.4,16.3 	"/>
</g>
<g>
	<g>
		<path class="st2" d="M34.5,52H5.1V15h29.5L34.5,52L34.5,52z M7.6,49.5H32v-32H7.6V49.5z"/>
	</g>
	<path class="st2" d="M27.3,31.4L27.3,31.4c0,0-1.2-2.1-2.9-2.1c-1.7,0-2.5,0.4-2.5,0.4s0-3.3,3.7-4.2c0.2,0.2,0.6,0.4,0.9,0.4
		c0.7,0,1.3-0.6,1.3-1.3c0-0.7-0.6-1.3-1.3-1.3c-0.5,0-1,0.3-1.2,0.8c-1.4,0-6.5,0.4-7.2,5.5h-0.8c0,0-2.5-3.4-4.2-1.3
		s-1.3,2.1-1.3,2.1c-0.7,0-1.3,0.6-1.3,1.3c0,0.7,0.6,1.3,1.3,1.3s1.3-0.6,1.3-1.3c0-0.3-0.1-0.6-0.3-0.8c0.2-0.5,0.6-1.2,1.1-0.9
		c0.8,0.4,2.1,0.4,2.1,2.5s0,2.5,0,2.5h7.2v-3.4c0,0,0-0.8,0.8-0.8s2.1,1.3,2.1,1.3l0,0c0,0.1,0,0.1,0,0.2c0,0.6,0.5,1.1,1.1,1.1
		s1.1-0.5,1.1-1.1C28.2,31.9,27.8,31.5,27.3,31.4z"/>
	<g>
		<path class="st2" d="M14.9,40v3c0,0.4,0,0.7,0,0.9c0,0.1-0.1,0.2-0.1,0.3c-0.1,0.1-0.2,0.2-0.3,0.2s-0.3,0.1-0.6,0.1h-0.6v-0.8
			c0.1,0,0.1,0,0.2,0c0.1,0,0.1,0,0.2-0.1l0.1-0.1c0-0.1,0-0.2,0-0.3V40H14.9z"/>
		<path class="st2" d="M18,42.6c0,0.4,0,0.8,0,0.9c0,0.2-0.1,0.4-0.2,0.5c-0.1,0.2-0.3,0.3-0.4,0.4s-0.4,0.1-0.7,0.1
			c-0.2,0-0.4,0-0.6-0.1c-0.2-0.1-0.3-0.2-0.5-0.3c-0.1-0.2-0.2-0.3-0.2-0.5s0-0.5,0-1v-0.8c0-0.4,0-0.8,0-0.9
			c0-0.2,0.1-0.4,0.2-0.5c0.1-0.2,0.3-0.3,0.4-0.4c0.2-0.1,0.4-0.1,0.7-0.1c0.2,0,0.4,0,0.6,0.1s0.3,0.2,0.5,0.3
			c0.1,0.2,0.2,0.3,0.2,0.5s0,0.5,0,1V42.6z M16.8,41.1c0-0.2,0-0.3,0-0.4c0-0.1-0.1-0.1-0.1-0.1c-0.1,0-0.1,0-0.1,0.1s0,0.2,0,0.4
			v2.1c0,0.3,0,0.4,0,0.5s0.1,0.1,0.1,0.1c0.1,0,0.1,0,0.2-0.1s0-0.2,0-0.5v-2.1H16.8z"/>
		<path class="st2" d="M21.2,40l-0.7,2l0.7,2.4H20l-0.5-1.9v1.9h-1.2V40h1.2v1.7L20,40H21.2z"/>
		<path class="st2" d="M21.4,40h1.9v0.9h-0.8v0.8h0.7v0.8h-0.7v1h0.8v0.9h-2V40H21.4z"/>
		<path class="st2" d="M23.7,40h0.8c0.5,0,0.9,0,1.1,0.1c0.2,0,0.3,0.1,0.5,0.3c0.1,0.2,0.2,0.4,0.2,0.8c0,0.3,0,0.6-0.1,0.7
			c-0.1,0.1-0.3,0.2-0.5,0.2c0.2,0.1,0.4,0.1,0.5,0.2c0.1,0.1,0.1,0.2,0.1,0.3s0,0.3,0,0.7v1.2h-1.1V43c0-0.2,0-0.4-0.1-0.4
			c0-0.1-0.1-0.1-0.3-0.1v2h-1.2V40H23.7z M24.9,40.7v1c0.1,0,0.2,0,0.3-0.1c0.1,0,0.1-0.2,0.1-0.3v-0.2c0-0.1,0-0.2-0.1-0.3
			C25.1,40.8,25,40.7,24.9,40.7z"/>
	</g>
	<path class="st2" d="M16,35.6c0,0,0,2.5,1.7,2.5s1.7-1.7,1.7-1.7h0.4c0,0,0,1.7,1.7,1.7s1.7-2.5,1.7-2.5H16z M17.7,36.8
		c-0.8,0-0.8-0.4-0.8-0.4h1.7C18.5,36.4,18.5,36.8,17.7,36.8z M21.5,36.8c-0.8,0-0.8-0.4-0.8-0.4h1.7C22.3,36.4,22.3,36.8,21.5,36.8
		z"/>
</g>
</svg>
