<?xml version="1.0" encoding="utf-8"?>
<!-- Generator: Adobe Illustrator 23.0.2, SVG Export Plug-In . SVG Version: 6.00 Build 0)  -->
<svg version="1.1" id="Layer_1" xmlns="http://www.w3.org/2000/svg" xmlns:xlink="http://www.w3.org/1999/xlink" x="0px" y="0px"
	 viewBox="0 0 52 52" style="enable-background:new 0 0 52 52;" xml:space="preserve">
<style type="text/css">
	.st0{fill:#FFFFFF;}
</style>
<path class="st0" d="M47.5,42.6c0-0.6-0.2-1.5-0.7-2c-0.1-0.1-0.2-0.2-0.4-0.3c-0.8-0.6-1.5-1.3-2-2.2c-1.2-2.3-3.3-7.3-3.3-14.6
	c0-3.9-1.6-7.8-4.5-10.8c-2.1-2.2-4.7-3.7-7.5-4.4c1.9-1.7,2.2-4.7,0.5-6.6c-1.7-2-4.7-2.2-6.6-0.5s-2.2,4.7-0.5,6.6
	c0.1,0.2,0.3,0.3,0.5,0.5c-2.8,0.7-5.4,2.2-7.5,4.4c-2.8,3-4.5,6.9-4.5,10.8c0,7.7-2.2,12.7-3.6,15c-0.4,0.7-1,1.3-1.7,1.8
	c-0.1,0.1-0.2,0.2-0.3,0.3c-0.5,0.5-0.8,1.3-0.8,2.1c0,1.6,1.3,2.9,2.9,2.9h13.5c-0.1,0.4-0.1,0.8-0.2,1.3c0,2.9,2.4,5.3,5.3,5.3
	s5.3-2.4,5.3-5.3l0,0c0-0.4-0.1-0.9-0.2-1.3h13.5C46.2,45.5,47.5,44.2,47.5,42.6z M26,1.5c1.7,0,3.2,1.4,3.2,3.2S27.8,7.9,26,7.9
	c-1.7,0-3.2-1.4-3.2-3.2v0C22.8,2.9,24.3,1.5,26,1.5z M6.1,42.6c0-0.4,0.1-0.7,0.4-1c0,0,0.1-0.1,0.1-0.1c0.8-0.6,1.6-1.4,2.1-2.2
	c1.4-2.4,3.8-7.7,3.8-15.8c0-3.5,1.5-7,4.1-9.7c2.6-2.7,6.1-4.3,9.5-4.3s6.9,1.6,9.5,4.3c2.6,2.7,4.1,6.3,4.1,9.7
	c0,7.6,2.2,12.8,3.4,15.3c0.6,1.1,1.5,2.1,2.5,2.8c0.1,0,0.1,0.1,0.2,0.1c0.2,0.2,0.3,0.6,0.3,1c0,0.7-0.6,1.4-1.3,1.4H7.4
	C6.7,43.9,6.1,43.3,6.1,42.6z M29.7,46.7c0,2.1-1.7,3.7-3.7,3.7c-2.1,0-3.7-1.7-3.7-3.7c0-0.4,0.1-0.8,0.2-1.2h7
	C29.7,45.9,29.7,46.3,29.7,46.7z"/>
</svg>
