<?xml version="1.0" encoding="utf-8"?>
<!-- Generator: Adobe Illustrator 23.0.2, SVG Export Plug-In . SVG Version: 6.00 Build 0)  -->
<svg version="1.1" id="Layer_1" xmlns="http://www.w3.org/2000/svg" xmlns:xlink="http://www.w3.org/1999/xlink" x="0px" y="0px"
	 viewBox="0 0 52 52" style="enable-background:new 0 0 52 52;" xml:space="preserve">
<style type="text/css">
	.st0{fill:#FFFFFF;}
</style>
<path class="st0" d="M26.4,0.2C26.3,0.1,26.2,0,26,0l0,0c-0.2,0-0.3,0.1-0.5,0.2l-19,19.1C1,24.9,1,33.8,6.5,39.3
	c4.8,4.8,12.3,5.5,17.9,1.7l-4.3,10.1c-0.1,0.3,0,0.7,0.4,0.9c0.2,0.1,0.3,0.1,0.5,0c3.2-1.3,6.7-1.3,9.9,0c0.3,0.1,0.7,0,0.9-0.4
	c0.1-0.2,0.1-0.3,0-0.5l-4.4-10.3c5.6,3.9,13.2,3.2,18-1.6c5.5-5.5,5.5-14.4,0-19.9L26.4,0.2z M22,50.2l4-9.5l4,9.5
	C27.4,49.5,24.6,49.5,22,50.2z M44.5,38.2c-4.9,4.9-12.9,5-17.9,0.1c-0.1-0.1-0.3-0.2-0.4-0.2H26c-0.2,0-0.4,0.1-0.5,0.2
	c-5,5-13.1,5-18.1,0s-5-13.1,0-18.1c0,0,0,0,0,0L26,1.6l18.5,18.5C49.5,25.1,49.5,33.2,44.5,38.2L44.5,38.2z"/>
</svg>
