<?xml version="1.0" encoding="utf-8"?>
<!-- Generator: Adobe Illustrator 23.0.2, SVG Export Plug-In . SVG Version: 6.00 Build 0)  -->
<svg version="1.1" id="Layer_1" xmlns="http://www.w3.org/2000/svg" xmlns:xlink="http://www.w3.org/1999/xlink" x="0px" y="0px"
	 viewBox="0 0 52 52" style="enable-background:new 0 0 52 52;" xml:space="preserve">
<style type="text/css">
	.st0{fill:#FFFFFF;}
</style>
<g>
	<path class="st0" d="M27.4,51.8L27.4,51.8c-0.6,0-1.2,0-1.7,0c-0.4,0-0.8,0-1.2,0c-5.4,0-11.6-1.4-14.8-2.2c-3.1-0.7-5.8-1.6-8-2.5
		c-0.2-0.1-0.4-0.3-0.5-0.5c-0.2-0.4-0.9-2.8,3.1-8.6c0,0,0,0,0,0c0-0.1,1-1.4,3.2-2.4c0.1-0.1,0.2-0.2,0.3-0.2l9.8-4.7
		c0-0.1,0.1-0.3,0.1-0.4c0.1-0.4,0.2-0.8,0.3-1.1c0,0,0-0.1,0-0.1c-0.9-1.3-1.6-2.8-2.1-4.3c-0.4-0.3-0.9-1-1.2-2.2
		c-0.4-1.3-0.7-3.1,0-4c0.1-0.2,0.3-0.3,0.4-0.4c-1.2-6-0.5-8.4-0.3-8.8c1.5-4.8,6.6-7.1,7-7.3c2.1-1,4.7-1.9,4.8-1.9
		C26.8,0,27.2,0,27.5,0.2c0.3,0.2,0.4,0.5,0.4,0.8c0,0.4,0.7,1.1,1.2,1.4c0.1,0,0.1,0.1,0.1,0.1C29.4,2.7,30,3,30.3,3.1
		c0.2,0.1,0.4,0.2,0.5,0.3c3.4,1,5,2.9,5.2,3.3c3.3,3.8,1.7,9.5,1.2,11.2c0.1,0.1,0.2,0.3,0.3,0.4c0.5,0.9,0.4,2.1-0.1,3.6
		c-0.1,0.4-0.6,2.3-1.5,3.4c-0.5,1.3-1.2,2.6-2,3.8c0,0.2,0.1,0.3,0.2,0.7l0,0.1c0.1,0.3,0.2,0.6,0.3,0.8l7,3.9
		c2.4,1,5.8,2.8,6.6,3.5c0.8,0.7,3.3,5.6,3.1,8c-0.1,1-0.5,1.4-0.9,1.7c0,0-0.1,0.1-0.1,0.1c-0.3,0.1-8,3.4-19.3,4
		C29.6,51.7,28.5,51.8,27.4,51.8z M25.7,49.7C25.7,49.7,25.7,49.7,25.7,49.7c0.6,0,1.2,0,1.7,0l0,0c1,0,2.1,0,3.3-0.1h0
		c9.9-0.5,17-3.2,18.4-3.7c0.2-1.2-1.7-5.5-2.4-6.3c-0.6-0.5-3.8-2.2-6.1-3.2c0,0-0.1,0-0.1,0l-7.3-4.1c-0.1-0.1-0.2-0.2-0.3-0.3
		c-0.1-0.1-0.2-0.2-0.3-0.4c-0.1-0.1-0.2-0.6-0.4-1.2l0,0c-0.2-0.6-0.3-1-0.3-1.7c0-0.2,0.1-0.4,0.2-0.6c0.8-1.1,1.5-2.4,2-3.7
		c0-0.1,0.1-0.3,0.2-0.4c0.5-0.5,0.9-1.8,1.1-2.6c0,0,0-0.1,0-0.1c0.2-0.6,0.3-1,0.3-1.3c-0.5-0.1-0.9-0.5-0.9-1.1
		c0-0.1,0-0.2,0-0.3c0-0.1,0-0.1,0-0.2L35,18l0,0v0l0.1-0.3c0,0,0-0.1,0-0.1c0-0.1,2.3-6.2-0.7-9.5c0,0,0,0-0.1-0.1
		c0,0-1.3-1.7-4.3-2.6c-0.1,0-0.2-0.1-0.3-0.1c-0.1,0-0.3-0.1-0.4-0.2c-0.8-0.4-1.2-0.6-1.4-0.8c-0.3-0.2-1.2-0.8-1.7-1.7
		c-0.9,0.3-2.4,0.9-3.6,1.5c0,0,0,0,0,0c0,0-4.6,2.1-5.9,6c0,0,0,0,0,0.1c-0.1,0.2-0.7,2.4,0.5,8.3c0,0.1,0,0.1,0,0.2l0,0.6
		c0,0.4-0.2,0.7-0.5,0.9c-0.1,0.1-0.3,0.1-0.5,0.1c0,0.5,0.1,1.2,0.3,1.9c0,0,0,0.1,0,0.1c0.1,0.8,0.5,1,0.5,1
		c0.3,0.1,0.5,0.4,0.5,0.6c0.4,1.5,1.2,3.1,2.2,4.4c0.2,0.3,0.2,0.7,0.1,1c-0.1,0.2-0.3,1-0.4,1.5c-0.1,0.2-0.1,0.5-0.2,0.6
		c-0.1,0.3-0.2,0.8-0.7,1L8.9,37c-0.1,0.1-0.2,0.2-0.3,0.2C6.8,38,6,39,5.9,39.1c-2.4,3.6-2.8,5.6-2.8,6.3c1.9,0.8,4.3,1.5,7.1,2.2
		h0c3.1,0.8,9.2,2.1,14.3,2.1C24.9,49.8,25.3,49.8,25.7,49.7C25.6,49.7,25.6,49.7,25.7,49.7z M18.3,30.2c-0.2,0-0.3,0-0.5,0.1l0,0
		C18,30.3,18.2,30.2,18.3,30.2C18.3,30.2,18.3,30.2,18.3,30.2z M19,29.8c0.5,0,0.8-0.3,0.9-0.6c0,0,0,0,0,0.1
		C19.7,29.6,19.3,29.8,19,29.8L19,29.8z"/>
</g>
</svg>
