<?xml version="1.0" encoding="utf-8"?>
<!-- Generator: Adobe Illustrator 23.0.2, SVG Export Plug-In . SVG Version: 6.00 Build 0)  -->
<svg version="1.1" id="Layer_1" xmlns="http://www.w3.org/2000/svg" xmlns:xlink="http://www.w3.org/1999/xlink" x="0px" y="0px"
	 viewBox="0 0 52 52" style="enable-background:new 0 0 52 52;" xml:space="preserve">
<style type="text/css">
	.st0{fill:#FFFFFF;}
</style>
<g>
	<path class="st0" d="M23.9,6.6c-0.7-1-1.8-1.5-2.9-1.5c-1.2,0-2.3,0.7-3,1.9L0.8,35.7c-1.2,2-1.1,5.1,0.4,7l1.5,2
		C3.7,46.1,5.7,47,7.7,47c0.5,0,1-0.1,1.5-0.2l3-0.9l0.9,1.7c0.8,1.5,2.6,2.5,4.6,2.5c0.5,0,0.9,0,1.3-0.2l10.9-2.7
		c1.2-0.3,2.2-1.1,2.7-2.2c0.5-1.1,0.4-2.3-0.2-3.5l-0.7-1.3l9.6-2.8c1.3-0.4,2.2-1.2,2.5-2.3s0.1-2.3-0.7-3.3L23.9,6.6z M30.1,42.8
		c0.2,0.4,0.3,0.8,0.1,1.1c-0.1,0.3-0.5,0.6-0.9,0.7l-10.9,2.7c-1.3,0.3-2.6-0.2-3-0.9l-0.6-1.2L29.1,41L30.1,42.8z M41.4,34.4
		c-0.1,0.2-0.4,0.5-0.8,0.6L8.5,44.3c-0.2,0.1-0.5,0.1-0.8,0.1c-1.1,0-2.4-0.6-3-1.3l-1.5-2c-0.8-1-0.9-2.9-0.2-4L20.3,8.3
		c0.2-0.4,0.5-0.6,0.7-0.6c0.2,0,0.5,0.2,0.7,0.5l19.3,25.2C41.3,33.8,41.4,34.1,41.4,34.4z"/>
	<rect x="28" y="5" transform="matrix(0.3891 -0.9212 0.9212 0.3891 14.4403 34.3208)" class="st0" width="10.2" height="2.6"/>
	<rect x="36" y="11.9" transform="matrix(0.7997 -0.6004 0.6004 0.7997 0.6958 28.4841)" class="st0" width="14.1" height="2.6"/>
	<rect x="42.2" y="22.3" transform="matrix(0.9829 -0.1841 0.1841 0.9829 -3.5457 9.0588)" class="st0" width="9.7" height="2.6"/>
</g>
</svg>
