<?xml version="1.0" encoding="utf-8"?>
<!-- Generator: Adobe Illustrator 23.0.2, SVG Export Plug-In . SVG Version: 6.00 Build 0)  -->
<svg version="1.1" id="Layer_1" xmlns="http://www.w3.org/2000/svg" xmlns:xlink="http://www.w3.org/1999/xlink" x="0px" y="0px"
	 viewBox="0 0 52 52" style="enable-background:new 0 0 52 52;" xml:space="preserve">
<style type="text/css">
	.st0{fill:#FFFFFF;}
</style>
<g>
	<path class="st0" d="M17.1,15.6c0-6.5,5.2-11.7,11.7-11.7s11.7,5.2,11.7,11.7s-5.2,11.7-11.7,11.7C22.4,27.3,17.1,22.1,17.1,15.6z
		 M19,15.6c0,5.4,4.4,9.8,9.8,9.8c5.4,0,9.8-4.4,9.8-9.8c0-5.4-4.4-9.8-9.8-9.8C23.4,5.9,19,10.2,19,15.6z"/>
</g>
<g>
	<path class="st0" d="M10.4,46.6h1.9c0-3.8,1.3-8.4,3.3-12.3c2.3-4.3,5.2-7.2,8.2-8.1l-0.6-1.8c-3.5,1.1-6.8,4.3-9.4,9
		C11.7,37.5,10.4,42.5,10.4,46.6z"/>
</g>
<g>
	<path class="st0" d="M0,44.2h1.9c0-7.2,4.8-17.5,10.8-19.3l0.7-0.2v-1.5l-0.5-0.3c-2.9-1.6-4.7-4.6-4.7-8c0-5,4.1-9.1,9.1-9.1V3.9
		c-6.1,0-11,4.9-11,11c0,3.4,1.6,6.6,4.3,8.7c-2.7,1.4-5.2,4.2-7.2,8C1.3,35.6,0,40.3,0,44.2z"/>
</g>
<g>
	<path class="st0" d="M38.1,28.9c-1.2-1-2.8-2.1-4.2-2.8l1.1-1.6c1.5,0.8,3,1.7,4.3,2.8L38.1,28.9z"/>
</g>
<g>
	<rect x="33.7" y="36" class="st0" width="18.3" height="1.9"/>
</g>
<g>
	<rect x="41.9" y="27.8" class="st0" width="1.9" height="18.3"/>
</g>
</svg>
