<?xml version="1.0" encoding="utf-8"?>
<!-- Generator: Adobe Illustrator 23.0.2, SVG Export Plug-In . SVG Version: 6.00 Build 0)  -->
<svg version="1.1" id="Layer_1" xmlns="http://www.w3.org/2000/svg" xmlns:xlink="http://www.w3.org/1999/xlink" x="0px" y="0px"
	 viewBox="0 0 52 52" style="enable-background:new 0 0 52 52;" xml:space="preserve">
<style type="text/css">
	.st0{fill:#FFFFFF;}
</style>
<g id="XMLID_1429_">
	<g id="XMLID_194_">
		<path class="st0" d="M10.2,31.1c0.1,0,0.1,0,0.2,0c0.2,0,0.4-0.2,0.5-0.4l2.9-8.1c0.1-0.2,0-0.4-0.1-0.5c-0.1-0.2-0.3-0.2-0.5-0.2
			H9.7c-0.3,0-0.6,0.3-0.6,0.6c0,0.3,0.3,0.6,0.6,0.6h2.9l-2.6,7.4C9.8,30.7,9.9,31,10.2,31.1z"/>
		<path class="st0" d="M22,31.1c0.1,0,0.1,0,0.2,0c0.2,0,0.4-0.2,0.5-0.4l2.9-8.1c0.1-0.2,0-0.4-0.1-0.5c-0.1-0.2-0.3-0.2-0.5-0.2
			h-3.7c-0.3,0-0.6,0.3-0.6,0.6c0,0.3,0.3,0.6,0.6,0.6h2.9l-2.6,7.4C21.5,30.7,21.7,31,22,31.1z"/>
		<path class="st0" d="M33.7,31.1c0.1,0,0.1,0,0.2,0c0.2,0,0.4-0.2,0.5-0.4l2.9-8.1c0.1-0.2,0-0.4-0.1-0.5c-0.1-0.2-0.3-0.2-0.5-0.2
			h-3.7c-0.3,0-0.6,0.3-0.6,0.6c0,0.3,0.3,0.6,0.6,0.6h2.9l-2.6,7.4C33.3,30.7,33.4,31,33.7,31.1z"/>
		<path class="st0" d="M40.9,35.6c0.3,0,0.6-0.3,0.6-0.6V18c0-0.3-0.3-0.6-0.6-0.6H5.6c-0.3,0-0.6,0.3-0.6,0.6v17
			c0,0.3,0.3,0.6,0.6,0.6H40.9z M29.7,18.5h10.6v15.9H29.7V18.5z M17.9,18.5h10.6v15.9H17.9V18.5z M6.2,18.5h10.6v15.9H6.2V18.5z"/>
		<g>
			<path class="st0" d="M49.6,23.3V7l0.3-0.1C51.1,6.5,52,5.3,52,4c0-1.7-1.3-3-3-3s-3,1.3-3,3c0,1.3,0.9,2.5,2.1,2.9L48.5,7v16.4
				c0,1.4-1.1,2.5-2.5,2.6l-0.5,0v-12c0-0.3-0.3-0.6-0.6-0.6h-4.1l-0.1-0.3C38,5.9,31,1,23.3,1S8.5,5.9,5.7,13.1l-0.1,0.3H1.6
				c-0.3,0-0.6,0.3-0.6,0.6v25.1c0,0.3,0.3,0.6,0.6,0.6h3.5v11.8c0,0.3,0.3,0.6,0.6,0.6h35.3c0.3,0,0.6-0.3,0.6-0.6V39.6H45
				c0.3,0,0.6-0.3,0.6-0.6v-12l0.4,0C48,27,49.6,25.4,49.6,23.3z M40.3,50.9H6.2V39.6h34.2V50.9z M44.4,38.5H2.1v-24h29
				c-0.1-0.2-0.1-0.4-0.1-0.6c0-0.2,0-0.4,0.1-0.6H6.8l0.3-0.6C9.9,6.3,16.2,2.1,23.3,2.1c7,0,13.4,4.2,16.2,10.6l0.3,0.6h-9.5
				c0.1,0.2,0.1,0.4,0.1,0.6c0,0.2,0,0.4-0.1,0.6h14.2V38.5z M47.1,4c0-1,0.8-1.9,1.9-1.9S50.9,3,50.9,4S50,5.9,49,5.9
				S47.1,5,47.1,4z"/>
		</g>
		<path class="st0" d="M34.6,45.8c0.3,0,0.6-0.3,0.6-0.6c0-0.3-0.3-0.6-0.6-0.6H11.9c-0.3,0-0.6,0.3-0.6,0.6c0,0.3,0.3,0.6,0.6,0.6
			H34.6z"/>
	</g>
</g>
</svg>
