<?xml version="1.0" encoding="utf-8"?>
<!-- Generator: Adobe Illustrator 23.0.2, SVG Export Plug-In . SVG Version: 6.00 Build 0)  -->
<svg version="1.1" id="Layer_1" xmlns="http://www.w3.org/2000/svg" xmlns:xlink="http://www.w3.org/1999/xlink" x="0px" y="0px"
	 viewBox="0 0 52 52" style="enable-background:new 0 0 52 52;" xml:space="preserve">
<style type="text/css">
	.st0{fill:#FFFFFF;}
</style>
<g id="Capa_1_copy">
	<g>
		<circle class="st0" cx="24.5" cy="10.2" r="0.6"/>
		<path class="st0" d="M21.3,50.3h30c0.3,0,0.6-0.3,0.6-0.6c0,0,0-0.1,0-0.1l0-0.1v-0.1c-0.1-2.1-1.1-4-2.8-5.3l-0.4-0.3v-3.7
			c0-3.8-3.1-6.9-6.9-6.9c-0.3,0-0.6,0.3-0.6,0.6c0,2.6-1.1,5.1-3.1,6.8c-2,1.7-4.6,2.4-7.3,1.9c-1.7-0.3-3.3-1.1-4.6-2.4
			c-1.3-1.3-2.1-2.9-2.5-4.6l0-0.1l0-0.1c0.5-5.5,2.4-8.7,4.2-11.7c2.4-4,5.1-8.6,5.1-18.7V2.3c0-0.3-0.3-0.6-0.6-0.6h-1.6
			c-8.7,0-16.7,4.7-21.1,12.2l-0.3,0.5H0.6c-0.3,0-0.6,0.3-0.6,0.6v14.2c0,5.6,2.2,11,6.3,15C10.3,48.1,15.7,50.3,21.3,50.3z
			 M25.9,41.6c1.4,1.2,3,1.9,4.7,2.2c3,0.5,6-0.3,8.3-2.2c1.8-1.5,3.1-3.7,3.5-6.1l0.2-1.1l1,0.3c2.4,0.8,4,2.9,4,5.4v4
			c0,0.2,0.1,0.4,0.3,0.5c1.2,0.7,2.1,1.7,2.5,3l0.5,1.3H34c-4.2,0-7.9-2.5-9.6-6.3l-1.8-3.9L25.9,41.6z M11.6,13.3
			C15.9,6.8,23.1,2.9,30.8,2.9h0.9v2c0,9.7-2.5,13.9-4.9,18l-0.4,0.7l-0.5,0.1c-0.5,0.1-1,0.1-1.4,0.1c-3,0-5.8-0.9-8.1-2.7
			s-4-4.2-4.9-7l-0.1-0.4L11.6,13.3z M9.6,17l0.8-1.9l0.9,1.8c1,1.9,2.3,3.5,4,4.8c2.5,2,5.6,3.1,8.8,3.2l1.5,0l-0.7,1.3
			c-1.8,3.6-2.6,7.4-2.6,12.2c0,2.9,1.1,5.6,3,7.8l2.3,2.5l-3.3-1c-4.3-1.3-8.1-3.8-11-7.1c-3-3.4-4.8-7.5-5.4-11.9l0,0
			C7.4,24.9,8,20.8,9.6,17z M1.3,29.2V15.6h7.5l-0.5,1.3C6.7,20.7,6.2,25,6.7,29.2c0.7,5.9,3.7,11.3,8.4,15.2c1.2,1,2.6,1.9,4,2.7
			l4.5,2.5l-5.1-0.7c-4.7-0.7-9.1-3-12.3-6.6C3,38.6,1.3,34,1.3,29.2z"/>
	</g>
</g>
</svg>
