<?xml version="1.0" encoding="utf-8"?>
<!-- Generator: Adobe Illustrator 23.0.2, SVG Export Plug-In . SVG Version: 6.00 Build 0)  -->
<svg version="1.1" id="Layer_1" xmlns="http://www.w3.org/2000/svg" xmlns:xlink="http://www.w3.org/1999/xlink" x="0px" y="0px"
	 viewBox="0 0 52 52" style="enable-background:new 0 0 52 52;" xml:space="preserve">
<style type="text/css">
	.st0{fill:#FFFFFF;}
</style>
<g>
	<path class="st0" d="M19.8,45l-9.3,4.4c1-13.6,8.4-26.7,10.4-27.4c0.2-0.1,0.4-0.1,0.6-0.2c0.5-0.2,0.7-0.7,0.6-1.1
		c-0.1-0.5-0.6-0.7-1.1-0.6c-0.1,0-0.3,0.1-0.6,0.2c-1.6,0.4-2.7,0-2.9-0.1c-2.5-1.7-4.5-0.7-5.3,0.2c0,0,0,0.1-0.1,0.1
		c-0.9,1.2-1.8,1.8-2.8,1.9c-1.4,0.1-2.5-1.1-2.5-1.1C6.9,21.1,6.8,21,6.7,21c-0.7-0.4-1.1-0.9-1.2-1.3c-0.2-0.9,0.5-2.1,1.2-3.2
		L7,15.9c0.9-1.6,1.9-3,3-4.2l2.8-3c0.1-0.1,0.2-0.2,0.2-0.4c0.6-2,4.1-2.1,4.1-2.1c0.3,0,0.6-0.1,0.7-0.4C18,5.7,18.1,5.4,18,5.1
		l-1-2.8L21,3.6c0.1,0,0.2,0,0.3,0c4,0,7.7,1.6,9.8,4.3c2.4,3,3.1,7.2,2,12.5c0.6,0,1.2,0.1,1.8,0.2c1.1-5.8,0.3-10.4-2.4-13.8
		c-2.5-3.1-6.6-5-11.1-5L15.7,0c-0.3-0.1-0.7,0-0.9,0.2c-0.2,0.3-0.3,0.6-0.2,0.9l1.3,3.4c-1.5,0.2-3.8,0.9-4.5,3l-2.6,2.8
		c-1.2,1.3-2.3,2.8-3.3,4.5l-0.3,0.5c-0.9,1.5-1.8,3-1.4,4.6c0.2,0.9,0.9,1.7,2,2.4c0.4,0.4,1.8,1.7,3.8,1.6c1.5-0.1,2.9-1,4.1-2.6
		c0.2-0.2,1.3-1.1,3,0.1c0,0,0.1,0,0.1,0.1c0,0,1.1,0.8,1.4,0.9c-3.4,2.4-8.8,16.5-9.4,27.7c0,0.2,0.1,0.5,0.2,0.7
		c0.2,0.2,0.4,0.3,0.7,0.3L21,46.3C20.6,45.9,20.2,45.4,19.8,45z"/>
</g>
<g>
	<path class="st0" d="M32.1,52c-8.9,0-16.2-7.3-16.2-16.2s7.3-16.2,16.2-16.2c8.9,0,16.2,7.3,16.2,16.2S41.1,52,32.1,52z M32.1,21.3
		c-8,0-14.5,6.5-14.5,14.5s6.5,14.5,14.5,14.5c8,0,14.5-6.5,14.5-14.5S40.1,21.3,32.1,21.3z"/>
</g>
<g>
	<path class="st0" d="M28.1,42.7V29.5l11.4,6.6L28.1,42.7z M29.8,32.5v7.2l6.3-3.6L29.8,32.5z"/>
</g>
</svg>
