<?xml version="1.0" encoding="utf-8"?>
<!-- Generator: Adobe Illustrator 23.0.2, SVG Export Plug-In . SVG Version: 6.00 Build 0)  -->
<svg version="1.1" id="Layer_1" xmlns="http://www.w3.org/2000/svg" xmlns:xlink="http://www.w3.org/1999/xlink" x="0px" y="0px"
	 viewBox="0 0 52 52" style="enable-background:new 0 0 52 52;" xml:space="preserve">
<style type="text/css">
	.st0{fill:#FFFFFF;}
</style>
<g id="surface1">
	<path class="st0" d="M44.7,32.7c0.1-0.1,0.1-0.2,0.1-0.4V11c1.9,0,3.4-1.5,3.4-3.4s-1.5-3.4-3.4-3.4H7.2c-1.9,0-3.4,1.5-3.4,3.4
		S5.3,11,7.2,11v21.4c0,0.5,0.4,0.9,0.9,0.9h6.8V46c0,3.3,2.7,6,6,6h10.7c2.7,0,5.2-1.4,6.6-3.7l6.9-11.6
		C45.8,35.4,45.7,33.8,44.7,32.7z M37.1,33.2h2.1l-2.1,3.2V33.2z M8.9,26.4h34.2v1.7H8.9L8.9,26.4L8.9,26.4z M46.5,7.6
		c0,0.9-0.8,1.7-1.7,1.7V5.9C45.7,5.9,46.5,6.6,46.5,7.6z M43.1,5.9v18.8H8.9V5.9H43.1z M5.5,7.6c0-0.9,0.8-1.7,1.7-1.7v3.4
		C6.3,9.3,5.5,8.5,5.5,7.6z M8.9,31.5v-1.7h34.2v1.7H8.9z M43.6,35.8l-6.9,11.6c-1.1,1.8-3,2.9-5.1,2.9H20.9c-2.4,0-4.3-1.9-4.3-4.3
		V33.2H20v3.4h1.7v-3.4h3.4v3.4h1.7v-3.4h3.4v3.4H32v-3.4h3.4v5.1h-2.6c-4.2,0-7.7,3.4-7.7,7.7h1.7c0-3.3,2.7-6,6-6h3.4
		c0.3,0,0.6-0.1,0.7-0.4l3.8-5.7c0.5-0.8,1.5-1,2.3-0.5C43.8,34,44.1,35,43.6,35.8L43.6,35.8z"/>
	<path class="st0" d="M50.8,0.7H1.2c-0.5,0-0.9,0.4-0.9,0.9v12c0,0.5,0.4,0.9,0.9,0.9h4.3v-1.7H2.1V2.5h47.8v10.3h-3.4v1.7h4.3
		c0.5,0,0.9-0.4,0.9-0.9v-12C51.6,1.1,51.2,0.7,50.8,0.7z"/>
	<path class="st0" d="M11.5,20.4c0.9,0,1.7,0.8,1.7,1.7c0,0.5,0.4,0.9,0.9,0.9H38c0.5,0,0.9-0.4,0.9-0.9c0-0.9,0.8-1.7,1.7-1.7
		c0.5,0,0.9-0.4,0.9-0.9V11c0-0.5-0.4-0.9-0.9-0.9c-0.9,0-1.7-0.8-1.7-1.7c0-0.5-0.4-0.9-0.9-0.9H14c-0.5,0-0.9,0.4-0.9,0.9
		c0,0.9-0.8,1.7-1.7,1.7c-0.5,0-0.9,0.4-0.9,0.9v8.5C10.6,20,11,20.4,11.5,20.4z M20.9,15.3c0-3.3,2.3-6,5.1-6s5.1,2.7,5.1,6
		s-2.3,6-5.1,6S20.9,18.6,20.9,15.3z M37.2,9.3c0.3,1.2,1.3,2.1,2.5,2.5v7c-1.2,0.3-2.1,1.3-2.5,2.5h-6.9c1.7-1.5,2.6-3.7,2.5-6
		c0-2.3-0.9-4.4-2.5-6L37.2,9.3L37.2,9.3z M12.3,11.7c1.2-0.3,2.1-1.3,2.5-2.5h6.9c-1.7,1.5-2.6,3.7-2.5,6c0,2.3,0.9,4.4,2.5,6h-6.9
		c-0.3-1.2-1.3-2.1-2.5-2.5L12.3,11.7L12.3,11.7z"/>
	<path class="st0" d="M14.9,14.4h1.7v1.7h-1.7V14.4z"/>
	<path class="st0" d="M35.4,14.4h1.7v1.7h-1.7V14.4z"/>
	<path class="st0" d="M3.8,32.4H2.1c0,3.3,2.7,6,6,6v-1.7C5.7,36.6,3.8,34.7,3.8,32.4z"/>
</g>
</svg>
